<?xml version="1.0" standalone="no"?>
<!DOCTYPE svg PUBLIC "-//W3C//DTD SVG 1.1//EN" "http://www.w3.org/Graphics/SVG/1.1/DTD/svg11.dtd" >
<svg xmlns="http://www.w3.org/2000/svg">
<metadata></metadata>
<defs>
<font id="newjunepromediumitalic" horiz-adv-x="1163" >
<font-face units-per-em="2048" ascent="1597" descent="-451" />
<missing-glyph horiz-adv-x="604" />
<glyph unicode="IJ" horiz-adv-x="1265" d="M80 0l215 1524h194l-215 -1524h-194zM477 33l43 168q129 -37 193 -37q88 0 131.5 53t58.5 174l160 1133h192l-159 -1147q-55 -383 -387 -383q-82 0 -232 39z" />
<glyph unicode="ij" horiz-adv-x="972" d="M80 0l156 1116h174l-156 -1116h-174zM256 1427q0 67 35.5 106.5t95.5 39.5q96 0 96 -98q0 -66 -36.5 -105t-92.5 -39q-47 0 -72.5 25t-25.5 71zM324 -371l22 144q95 3 147.5 58t67.5 163l160 1122h174l-160 -1128q-24 -175 -131.5 -267t-279.5 -92zM745 1427 q0 67 35 106.5t94 39.5q99 0 99 -98q0 -66 -37.5 -105t-93.5 -39q-46 0 -71.5 25t-25.5 71z" />
<glyph unicode="&#x27;n" horiz-adv-x="1132" d="M80 0l127 924q20 119 137 151q186 51 332 51q103 0 176 -30.5t110 -84.5t51 -127t-1 -157l-103 -727h-172l99 709q19 127 -23.5 193.5t-169.5 66.5q-106 0 -262 -41l-131 -928h-170zM235 1308.5q-17 34.5 5 80.5l96 208h196l-120 -251q-37 -72 -107 -72q-53 0 -70 34.5z " />
<glyph unicode="ff" horiz-adv-x="1427" d="M-90 -371l22 144q95 3 147.5 58t67.5 163l138 958h-164l20 148h162l16 100q54 369 433 369q188 0 358 -72q87 70 227 70q83 0 215 -35l-36 -150q-113 29 -183 29q-51 0 -87 -17t-57 -50.5t-32 -72t-18 -93.5l-13 -78h322l-21 -148h-321l-137 -964q-25 -175 -130.5 -267 t-277.5 -92l23 144q95 3 147.5 58t67.5 163l135 958h-479l-136 -964q-26 -176 -131.5 -267.5t-277.5 -91.5zM475 1100h479l15 102q14 99 51 170q-127 43 -266 43q-115 0 -180.5 -53t-86.5 -182z" />
<glyph unicode="fi" horiz-adv-x="1191" d="M-90 -371l22 144q95 3 147.5 58t67.5 163l138 958h-164l20 148h162l16 100q28 194 121.5 281.5t245.5 87.5q75 0 215 -37l-37 -150q-113 29 -182 29q-51 0 -87 -17t-57 -50.5t-32.5 -72t-18.5 -93.5l-12 -78h639l-153 -1100h-177l134 952h-463l-136 -964 q-26 -176 -131.5 -267.5t-277.5 -91.5zM961 1427q0 67 36.5 106.5t94.5 39.5q98 0 98 -100q0 -64 -37.5 -103t-93.5 -39q-46 0 -72 24.5t-26 71.5z" />
<glyph unicode="fl" horiz-adv-x="1214" d="M-90 -371l22 144q95 3 147.5 58t67.5 163l138 958h-164l20 148h162l16 100q54 369 416 369q140 0 289 -45l180 55l-221 -1579h-176l197 1372q-138 41 -265 41q-110 0 -170.5 -52t-81.5 -183l-12 -78h322l-19 -148h-323l-136 -964q-26 -176 -131.5 -267.5t-277.5 -91.5z " />
<glyph unicode="ffi" horiz-adv-x="1841" d="M-90 -371l22 144q95 3 147.5 58t67.5 163l138 958h-164l20 148h162l16 100q54 369 433 369q190 0 360 -72q87 72 225 72q75 0 215 -37l-36 -150q-113 29 -183 29q-51 0 -87 -17t-57 -51t-31.5 -71.5t-18.5 -93.5l-13 -78h639l-153 -1100h-176l133 952h-463l-135 -964 q-26 -176 -132 -267.5t-278 -91.5l23 144q95 3 147.5 58t67.5 163l135 958h-479l-136 -964q-26 -176 -131.5 -267.5t-277.5 -91.5zM475 1100h479l17 100q11 98 49 172q-127 43 -266 43q-115 0 -180.5 -53t-86.5 -184zM1612 1427q0 67 36 106.5t95 39.5q98 0 98 -100 q0 -65 -37 -103.5t-94 -38.5q-46 0 -72 24.5t-26 71.5z" />
<glyph unicode="&#xd;" horiz-adv-x="604" />
<glyph unicode=" "  horiz-adv-x="604" />
<glyph unicode="&#x09;" horiz-adv-x="604" />
<glyph unicode="&#xa0;" horiz-adv-x="604" />
<glyph unicode="!" horiz-adv-x="454" d="M63 80q0 68 35.5 107.5t94.5 39.5q98 0 98 -100q0 -65 -37.5 -103t-93.5 -38q-46 0 -71.5 25t-25.5 69zM137 473l148 1051h174l-148 -1051h-174z" />
<glyph unicode="&#x22;" horiz-adv-x="747" d="M238 1563h172l-17 -435h-141zM588 1563h174l-17 -435h-139z" />
<glyph unicode="#" horiz-adv-x="1206" d="M68 422l24 156h205l68 350h-218l27 153h221l84 443h168l-86 -443h260l84 443h166l-86 -443h207l-25 -153h-209l-63 -350h217l-27 -156h-221l-78 -422h-168l82 422h-266l-82 -422h-170l84 422h-198zM465 578h264l66 350h-265z" />
<glyph unicode="$" d="M61 113l48 172l112 -43q212 -82 373 -82q145 0 230 61.5t85 190.5q0 97 -54.5 145.5t-184.5 91.5l-150 51q-171 57 -256.5 149.5t-85.5 237.5q0 200 132.5 318t351.5 123l36 248h158l-41 -256q125 -19 275 -70l104 -37l-49 -174l-113 39q-227 80 -362 80 q-303 0 -303 -254q0 -84 47.5 -139t156.5 -91l191 -67q179 -65 257.5 -150.5t78.5 -228.5q0 -198 -135.5 -314.5t-360.5 -121.5l-33 -256h-157l37 264q-134 14 -283 74z" />
<glyph unicode="%" horiz-adv-x="1269" d="M94 0l979 1524h154l-977 -1524h-156zM135 1047l33 245q17 117 87 180.5t187 63.5q116 0 169 -67t36 -185l-35 -242q-31 -245 -266 -245q-118 0 -173 67t-38 183zM270 1044q-16 -131 86 -131q105 0 121 131l35 242q19 131 -84 131q-104 0 -123 -131zM674 240l35 247 q17 117 86 179.5t186 62.5t170.5 -67t36.5 -185l-33 -241q-39 -246 -268 -246q-117 0 -172.5 66.5t-40.5 183.5zM813 240q-19 -131 84 -131q104 0 123 131l33 241q16 131 -86 131q-53 0 -83 -34.5t-38 -96.5z" />
<glyph unicode="&#x26;" horiz-adv-x="1316" d="M66 342q0 93 26 167.5t76 128t105 90.5t130 71q-108 159 -108 331q0 84 24 154.5t65 119.5t98 82.5t122 49.5t137 16q156 0 253.5 -83.5t97.5 -227.5q0 -47 -9 -90t-22 -77t-37.5 -67t-46 -57t-57.5 -50t-62.5 -42.5t-70 -38.5t-70.5 -34.5t-74 -32.5l289 -402 q113 152 149 391l23 172h162l-25 -178q-44 -309 -221 -508l164 -227h-211l-82 113q-193 -138 -430 -138q-186 0 -290.5 104.5t-104.5 262.5zM242 348q0 -95 60 -159t181 -64q188 0 326 104l-322 451q-118 -63 -181.5 -139t-63.5 -193zM459 1139q0 -126 100 -273q50 20 82 34 t75 36t70 41.5t57 48t46.5 58t27.5 68.5t11 83q0 79 -52 128.5t-147 49.5q-128 0 -199 -76.5t-71 -197.5z" />
<glyph unicode="'" horiz-adv-x="409" d="M238 1563h186l-16 -435h-154z" />
<glyph unicode="(" horiz-adv-x="598" d="M86 377q0 87 7.5 182t26 209t47 218.5t75 204t105.5 172.5t142 117t181 44l-19 -142q-81 -2 -149 -72t-112 -178t-74.5 -244t-44 -265t-13.5 -246q0 -97 14 -169.5t33.5 -111t48.5 -62t51.5 -30.5t49.5 -8l-21 -146q-51 0 -96 12.5t-92.5 48.5t-81.5 92.5t-56 152.5 t-22 221z" />
<glyph unicode=")" horiz-adv-x="598" d="M-29 -150l19 142q81 2 149 72t112 178t74.5 243.5t44 264.5t13.5 245q0 98 -14 170.5t-33 111t-48.5 62t-51.5 30.5t-50 9l21 146q51 0 96 -12.5t93 -48.5t82.5 -92.5t56.5 -152.5t22 -221q0 -87 -7.5 -182t-26.5 -209t-47.5 -218.5t-75.5 -204t-106 -172.5t-142 -117 t-181 -44z" />
<glyph unicode="*" d="M205 1161l55 178l342 -139l-31 363h199l-29 -363l340 137l58 -178l-359 -86l240 -282l-162 -111l-186 317l-189 -315l-159 111l239 282z" />
<glyph unicode="+" d="M117 524v158h379v428h168v-428h383v-158h-383v-430h-168v430h-379z" />
<glyph unicode="," horiz-adv-x="430" d="M-31 -143l133 376h191l-156 -415q-24 -68 -98 -68q-45 0 -64 32t-6 75z" />
<glyph unicode="-" horiz-adv-x="776" d="M127 555l20 162h572l-23 -162h-569z" />
<glyph unicode="." horiz-adv-x="430" d="M63 82q0 68 35.5 107.5t94.5 39.5q98 0 98 -100q0 -67 -36.5 -105t-92.5 -38q-47 0 -73 25t-26 71z" />
<glyph unicode="/" horiz-adv-x="817" d="M-37 0l795 1524h166l-789 -1524h-172z" />
<glyph unicode="0" d="M141 485l78 555q33 238 162.5 370t341.5 132q213 0 308 -133.5t61 -374.5l-76 -547q-34 -245 -158.5 -377.5t-335.5 -132.5q-215 0 -315 135t-66 373zM313 487q-49 -354 219 -354q137 0 212.5 90t99.5 264l78 549q49 353 -217 353q-264 0 -314 -353z" />
<glyph unicode="1" d="M74 0l20 158h406l172 1206h-82q-136 0 -230 -47v156q41 25 116.5 38t146.5 13h108q69 0 101.5 -41t23.5 -111l-172 -1214h330l-21 -158h-919z" />
<glyph unicode="2" d="M78 86q0 71 61 129l535 490q141 128 203.5 229.5t62.5 232.5q0 110 -62 160.5t-169 50.5q-63 3 -141.5 -14.5t-194.5 -52.5l-94 -29l-27 154l86 28q234 78 391 78q174 0 282.5 -92.5t108.5 -265.5q0 -145 -72 -281.5t-253 -300.5l-496 -450h680l-18 -152h-795 q-42 0 -65 23.5t-23 62.5z" />
<glyph unicode="3" d="M70 90l43 158l90 -29q220 -78 344 -76q153 0 238 75t85 206q0 89 -55 160l-78 106h-268l20 148h265l94 110q92 114 92 242q0 86 -56 136t-171 50q-122 0 -334 -67l-86 -29l-27 158l86 26q246 74 381 74q189 0 286 -91t97 -245q0 -169 -125 -313l-110 -127l86 -109 q77 -96 77 -231q0 -198 -140.5 -318t-360.5 -120q-151 -2 -389 77z" />
<glyph unicode="4" d="M53 365q0 51 51 120l707 971q61 80 143 80q116 0 101 -121l-140 -983h160l-22 -149h-158l-39 -283h-170l37 283h-586q-84 0 -84 82zM260 432h485l119 836z" />
<glyph unicode="5" d="M86 86l41 158l82 -29q205 -72 315 -72q170 0 264.5 117t94.5 309q0 127 -69.5 189.5t-199.5 62.5q-115 0 -254 -43l-131 -39l109 785h797l-23 -166h-641l-59 -426q148 45 258 45q184 0 285.5 -99t101.5 -294q0 -276 -147 -438t-392 -162q-157 0 -354 73z" />
<glyph unicode="6" d="M147 502l78 567q31 219 161.5 343t334.5 124q152 0 350 -70l80 -28l-39 -158l-80 29q-203 67 -315 67q-139 0 -219 -83t-101 -236l-18 -137q174 57 293 57q194 0 294.5 -103t100.5 -292q0 -168 -63.5 -302.5t-185 -213t-279.5 -78.5q-146 0 -243 67.5t-134 182.5t-15 264 zM317 372.5q8 -65.5 32 -116.5t78 -82t132 -31q147 0 238.5 117.5t91.5 310.5q0 248 -260 248q-87 0 -271 -51l-36 -260q-13 -70 -5 -135.5z" />
<glyph unicode="7" d="M270 1364l21 160h807q98 0 98 -84q0 -45 -41 -125l-678 -1315h-196l712 1364h-723z" />
<glyph unicode="8" d="M92 338q0 177 141 321l109 121l-55 115q-54 106 -54 219q0 196 136 313t350 117q189 0 294 -92.5t105 -247.5q0 -161 -117 -311l-94 -125l76 -113q68 -100 68 -217q0 -210 -144.5 -334t-378.5 -124q-203 0 -319.5 94.5t-116.5 263.5zM264 344q0 -97 71 -153t202 -56 q161 0 250.5 80t89.5 215q0 75 -52 154l-69 106h-281l-102 -106q-106 -110 -109 -240zM406 1108q0 -89 34 -162l54 -108h282l80 108q90 121 90 242q0 91 -58.5 144.5t-178.5 53.5q-148 0 -225.5 -78t-77.5 -200z" />
<glyph unicode="9" d="M104 86l39 158l80 -29q206 -68 316 -68q139 0 218.5 83.5t100.5 236.5l19 137q-171 -57 -293 -57q-194 0 -294 102.5t-100 292.5q0 168 64 302.5t185 213t278 78.5q146 0 243 -67.5t133.5 -182.5t14.5 -264l-78 -565q-31 -220 -161 -344.5t-334 -124.5q-156 0 -351 69z M367 952q0 -247 260 -247q85 0 272 51l35 262q13 68 5 133t-31.5 116t-78 82t-133.5 31q-147 0 -238 -117t-91 -311z" />
<glyph unicode=":" horiz-adv-x="464" d="M80 82q0 68 36 107.5t95 39.5q98 0 98 -100q0 -67 -37.5 -105t-93.5 -38q-47 0 -72.5 25t-25.5 71zM174 956q0 68 36 108t95 40q98 0 98 -100q0 -66 -37.5 -105t-93.5 -39q-46 0 -72 25t-26 71z" />
<glyph unicode=";" horiz-adv-x="464" d="M-12 -143l133 376h190l-155 -415q-24 -68 -101 -68q-44 0 -62.5 32t-4.5 75zM174 956q0 68 36 108t95 40q98 0 98 -100q0 -66 -37.5 -105t-93.5 -39q-46 0 -72 25t-26 71z" />
<glyph unicode="&#x3c;" d="M117 604q0 91 82 127l848 363v-195l-746 -299l746 -295v-188l-848 358q-82 31 -82 129z" />
<glyph unicode="=" d="M117 365v157h930v-157h-930zM117 700v160h930v-160h-930z" />
<glyph unicode="&#x3e;" d="M117 117v188l743 295l-743 299v195l848 -363q82 -36 82 -127q0 -98 -82 -129z" />
<glyph unicode="?" horiz-adv-x="917" d="M203 1450l86 27q171 53 305 53q165 0 251.5 -78.5t86.5 -224.5q0 -121 -54.5 -213.5t-154.5 -184.5l-176 -165l-31 -191h-164l19 117q10 69 25.5 105t62.5 83l155 156q78 82 98 110q50 72 50 168q0 162 -182 162q-108 0 -263 -47l-90 -27zM270 80q0 68 36 107.5t95 39.5 q99 0 99 -100q0 -65 -37.5 -103t-93.5 -38q-46 0 -72.5 25t-26.5 69z" />
<glyph unicode="@" horiz-adv-x="1910" d="M178 719q0 178 61.5 331t169 261t259.5 169.5t327 61.5q213 0 383 -90t266.5 -252.5t96.5 -368.5q0 -225 -122.5 -370.5t-285.5 -145.5q-49 0 -110 26t-88 26q-39 0 -121 -16.5t-135 -16.5q-162 0 -247 96.5t-85 249.5q0 120 48.5 220t147.5 163t232 63q60 0 196 -16 l9 68h149l-94 -697q3 -3 16 -11.5t40 -19t52 -10.5q94 0 171 108t77 286q0 127 -45.5 233t-125 178t-189 112t-236.5 40q-195 0 -347 -87.5t-234 -241.5t-82 -349q0 -130 39.5 -241t111.5 -192t180 -127t240 -46q98 0 245.5 40t217.5 40q72 0 129 -35l102 -60l-57 -112 l-100 47q-38 18 -84 18q-48 0 -120.5 -18.5t-163 -37t-181.5 -18.5q-164 0 -300 58t-225.5 158.5t-138.5 235.5t-49 290zM702 676q0 -97 48.5 -156t146.5 -59q38 0 190 26l68 500q-96 12 -180 12q-70 0 -123.5 -26.5t-85.5 -72.5t-48 -102.5t-16 -121.5z" />
<glyph unicode="A" horiz-adv-x="1308" d="M-27 0l668 1434q46 104 156 104q105 0 123 -102l260 -1436h-203l-53 326h-600l-148 -326h-203zM389 479h514l-137 848z" />
<glyph unicode="B" horiz-adv-x="1280" d="M102 145l174 1248q7 64 50.5 97.5t113.5 33.5h461q162 0 250 -81.5t88 -225.5q0 -174 -121 -324l-106 -123l90 -115q78 -100 78 -227q0 -194 -133 -311t-342 -117h-474q-64 0 -101 39q-30 31 -30 81q0 12 2 25zM295 152h422q127 0 200.5 72.5t73.5 195.5q0 88 -53 160 l-84 112h-485zM389 840h481l91 112q90 115 90 250q0 91 -53.5 131.5t-137.5 40.5h-395z" />
<glyph unicode="C" horiz-adv-x="1304" d="M135 569q0 277 91 495.5t261.5 343t393.5 124.5q158 0 358 -76l92 -35l-47 -168l-100 37q-195 68 -314 68q-163 0 -285 -100t-185.5 -275.5t-63.5 -402.5q0 -422 362 -422q133 0 334 67l111 39l22 -164l-102 -37q-218 -79 -395 -79q-248 0 -390.5 150t-142.5 435z" />
<glyph unicode="D" horiz-adv-x="1386" d="M104 150l170 1224q11 68 57.5 109t114.5 41h336q251 0 396 -149t145 -431q0 -274 -93 -488t-264.5 -335t-394.5 -121h-340q-65 0 -101 42q-28 32 -28 80q0 13 2 28zM299 160h285q165 0 289.5 104.5t187.5 279.5t63 394q0 215 -96.5 320.5t-269.5 105.5h-283z" />
<glyph unicode="E" horiz-adv-x="1196" d="M104 150l170 1224q9 68 55.5 109t114.5 41h779l-21 -160h-729l-74 -506h652l-21 -156h-651l-80 -542h735l-20 -160h-783q-69 0 -103 41q-26 31 -27 78q0 15 3 31z" />
<glyph unicode="F" horiz-adv-x="1150" d="M80 0l194 1374q9 68 55 109t115 41h760l-22 -162h-713l-76 -533h664l-21 -159h-663l-94 -670h-199z" />
<glyph unicode="G" horiz-adv-x="1376" d="M135 571q0 201 52.5 376t149 305t241 205t319.5 75q174 0 375 -72l94 -33l-45 -170l-102 37q-192 64 -332 64q-133 0 -239 -60t-174.5 -166t-105 -248t-36.5 -309q0 -218 100 -324t287 -106q72 0 147.5 12t114.5 24l39 12l63 391h-325l18 153h365q75 0 105 -41 q24 -33 24 -81q0 -13 -2 -27l-54 -359q-8 -65 -45 -110t-86 -66q-159 -65 -391 -65q-261 0 -409 149t-148 434z" />
<glyph unicode="H" horiz-adv-x="1372" d="M80 0l215 1524h197l-95 -666h676l94 666h195l-213 -1524h-197l101 698h-676l-101 -698h-196z" />
<glyph unicode="I" horiz-adv-x="497" d="M80 0l215 1524h194l-215 -1524h-194z" />
<glyph unicode="J" horiz-adv-x="768" d="M-20 33l43 168q129 -37 192 -37q88 0 132 53t59 174l159 1133h193l-160 -1147q-55 -383 -387 -383q-81 0 -231 39z" />
<glyph unicode="K" horiz-adv-x="1265" d="M80 0l213 1524h192l-118 -830l735 830h231l-485 -539l291 -985h-203l-242 827l-215 -229q-39 -43 -61.5 -70.5t-47.5 -66.5t-39 -81.5t-20 -92.5l-39 -287h-192z" />
<glyph unicode="L" horiz-adv-x="1099" d="M102 150l195 1374h199l-193 -1356h694l-20 -168h-748q-67 0 -101 41q-27 33 -28 82q0 13 2 27z" />
<glyph unicode="M" horiz-adv-x="1648" d="M80 0l196 1395q9 66 54.5 102.5t113.5 36.5q61 0 98 -31t44 -90l194 -1175l523 1175q50 121 172 121h6q66 0 104 -36q31 -29 31 -78q0 -12 -2 -25l-197 -1395h-176l180 1278l-540 -1206q-20 -41 -56 -63.5t-80 -22.5q-48 0 -78 22.5t-36 63.5l-201 1194l-176 -1266h-174z " />
<glyph unicode="N" horiz-adv-x="1388" d="M80 0l196 1411q16 127 150 127q98 0 129 -96l467 -1149l178 1231h178l-196 -1397q-19 -137 -148 -137q-56 0 -88 27t-51 77l-461 1135l-174 -1229h-180z" />
<glyph unicode="O" horiz-adv-x="1499" d="M135 610q0 209 60 384.5t163 292t239.5 181t289.5 64.5q252 0 399.5 -163t147.5 -460q0 -261 -97.5 -472.5t-270.5 -332t-388 -120.5q-250 0 -396.5 164.5t-146.5 461.5zM332 608q0 -231 96 -349t274 -118q156 0 279 107t187.5 281t64.5 378q0 231 -96 347t-273 116 q-111 0 -208.5 -54.5t-169 -152t-113 -241.5t-41.5 -314z" />
<glyph unicode="P" horiz-adv-x="1181" d="M80 0l194 1374q9 68 55 109t115 41h375q172 0 271.5 -108t99.5 -288q0 -156 -67 -280.5t-182.5 -193t-256.5 -68.5h-326l-86 -586h-192zM379 741h317q138 0 226 109t88 266q0 117 -60 184.5t-168 67.5h-315z" />
<glyph unicode="Q" horiz-adv-x="1517" d="M143 610q0 209 60 384.5t163 292t239.5 181t289.5 64.5q251 0 399 -162.5t148 -456.5q0 -182 -57.5 -354t-164 -302t-241.5 -183q14 -6 39 -14.5t94 -22.5t129 -14h62l-23 -156h-68q-81 0 -154.5 18.5t-120 41t-112.5 41t-135 18.5q-250 0 -398.5 162t-148.5 462z M342 608q0 -231 94 -349t275 -118q118 0 218.5 62.5t168 167.5t105.5 243.5t38 290.5q0 231 -95 349t-274 118q-111 0 -208 -55t-168.5 -153.5t-112.5 -242.5t-41 -313z" />
<glyph unicode="R" horiz-adv-x="1286" d="M80 0l194 1382q8 66 51.5 104t112.5 38h457q166 0 256 -89t90 -251q0 -194 -160 -375l-129 -150l205 -659h-201l-182 610h-414l-86 -610h-194zM381 762h448l95 115q127 153 127 297q0 93 -49 144.5t-148 51.5h-387z" />
<glyph unicode="S" horiz-adv-x="1232" d="M68 111l47 176l114 -45q217 -86 383 -86q146 0 231 61t85 191q0 163 -178 221l-281 90q-138 46 -210.5 143.5t-72.5 224.5q0 207 139 327t367 120q186 0 418 -82l107 -39l-50 -174l-114 41q-236 82 -369 82q-144 0 -224.5 -64t-80.5 -196q0 -160 176 -219l279 -92 q140 -47 214 -142.5t74 -226.5q0 -203 -144.5 -320.5t-375.5 -117.5q-196 0 -428 88z" />
<glyph unicode="T" horiz-adv-x="1191" d="M178 1364l23 160h1063l-21 -160h-434l-193 -1364h-198l194 1364h-434z" />
<glyph unicode="U" horiz-adv-x="1390" d="M160 547l137 977h192l-135 -979q-8 -55 -8 -102q0 -298 307 -298q181 0 280 100.5t126 299.5l137 979h195l-138 -979q-39 -271 -198.5 -422.5t-419.5 -151.5q-264 0 -388 152q-96 117 -96 305q0 56 9 119z" />
<glyph unicode="V" horiz-adv-x="1267" d="M207 1524h199l182 -1284l540 1284h209l-637 -1436q-46 -98 -149 -98q-106 0 -121 98z" />
<glyph unicode="W" horiz-adv-x="1824" d="M242 98l16 1426h182l-28 -1291l514 1203q36 88 131 88q47 0 75.5 -22.5t32.5 -65.5l158 -1200l338 1288h188l-395 -1426q-13 -54 -52.5 -83t-96.5 -29q-119 0 -131 102l-154 1174l-504 -1176q-40 -100 -154 -100q-60 0 -91 29q-29 27 -29 77v6z" />
<glyph unicode="X" horiz-adv-x="1298" d="M-6 0l579 774l-358 750h215l279 -596l428 596h227l-561 -756l354 -768h-219l-274 616l-443 -616h-227z" />
<glyph unicode="Y" horiz-adv-x="1280" d="M188 1524h215l283 -688l459 688h221l-608 -871l-92 -653h-199l92 649z" />
<glyph unicode="Z" horiz-adv-x="1230" d="M35 96q0 63 47 119l913 1151h-768l21 158h882q46 0 72.5 -26.5t26.5 -70.5q0 -64 -45 -118l-916 -1151h801l-18 -158h-918q-46 0 -72 26t-26 70z" />
<glyph unicode="[" horiz-adv-x="598" d="M45 -133l231 1657h381l-18 -146h-215l-193 -1366h215l-20 -145h-381z" />
<glyph unicode="\" horiz-adv-x="835" d="M166 1524h166l442 -1524h-172z" />
<glyph unicode="]" horiz-adv-x="598" d="M-2 -133l18 145h217l193 1366h-217l20 146h383l-233 -1657h-381z" />
<glyph unicode="^" d="M131 88l340 940q27 86 109 86q83 0 114 -84l340 -942h-180l-274 809l-271 -809h-178z" />
<glyph unicode="_" horiz-adv-x="1024" d="M-4 -188h1032v-154h-1032v154z" />
<glyph unicode="`" horiz-adv-x="1060" d="M479 1563h228l131 -158q26 -29 26 -62q0 -26 -18.5 -46.5t-52.5 -20.5q-27 0 -66 31z" />
<glyph unicode="a" horiz-adv-x="1161" d="M94 455q0 175 65.5 319.5t193 233t294.5 88.5q116 0 254 -35l14 100h175l-148 -993l111 -68l-76 -129l-86 47q-37 22 -90 22q-25 0 -53 -5l-74 -15q-103 -22 -182 -22q-196 0 -297 120.5t-101 336.5zM272 457q0 -143 59.5 -227.5t186.5 -84.5q80 0 180 21l74 14l109 735 q-151 31 -238 31q-90 0 -162.5 -41.5t-117 -111.5t-68 -156t-23.5 -180z" />
<glyph unicode="b" horiz-adv-x="1167" d="M104 180l195 1383h168l-66 -476q177 37 271 37q199 0 299 -122.5t100 -335.5q0 -106 -24 -205.5t-72 -184.5t-115 -149t-158.5 -100.5t-197.5 -36.5q-200 0 -283 24q-120 33 -120 135q0 15 3 31zM272 168q132 -27 242 -27q77 0 141 29.5t108 79.5t75 117t45 140.5 t14 151.5q0 142 -66.5 225t-201.5 83q-119 0 -246 -23z" />
<glyph unicode="c" horiz-adv-x="1030" d="M94 455q0 189 70 342.5t198.5 242t292.5 88.5q114 0 283 -57l68 -24l-48 -154l-75 25q-149 53 -240 53q-90 0 -161.5 -43.5t-115.5 -117t-67 -163.5t-23 -188q0 -142 67 -228t189 -86q129 0 269 45l86 29l22 -151l-90 -27q-178 -53 -309 -53q-196 0 -306 129t-110 338z " />
<glyph unicode="d" d="M94 453q0 132 38 252.5t107.5 214t177.5 149t238 55.5q131 0 263 -32l65 471h170l-192 -1385q-14 -107 -132 -147q-124 -41 -313 -41q-209 0 -315.5 124.5t-106.5 338.5zM270 455q0 -144 65 -227t204 -83q100 0 245 23l111 776q-141 29 -244 29q-96 0 -171 -45.5 t-119.5 -121t-67.5 -165.5t-23 -186z" />
<glyph unicode="e" horiz-adv-x="1146" d="M96 449q0 143 43.5 270t118 217.5t178.5 143.5t221 53q106 0 188 -34.5t136 -104.5t72 -174q9 -50 9 -107q0 -64 -11 -138q-12 -79 -84 -79h-693q-2 -22 -2 -43q0 -133 66 -215q76 -95 201 -95q140 0 323 60l107 37l28 -148l-108 -35q-114 -36 -194.5 -52.5t-174.5 -16.5 q-194 0 -310 126q-114 123 -114 328v7zM293 627h588q9 58 9 111.5t-17 100t-45 80t-75.5 53t-109.5 19.5q-128 0 -223.5 -102t-126.5 -262z" />
<glyph unicode="f" horiz-adv-x="776" d="M-90 -371l22 144q95 3 147.5 58t67.5 163l136 958h-162l20 148h162l16 102q28 192 121.5 278.5t245.5 86.5q83 0 215 -35l-37 -150q-113 29 -182 29q-51 0 -87 -17t-57.5 -50.5t-32.5 -72t-18 -93.5l-12 -78h322l-21 -148h-321l-138 -964q-25 -176 -130 -267.5 t-277 -91.5z" />
<glyph unicode="g" horiz-adv-x="1212" d="M41 -80q0 116 98 221l117 125q47 52 47 99q0 32 -17.5 63t-42 59.5t-49 60.5t-42 79t-17.5 102q0 99 42.5 175t114.5 120.5t157.5 67t179.5 22.5h135q153 0 219 23l201 63l35 -147l-222 -66q31 -26 51.5 -75t20.5 -115q0 -189 -135.5 -285t-368.5 -96q-37 0 -70.5 2.5 t-48.5 5.5l-14 2q19 -28 19 -74q0 -53 -60 -121h307q202 0 294.5 -59.5t92.5 -187.5q0 -93 -43.5 -163t-122.5 -111t-179.5 -61t-223.5 -20q-222 0 -348.5 73.5t-126.5 217.5zM205 -74q0 -168 323 -168q81 0 147.5 10t124 33t90 66.5t32.5 103.5q0 123 -174 123h-467 q-40 -42 -58 -80.5t-18 -87.5zM301 729q0 -197 270 -197q148 0 239 64.5t91 196.5q0 190 -268 190q-154 0 -243 -61t-89 -193z" />
<glyph unicode="h" horiz-adv-x="1134" d="M80 0l219 1563h170l-72 -500q163 61 291 61q196 0 274 -108q58 -81 58 -204q0 -41 -6 -87l-103 -725h-172l101 721q4 31 4 59q0 78 -34 125q-46 64 -167 64q-51 0 -109.5 -15.5t-156.5 -50.5l-127 -903h-170z" />
<glyph unicode="i" horiz-adv-x="485" d="M80 0l156 1116h174l-156 -1116h-174zM256 1427q0 67 35.5 106.5t95.5 39.5q96 0 96 -98q0 -66 -36.5 -105t-92.5 -39q-47 0 -72.5 25t-25.5 71z" />
<glyph unicode="j" horiz-adv-x="489" d="M-162 -371l23 144q95 3 147.5 58t67.5 163l160 1122h174l-160 -1128q-24 -175 -132 -267t-280 -92zM260 1427q0 67 35 106.5t94 39.5q98 0 98 -98q0 -66 -37.5 -105t-93.5 -39q-46 0 -71 25t-25 71z" />
<glyph unicode="k" horiz-adv-x="1105" d="M80 0l219 1563h170l-145 -1020l571 573h217l-395 -393l284 -723h-188l-242 592l-157 -150q-68 -64 -97 -112t-43 -144l-26 -186h-168z" />
<glyph unicode="l" horiz-adv-x="493" d="M88 0l219 1563h176l-221 -1563h-174z" />
<glyph unicode="m" horiz-adv-x="1662" d="M80 0l127 924q8 53 47 92.5t87 59.5t110.5 32t104 15t81.5 3q174 0 252 -98q200 98 354 98q181 0 253 -102q53 -75 52 -193q0 -41 -6 -88l-104 -743h-168l102 727q3 31 3 58q0 75 -26 121q-36 62 -145 61q-66 0 -123.5 -16t-134.5 -50q11 -44 10 -93q0 -32 -4 -67 l-104 -741h-170l100 727q4 33 4 62q0 71 -26 117q-37 64 -146 63q-101 0 -231 -41l-129 -928h-170z" />
<glyph unicode="n" horiz-adv-x="1132" d="M80 0l127 924q20 119 137 151q186 51 332 51q103 0 176 -30.5t110 -84.5t51 -127q7 -35 7 -73q0 -41 -8 -84l-103 -727h-172l99 709q6 39 6 73q0 74 -30 120q-42 66 -169 67q-106 0 -262 -41l-131 -928h-170z" />
<glyph unicode="o" horiz-adv-x="1171" d="M92 459q0 144 43 269t118.5 212.5t181.5 137.5t227 50q196 0 306.5 -124.5t110.5 -341.5q0 -182 -69.5 -334.5t-201.5 -246t-300 -93.5q-195 0 -305.5 126.5t-110.5 344.5zM272 459q0 -151 65 -239.5t193 -88.5q85 0 157 47t117.5 123.5t71 169.5t25.5 188 q0 149 -66.5 236.5t-193.5 87.5q-107 0 -192 -72.5t-131 -192t-46 -259.5z" />
<glyph unicode="p" horiz-adv-x="1161" d="M20 -369l181 1305q14 115 133 151q130 39 313 39q208 0 314 -123.5t106 -336.5q0 -133 -38 -254.5t-107.5 -215.5t-177.5 -150t-238 -56q-138 0 -260 35l-56 -394h-170zM266 172q126 -29 246 -29q96 0 171 45.5t119 121t66.5 164.5t22.5 185q0 144 -64.5 227t-203.5 83 q-101 0 -246 -23z" />
<glyph unicode="q" horiz-adv-x="1159" d="M94 446q0 134 39 256t109.5 216.5t180 151t241.5 56.5q173 0 282 -28q120 -31 120 -131q0 -15 -3 -31l-182 -1305h-168l53 398q-172 -39 -270 -39q-199 0 -300.5 122.5t-101.5 333.5zM270 455q0 -145 66.5 -226.5t202.5 -81.5q108 0 245 25l111 774q-132 27 -242 27 q-95 0 -170.5 -45t-120.5 -120t-68.5 -165.5t-23.5 -187.5z" />
<glyph unicode="r" horiz-adv-x="743" d="M80 0l125 905q7 61 37.5 96t89.5 56q204 67 434 67l-23 -159q-208 0 -368 -58l-125 -907h-170z" />
<glyph unicode="s" horiz-adv-x="1042" d="M53 78l45 149l80 -26q198 -64 330 -64q93 0 155 41t62 133q0 55 -34.5 89.5t-108.5 56.5l-191 53q-122 33 -181.5 100t-59.5 178q0 90 34.5 158t93.5 106.5t128.5 57t148.5 18.5q166 0 358 -65l76 -27l-43 -151l-84 26q-68 22 -104 33t-99 22t-122 11 q-101 0 -159.5 -42.5t-58.5 -133.5q0 -55 34.5 -90.5t109.5 -57.5l194 -51q121 -33 180.5 -99.5t59.5 -176.5q0 -89 -35.5 -157t-94.5 -106.5t-128.5 -57.5t-146.5 -19q-171 0 -363 65z" />
<glyph unicode="t" horiz-adv-x="835" d="M115 950l20 150h158l39 270l174 39l-41 -309h336l-23 -150h-336l-86 -592q-6 -42 -6 -76q0 -58 18 -91q29 -52 113 -52q77 0 213 45v-147q-146 -49 -250 -49q-154 0 -220 92q-46 64 -46 172q0 46 8 100l86 598h-157z" />
<glyph unicode="u" horiz-adv-x="1130" d="M119 391l102 725h172l-98 -708q-6 -40 -6 -73q-1 -75 29 -121q42 -66 171 -67q108 0 263 43l129 926h172l-129 -923q-18 -120 -138 -152q-185 -49 -331 -49q-201 0 -281 108q-61 83 -61 209q0 39 6 82z" />
<glyph unicode="v" horiz-adv-x="1087" d="M137 1116h182l154 -934l426 934h188l-497 -1042q-43 -94 -146 -94q-102 0 -120 94z" />
<glyph unicode="w" horiz-adv-x="1576" d="M164 1116h182l29 -926l370 857q31 75 113 75t94 -75l129 -857l301 926h179l-361 -1032q-38 -104 -145 -104q-103 0 -115 96l-115 794l-350 -796q-42 -92 -143 -92q-110 0 -113 104z" />
<glyph unicode="x" horiz-adv-x="1056" d="M-14 0l440 563l-291 553h203l213 -418l309 418h209l-430 -549l301 -567h-201l-223 432l-323 -432h-207z" />
<glyph unicode="y" horiz-adv-x="1083" d="M-6 -342l39 145q92 -28 145 -28q64 0 102.5 31t67.5 98l27 59l-252 1153h194l177 -930l389 930h190l-567 -1261q-103 -230 -328 -230q-81 0 -184 33z" />
<glyph unicode="z" horiz-adv-x="1067" d="M53 90q0 61 43 107l705 782h-617l19 137h719q44 0 67 -24t23 -64q0 -62 -41 -106l-697 -781h623l-20 -141h-734q-42 0 -66 25t-24 65z" />
<glyph unicode="{" horiz-adv-x="600" d="M96 639v109q144 3 144 108q0 49 -26.5 117t-53.5 143t-27 139q0 125 79.5 197t209.5 72h98v-150h-84q-63 0 -99 -35.5t-36 -105.5q0 -69 47 -192t47 -191q0 -31 -8.5 -58.5t-19 -43.5t-25 -29.5t-21 -17.5t-12.5 -7q5 -3 12 -7.5t21.5 -18t25 -29.5t19 -43.5t8.5 -58.5 q0 -68 -47 -191.5t-47 -193.5t35.5 -105t99.5 -35h84v-149h-98q-130 0 -209.5 71.5t-79.5 196.5q0 51 16.5 109.5t37 102.5t37 96t16.5 91q0 49 -35 78.5t-109 30.5z" />
<glyph unicode="|" horiz-adv-x="471" d="M154 -369v1934h165v-1934h-165z" />
<glyph unicode="}" horiz-adv-x="600" d="M96 12h84q64 0 99.5 35t35.5 105t-47 193.5t-47 191.5q0 31 8.5 58.5t19 43.5t25 29.5t21.5 18t12 7.5q-6 3 -12.5 7t-21 17.5t-25 29.5t-19 43.5t-8.5 58.5q0 68 47 191t47 192q0 70 -36 105.5t-99 35.5h-84v150h99q130 0 209 -71.5t79 -197.5q0 -64 -26.5 -139 t-53 -143t-26.5 -117q0 -105 143 -108v-109q-143 -3 -143 -109q0 -49 26.5 -117t53 -143t26.5 -139q0 -125 -79 -196.5t-209 -71.5h-99v149z" />
<glyph unicode="~" d="M88 555q51 133 132 194.5t173 61.5q94 0 178 -63l109 -84q47 -41 98 -41q47 0 86 36.5t78 131.5l127 -86q-51 -133 -131 -194.5t-172 -61.5q-96 0 -180 63l-107 86q-48 39 -98 39q-47 0 -87 -36.5t-79 -131.5z" />
<glyph unicode="&#xa1;" horiz-adv-x="454" d="M25 -381l147 1051h174l-147 -1051h-174zM193 1014q0 67 37.5 105t93.5 38q46 0 72 -25t26 -69q0 -68 -36 -108t-95 -40q-98 0 -98 99z" />
<glyph unicode="&#xa2;" d="M147 455q0 266 134 451.5t352 213.5l35 260h157l-37 -262q105 -13 201 -49l68 -25l-47 -153l-76 24q-152 54 -240 54q-90 0 -161.5 -43.5t-115 -116t-66.5 -162.5t-23 -188q0 -141 67 -226.5t189 -85.5q115 0 268 46l86 28l23 -151l-91 -27q-142 -44 -243 -51l-39 -262 h-158l41 268q-154 26 -239 149.5t-85 307.5z" />
<glyph unicode="&#xa3;" d="M20 59q0 41 21.5 66t60.5 25q68 0 121 21t84.5 53.5t52 76.5t28 85.5t7.5 84.5q0 30 -12 92h-238l19 137h174q-4 10 -17 46.5t-17.5 49.5t-15.5 46.5t-15.5 51t-12 47.5t-10.5 52.5t-5.5 50t-2.5 54.5q0 213 128.5 326.5t338.5 113.5q163 0 358 -72l76 -28l-37 -158 l-80 27q-200 69 -311 69q-293 0 -293 -293q0 -70 20.5 -152t73.5 -229h350l-18 -137h-299q12 -50 12 -94q0 -184 -133 -317h283q91 0 140 39t64 131h138q-24 -178 -129.5 -251t-305.5 -73h-536q-31 0 -46.5 16.5t-15.5 42.5z" />
<glyph unicode="&#xa4;" horiz-adv-x="1024" d="M41 178l102 111q-96 110 -96 284q0 180 98 283l-104 111l86 86l104 -103q111 97 279 97q170 0 278 -97l107 103l86 -86l-104 -111q96 -110 96 -283q0 -177 -96 -284l104 -111l-86 -84l-107 103q-111 -97 -278 -97q-171 0 -279 97l-104 -103zM182 573q0 -138 95 -237.5 t233 -99.5t233 99.5t95 237.5q0 137 -96 237.5t-232 100.5q-138 0 -233 -100t-95 -238z" />
<glyph unicode="&#xa5;" d="M109 430l20 137h369l22 156h-370l20 135h307l-254 666h199l219 -635l385 635h205l-438 -666h305l-21 -135h-364l-23 -156h365l-19 -137h-364l-60 -430h-192l59 430h-370z" />
<glyph unicode="&#xa6;" horiz-adv-x="471" d="M150 -369v770h174v-770h-174zM150 795v768h174v-768h-174z" />
<glyph unicode="&#xa7;" d="M41 -285l35 158l82 -27q205 -65 313 -65q282 0 328 319l20 136q-180 -60 -282 -60q-224 0 -323.5 128t-66.5 364l56 397q30 215 162 343t342 128q135 0 352 -70l80 -26l-39 -158l-82 27q-199 67 -311 67q-144 0 -226 -82.5t-104 -236.5l-19 -137q174 57 283 57 q223 0 322 -125t67 -358l-59 -402q-30 -218 -161.5 -345.5t-338.5 -127.5q-139 0 -352 70zM322 659q-22 -159 32.5 -242t214.5 -83q86 0 271 49l16 119q12 73 4.5 132.5t-34 101.5t-82 64.5t-138.5 22.5q-78 0 -268 -53z" />
<glyph unicode="&#xa8;" horiz-adv-x="1060" d="M399 1427q0 67 35 106.5t92 39.5q97 0 97 -98q0 -65 -36 -104.5t-91 -39.5q-46 0 -71.5 25t-25.5 71zM791 1427q0 67 35.5 106.5t93.5 39.5q94 0 94 -98q0 -66 -36 -105t-91 -39q-45 0 -70.5 25.5t-25.5 70.5z" />
<glyph unicode="&#xa9;" horiz-adv-x="1910" d="M152 752q0 172 63.5 322t171.5 253.5t255.5 163t311.5 59.5q163 0 309.5 -58.5t255 -161.5t172.5 -253.5t64 -324.5q0 -171 -64 -321t-172 -255.5t-255.5 -166t-309.5 -60.5q-164 0 -311.5 60.5t-255.5 166t-171.5 255.5t-63.5 321zM297 752q0 -189 87.5 -341 t237.5 -236.5t332 -84.5q134 0 254.5 50t208.5 136.5t139.5 210.5t51.5 265q0 194 -88 345.5t-236.5 232.5t-329.5 81q-183 0 -332.5 -82.5t-237 -234t-87.5 -342.5zM557 748q0 208 108 319t291 111q85 0 244 -43l72 -19l-29 -131l-72 21q-136 34 -206 34q-252 0 -252 -292 q0 -291 254 -291q60 0 204 39l72 18l29 -129l-72 -20q-152 -41 -244 -41q-186 0 -292.5 105.5t-106.5 318.5z" />
<glyph unicode="&#xaa;" d="M209 913q0 261 338 261h211v65q0 158 -158 158q-108 0 -254 -41l-86 -23l-27 133l89 25q162 49 286 49q138 0 221.5 -72t83.5 -227v-424l91 -55l-56 -111l-84 41q-46 21 -127 4l-90 -18q-116 -21 -160 -21q-131 0 -204.5 71t-73.5 185zM369 920q0 -66 37 -100t108 -34 q28 0 162 23l82 16v224h-211q-90 0 -134 -29.5t-44 -99.5z" />
<glyph unicode="&#xab;" horiz-adv-x="1093" d="M90 561q0 57 60 117l299 287h210l-407 -396l332 -381h-203l-256 285q-35 40 -35 88zM502 561q0 57 57 117l301 287h213l-409 -396l331 -381h-200l-258 285q-35 35 -35 88z" />
<glyph unicode="&#xac;" d="M117 709v157h921v-553h-161v396h-760z" />
<glyph unicode="&#xad;" d="M117 522v168h930v-168h-930z" />
<glyph unicode="&#xae;" horiz-adv-x="1910" d="M152 752q0 172 63.5 322t171.5 253.5t255.5 163t311.5 59.5q163 0 309.5 -58.5t255 -161.5t172.5 -253.5t64 -324.5q0 -171 -64 -321t-172 -255.5t-255.5 -166t-309.5 -60.5q-164 0 -311.5 60.5t-255.5 166t-171.5 255.5t-63.5 321zM297 752q0 -189 87.5 -341 t237.5 -236.5t332 -84.5q134 0 254.5 50t208.5 136.5t139.5 210.5t51.5 265q0 194 -88 345.5t-236.5 232.5t-329.5 81q-183 0 -332.5 -82.5t-237 -234t-87.5 -342.5zM657 346v719q0 106 121 106h266q114 0 181 -64.5t67 -172.5q0 -89 -49 -156l-65 -94l165 -338h-157 l-137 291h-246v-291h-146zM803 758h262l49 71q29 45 29 103q0 56 -32.5 88.5t-86.5 32.5h-221v-295z" />
<glyph unicode="&#xaf;" horiz-adv-x="1060" d="M326 1341l20 154h627l-21 -154h-626z" />
<glyph unicode="&#xb0;" horiz-adv-x="1179" d="M287 1165q0 174 106 287t283 113q176 0 279.5 -112.5t103.5 -287.5q0 -176 -105.5 -288.5t-281.5 -112.5q-178 0 -281.5 112.5t-103.5 288.5zM438 1165q0 -121 63 -195.5t175 -74.5t172.5 73.5t60.5 196.5q0 121 -62.5 194t-174.5 73t-173 -73t-61 -194z" />
<glyph unicode="&#xb1;" d="M117 0v150h930v-150h-930zM117 598v158h379v354h166v-354h385v-158h-385v-338h-166v338h-379z" />
<glyph unicode="&#xb2;" horiz-adv-x="612" d="M141 1065q0 42 39 78l264 215q59 46 84 85t25 91q0 80 -96 80q-57 0 -156 -31l-70 -20l-16 116l64 21q104 35 192 35q98 0 158.5 -47.5t60.5 -143.5q0 -73 -34 -136t-121 -130l-197 -156h297l-14 -116h-414q-66 0 -66 59z" />
<glyph unicode="&#xb3;" horiz-adv-x="612" d="M135 1051l37 120l66 -20q98 -35 165 -35q121 0 121 103q0 28 -22 57l-29 35h-145l16 114h143l31 35q35 44 35 82q0 72 -92 72q-67 0 -156 -29l-69 -22l-17 118l66 21q100 33 188 33q103 0 159 -46t56 -128q0 -84 -59 -152l-33 -37l27 -35q41 -49 41 -114 q0 -103 -73 -164.5t-190 -61.5q-90 0 -202 33z" />
<glyph unicode="&#xb4;" horiz-adv-x="1062" d="M492 1341q0 37 36 68l164 154h248l-309 -258q-40 -31 -74 -31q-30 0 -47.5 20t-17.5 47z" />
<glyph unicode="&#xb5;" d="M160 -377v1493h182v-706q0 -119 52.5 -183.5t183.5 -64.5q100 0 253 43v911h185v-915q0 -125 -119 -156q-181 -49 -334 -49q-153 -3 -223 61v-434h-180z" />
<glyph unicode="&#xb6;" horiz-adv-x="1204" d="M92 993q0 150 50.5 268t159 190.5t261.5 72.5h541v-1905h-160v1763h-250v-1763h-159v846q-108 2 -194 44t-139.5 114t-81.5 166t-28 204z" />
<glyph unicode="&#xb7;" horiz-adv-x="765" d="M303 723q0 68 35.5 107.5t93.5 39.5q98 0 98 -100q0 -67 -36.5 -106t-92.5 -39q-47 0 -72.5 26t-25.5 72z" />
<glyph unicode="&#xb8;" horiz-adv-x="1060" d="M258 -362l33 94q79 -35 147 -35q94 0 94 67q0 20 -13.5 33t-37 17.5t-54.5 6t-65 -0.5l-8 16l101 164h94l-62 -102q166 0 166 -131q0 -81 -61.5 -125.5t-155.5 -44.5q-86 0 -178 41z" />
<glyph unicode="&#xb9;" horiz-adv-x="612" d="M131 1006l16 118h203l66 480h-21q-59 0 -121 -29l-22 119q74 30 160 30h67q46 0 67.5 -23t16.5 -65l-71 -512h161l-16 -118h-506z" />
<glyph unicode="&#xba;" d="M199 1102q0 205 103.5 322.5t281.5 117.5t279.5 -117t101.5 -323q0 -205 -104 -324t-281 -119q-178 0 -279.5 118t-101.5 325zM360 1102q0 -148 58.5 -229.5t165.5 -81.5q108 0 164.5 81.5t56.5 229.5q0 145 -59 226t-166 81q-108 0 -164 -80.5t-56 -226.5z" />
<glyph unicode="&#xbb;" horiz-adv-x="1093" d="M59 188l410 396l-334 381h203l256 -287q37 -37 37 -86q0 -60 -60 -117l-299 -287h-213zM471 188l408 396l-332 381h203l256 -287q34 -34 34 -86q0 -60 -57 -117l-299 -287h-213z" />
<glyph unicode="&#xbc;" horiz-adv-x="1271" d="M76 805l16 119h203l65 479h-20q-59 0 -121 -29l-22 119q76 31 159 31h68q46 0 67.5 -23t16.5 -65l-72 -512h162l-16 -119h-506zM137 0l981 1524h154l-979 -1524h-156zM645 182q0 40 29 72l336 428q40 49 96 49q81 0 72 -80l-60 -413h76l-14 -113h-76l-17 -123h-129 l17 123h-266q-30 0 -47 16t-17 41zM815 238h172l39 276z" />
<glyph unicode="&#xbd;" horiz-adv-x="1271" d="M76 805l16 119h203l65 479h-20q-59 0 -121 -29l-22 119q76 31 159 31h68q46 0 67.5 -23t16.5 -65l-72 -512h162l-16 -119h-506zM104 0l981 1524h154l-979 -1524h-156zM659 59q0 42 39 78l265 215q59 46 83.5 84.5t24.5 91.5q0 80 -96 80q-60 0 -156 -30l-69 -21l-17 117 l64 20q104 35 192 35q99 0 159 -47t60 -143q0 -73 -34 -136.5t-121 -130.5l-197 -155h297l-14 -117h-414q-66 0 -66 59z" />
<glyph unicode="&#xbe;" horiz-adv-x="1271" d="M82 850l37 121l65 -21q98 -35 166 -35q121 0 121 103q0 28 -22 57l-29 35h-146l17 115h143l31 35q35 44 35 81q0 72 -92 72q-67 0 -156 -29l-70 -22l-16 119l65 20q100 33 189 33q103 0 159 -46t56 -128q0 -83 -60 -152l-32 -37l26 -34q41 -49 41 -115q0 -103 -72.5 -164 t-189.5 -61q-94 0 -203 32zM125 0l981 1524h154l-979 -1524h-156zM645 180q0 40 29 72l336 428q40 49 96 49q81 0 72 -80l-60 -413h76l-14 -113h-76l-17 -123h-129l17 123h-266q-30 0 -47 16t-17 41zM815 236h172l39 276z" />
<glyph unicode="&#xbf;" horiz-adv-x="915" d="M12 -84q0 121 54 212.5t153 184.5l178 166l31 191h162l-17 -117q-10 -71 -25 -106.5t-63 -81.5l-157 -156q-43 -42 -64 -65t-43 -57.5t-30.5 -71t-8.5 -85.5q0 -161 183 -161q107 0 262 47l90 26l22 -149l-84 -27q-174 -53 -307 -53q-164 0 -250 78.5t-86 224.5z M444 1016q0 66 36.5 103.5t92.5 37.5q47 0 73 -25t26 -69q0 -69 -35 -108.5t-94 -39.5q-99 0 -99 101z" />
<glyph unicode="&#xc0;" horiz-adv-x="1308" d="M-27 0l668 1434q46 104 156 104q105 0 123 -102l260 -1436h-203l-53 326h-600l-148 -326h-203zM389 479h514l-137 848zM537 1864h274l154 -113q28 -20 28 -55q0 -28 -21 -48t-54 -20q-35 0 -74 27z" />
<glyph unicode="&#xc1;" horiz-adv-x="1308" d="M-27 0l668 1434q46 104 156 104q105 0 123 -102l260 -1436h-203l-53 326h-600l-148 -326h-203zM389 479h514l-137 848zM618 1688q0 43 41 69l166 107h279l-336 -213q-46 -27 -80 -27t-52 19t-18 45z" />
<glyph unicode="&#xc2;" horiz-adv-x="1308" d="M-27 0l668 1434q46 104 156 104q105 0 123 -102l260 -1436h-203l-53 326h-600l-148 -326h-203zM389 479h514l-137 848zM438 1626l289 199q53 39 117 39q68 0 110 -39l232 -199h-228l-124 113l-160 -113h-236z" />
<glyph unicode="&#xc3;" horiz-adv-x="1308" d="M-27 0l668 1434q46 104 156 104q105 0 123 -102l260 -1436h-203l-53 326h-600l-148 -326h-203zM389 479h514l-137 848zM401 1696q101 182 271 182q79 0 151 -43l86 -51q39 -23 80 -23q40 0 74 24.5t72 88.5l112 -66q-51 -96 -121.5 -141t-146.5 -45q-85 0 -152 43l-84 53 q-38 21 -79 21q-42 0 -77 -22t-73 -85z" />
<glyph unicode="&#xc4;" horiz-adv-x="1308" d="M-27 0l668 1434q46 104 156 104q105 0 123 -102l260 -1436h-203l-53 326h-600l-148 -326h-203zM389 479h514l-137 848zM516 1720q0 66 37.5 106t97.5 40q47 0 74 -26t27 -71q0 -57 -38 -101t-98 -44q-47 0 -73.5 25.5t-26.5 70.5zM911 1720q0 66 37 106t96 40 q47 0 74 -26t27 -71q0 -57 -37 -101t-96 -44q-47 0 -74 26t-27 70z" />
<glyph unicode="&#xc5;" horiz-adv-x="1308" d="M-27 0l668 1434q46 104 156 104q105 0 123 -102l260 -1436h-203l-53 326h-600l-148 -326h-203zM389 479h514l-137 848zM623 1786q0 94 71.5 152.5t171.5 58.5q87 0 142 -44t55 -122q0 -94 -72.5 -155.5t-173.5 -61.5q-84 0 -139 47.5t-55 124.5zM735 1792 q0 -37 25.5 -58.5t68.5 -21.5q49 0 84 30.5t35 78.5q0 34 -26 55.5t-68 21.5q-52 0 -85.5 -30.5t-33.5 -75.5z" />
<glyph unicode="&#xc6;" horiz-adv-x="1957" d="M-27 0l684 1391q65 133 217 133h1111l-23 -160h-735l-74 -506h657l-20 -156h-657l-80 -542h741l-20 -160h-787q-70 0 -105 39.5t-24 107.5l31 179h-557l-154 -326h-205zM408 479h499l125 885h-205z" />
<glyph unicode="&#xc7;" horiz-adv-x="1304" d="M135 569q0 277 91 495.5t261.5 343t393.5 124.5q158 0 358 -76l92 -35l-47 -168l-100 37q-195 68 -314 68q-163 0 -285 -100t-185.5 -275.5t-63.5 -402.5q0 -422 362 -422q133 0 334 67l111 39l22 -164l-102 -37q-185 -68 -348 -77l-51 -88q165 0 165 -131 q0 -81 -61.5 -125.5t-155.5 -44.5q-86 0 -178 41l33 94q79 -35 147 -35q95 0 95 67q0 20 -13.5 33t-37 17.5t-54 6t-65.5 -0.5l-9 16l91 150q-227 12 -356.5 161.5t-129.5 421.5z" />
<glyph unicode="&#xc8;" horiz-adv-x="1196" d="M104 150l170 1224q9 68 55.5 109t114.5 41h779l-21 -160h-729l-74 -506h652l-21 -156h-651l-80 -542h735l-20 -160h-783q-69 0 -103.5 41t-23.5 109zM465 1864h274l154 -113q29 -20 29 -55q0 -28 -21.5 -48t-54.5 -20q-35 0 -74 27z" />
<glyph unicode="&#xc9;" horiz-adv-x="1196" d="M104 150l170 1224q9 68 55.5 109t114.5 41h779l-21 -160h-729l-74 -506h652l-21 -156h-651l-80 -542h735l-20 -160h-783q-69 0 -103.5 41t-23.5 109zM655 1688q0 43 41 69l166 107h279l-336 -213q-46 -27 -80 -27t-52 19t-18 45z" />
<glyph unicode="&#xca;" horiz-adv-x="1196" d="M104 150l170 1224q9 68 55.5 109t114.5 41h779l-21 -160h-729l-74 -506h652l-21 -156h-651l-80 -542h735l-20 -160h-783q-69 0 -103.5 41t-23.5 109zM412 1626l288 199q53 39 117 39q69 0 111 -39l231 -199h-227l-125 113l-160 -113h-235z" />
<glyph unicode="&#xcb;" horiz-adv-x="1196" d="M104 150l170 1224q9 68 55.5 109t114.5 41h779l-21 -160h-729l-74 -506h652l-21 -156h-651l-80 -542h735l-20 -160h-783q-69 0 -103.5 41t-23.5 109zM487 1720q0 66 38 106t98 40q47 0 73.5 -26t26.5 -71q0 -57 -37.5 -101t-97.5 -44q-47 0 -74 26t-27 70zM883 1720 q0 66 37 106t96 40q47 0 73.5 -26t26.5 -71q0 -57 -37 -101t-96 -44q-47 0 -73.5 25.5t-26.5 70.5z" />
<glyph unicode="&#xcc;" horiz-adv-x="497" d="M80 0l215 1524h194l-215 -1524h-194zM100 1864h275l153 -113q29 -20 29 -55q0 -28 -21.5 -48t-54.5 -20q-34 0 -73 27z" />
<glyph unicode="&#xcd;" horiz-adv-x="497" d="M80 0l215 1524h194l-215 -1524h-194zM264 1688q0 43 41 69l166 107h279l-336 -213q-46 -27 -80 -27t-52 19t-18 45z" />
<glyph unicode="&#xce;" horiz-adv-x="497" d="M25 1626l288 199q53 39 117 39q69 0 111 -39l231 -199h-227l-125 113l-160 -113h-235zM80 0l215 1524h194l-215 -1524h-194z" />
<glyph unicode="&#xcf;" horiz-adv-x="497" d="M80 0l215 1524h194l-215 -1524h-194zM109 1720q0 66 37.5 106t97.5 40q47 0 73.5 -26t26.5 -71q0 -57 -37.5 -101t-97.5 -44q-47 0 -73.5 25.5t-26.5 70.5zM504 1720q0 66 37 106t96 40q47 0 73.5 -26t26.5 -71q0 -57 -37 -101t-96 -44q-47 0 -73.5 25.5t-26.5 70.5z" />
<glyph unicode="&#xd0;" horiz-adv-x="1413" d="M66 709l18 141h143l74 524q9 68 56 109t114 41h338q250 0 394.5 -148.5t144.5 -431.5q0 -274 -92 -488t-263.5 -335t-394.5 -121h-340q-65 0 -101.5 41.5t-27.5 108.5l78 559h-141zM319 160h295q166 0 290 104.5t187.5 279.5t63.5 394q0 215 -97.5 321.5t-271.5 106.5 h-290l-76 -516h397l-18 -141h-400z" />
<glyph unicode="&#xd1;" horiz-adv-x="1388" d="M80 0l196 1411q16 127 150 127q98 0 129 -96l467 -1149l178 1231h178l-196 -1397q-19 -137 -148 -137q-56 0 -88 27t-51 77l-461 1135l-174 -1229h-180zM453 1696q101 182 270 182q79 0 151 -43l87 -51q39 -23 79 -23t74 24.5t72 88.5l112 -66q-51 -96 -121.5 -141 t-146.5 -45q-84 0 -151 43l-84 53q-38 21 -80 21t-77 -22t-73 -85z" />
<glyph unicode="&#xd2;" horiz-adv-x="1499" d="M135 610q0 209 60 384.5t163 292t239.5 181t289.5 64.5q252 0 399.5 -163t147.5 -460q0 -261 -97.5 -472.5t-270.5 -332t-388 -120.5q-250 0 -396.5 164.5t-146.5 461.5zM332 608q0 -231 96 -349t274 -118q156 0 279 107t187.5 281t64.5 378q0 231 -96 347t-273 116 q-111 0 -208.5 -54.5t-169 -152t-113 -241.5t-41.5 -314zM618 1864h275l154 -113q28 -20 28 -55q0 -28 -21.5 -48t-54.5 -20q-34 0 -73 27z" />
<glyph unicode="&#xd3;" horiz-adv-x="1499" d="M135 610q0 209 60 384.5t163 292t239.5 181t289.5 64.5q252 0 399.5 -163t147.5 -460q0 -261 -97.5 -472.5t-270.5 -332t-388 -120.5q-250 0 -396.5 164.5t-146.5 461.5zM332 608q0 -231 96 -349t274 -118q156 0 279 107t187.5 281t64.5 378q0 231 -96 347t-273 116 q-111 0 -208.5 -54.5t-169 -152t-113 -241.5t-41.5 -314zM778 1688q0 43 41 69l166 107h279l-336 -213q-46 -27 -80 -27t-52 19t-18 45z" />
<glyph unicode="&#xd4;" horiz-adv-x="1499" d="M135 610q0 209 60 384.5t163 292t239.5 181t289.5 64.5q252 0 399.5 -163t147.5 -460q0 -261 -97.5 -472.5t-270.5 -332t-388 -120.5q-250 0 -396.5 164.5t-146.5 461.5zM332 608q0 -231 96 -349t274 -118q156 0 279 107t187.5 281t64.5 378q0 231 -96 347t-273 116 q-111 0 -208.5 -54.5t-169 -152t-113 -241.5t-41.5 -314zM535 1626l288 199q53 39 117 39q69 0 111 -39l231 -199h-227l-125 113l-160 -113h-235z" />
<glyph unicode="&#xd5;" horiz-adv-x="1499" d="M135 610q0 209 60 384.5t163 292t239.5 181t289.5 64.5q252 0 399.5 -163t147.5 -460q0 -261 -97.5 -472.5t-270.5 -332t-388 -120.5q-250 0 -396.5 164.5t-146.5 461.5zM332 608q0 -231 96 -349t274 -118q156 0 279 107t187.5 281t64.5 378q0 231 -96 347t-273 116 q-111 0 -208.5 -54.5t-169 -152t-113 -241.5t-41.5 -314zM524 1696q101 182 271 182q79 0 151 -43l86 -51q39 -23 80 -23q40 0 73.5 24.5t71.5 88.5l113 -66q-51 -96 -121.5 -141t-146.5 -45q-85 0 -152 43l-84 53q-38 21 -80 21q-41 0 -76 -22t-73 -85z" />
<glyph unicode="&#xd6;" horiz-adv-x="1499" d="M135 610q0 209 60 384.5t163 292t239.5 181t289.5 64.5q252 0 399.5 -163t147.5 -460q0 -261 -97.5 -472.5t-270.5 -332t-388 -120.5q-250 0 -396.5 164.5t-146.5 461.5zM332 608q0 -231 96 -349t274 -118q156 0 279 107t187.5 281t64.5 378q0 231 -96 347t-273 116 q-111 0 -208.5 -54.5t-169 -152t-113 -241.5t-41.5 -314zM616 1720q0 66 38 106t98 40q47 0 73.5 -26t26.5 -71q0 -57 -37.5 -101t-97.5 -44q-47 0 -74 26t-27 70zM1012 1720q0 66 37 106t96 40q47 0 73.5 -26t26.5 -71q0 -57 -37 -101t-96 -44q-47 0 -73.5 25.5t-26.5 70.5 z" />
<glyph unicode="&#xd7;" d="M143 272l320 324l-320 322l119 116l320 -319l321 319l117 -116l-320 -322l320 -324l-117 -116l-321 321l-320 -321z" />
<glyph unicode="&#xd8;" horiz-adv-x="1499" d="M135 610q0 209 60 384.5t163 292t239.5 181t289.5 64.5q151 0 266 -62l92 152h141l-133 -219q181 -164 181 -494q0 -261 -97.5 -472.5t-270.5 -332t-388 -120.5q-138 0 -250 53l-86 -143h-143l127 210q-191 164 -191 506zM332 608q0 -226 92 -344l639 1055 q-80 51 -199 51q-111 0 -208.5 -54.5t-169 -152t-113 -241.5t-41.5 -314zM518 184q76 -43 184 -43q156 0 279 107t187.5 281t64.5 378q0 208 -82 326z" />
<glyph unicode="&#xd9;" horiz-adv-x="1390" d="M160 547l137 977h192l-135 -979q-56 -400 299 -400q181 0 280 100.5t126 299.5l137 979h195l-138 -979q-39 -271 -198.5 -422.5t-419.5 -151.5q-264 0 -388 152t-87 424zM532 1864h275l154 -113q28 -20 28 -55q0 -28 -21.5 -48t-54.5 -20q-34 0 -73 27z" />
<glyph unicode="&#xda;" horiz-adv-x="1390" d="M160 547l137 977h192l-135 -979q-56 -400 299 -400q181 0 280 100.5t126 299.5l137 979h195l-138 -979q-39 -271 -198.5 -422.5t-419.5 -151.5q-264 0 -388 152t-87 424zM754 1688q0 43 41 69l166 107h278l-336 -213q-46 -27 -80 -27t-51.5 19t-17.5 45z" />
<glyph unicode="&#xdb;" horiz-adv-x="1390" d="M160 547l137 977h192l-135 -979q-56 -400 299 -400q181 0 280 100.5t126 299.5l137 979h195l-138 -979q-39 -271 -198.5 -422.5t-419.5 -151.5q-264 0 -388 152t-87 424zM477 1626l289 199q53 39 117 39q68 0 110 -39l232 -199h-228l-125 113l-159 -113h-236z" />
<glyph unicode="&#xdc;" horiz-adv-x="1390" d="M160 547l137 977h192l-135 -979q-56 -400 299 -400q181 0 280 100.5t126 299.5l137 979h195l-138 -979q-39 -271 -198.5 -422.5t-419.5 -151.5q-264 0 -388 152t-87 424zM563 1720q0 66 37.5 106t97.5 40q47 0 74 -26t27 -71q0 -57 -37.5 -101t-97.5 -44q-47 0 -74 26 t-27 70zM958 1720q0 65 37.5 105.5t96.5 40.5q47 0 73.5 -26t26.5 -71q0 -57 -37 -101t-96 -44q-47 0 -74 26t-27 70z" />
<glyph unicode="&#xdd;" horiz-adv-x="1280" d="M188 1524h215l283 -688l459 688h221l-608 -871l-92 -653h-199l92 649zM688 1688q0 43 41 69l166 107h279l-336 -213q-46 -27 -80 -27t-52 19t-18 45z" />
<glyph unicode="&#xde;" horiz-adv-x="1175" d="M80 0l215 1524h188l-37 -260h336q172 0 271.5 -108t99.5 -288q0 -236 -145 -387t-361 -151h-332l-47 -330h-188zM338 483h324q138 0 226.5 108t88.5 265q0 116 -60 185t-167 69h-326z" />
<glyph unicode="&#xdf;" horiz-adv-x="1103" d="M72 0l161 1171q15 108 55 188.5t98 127.5t126 69.5t147 22.5q161 0 256 -90.5t95 -235.5q0 -171 -111 -305l-123 -149l113 -131q102 -113 102 -254q0 -187 -122.5 -300.5t-313.5 -113.5h-158l21 147h147q123 0 190.5 72.5t67.5 188.5q0 92 -65 167l-101 119 q-36 42 -36 88q0 47 43 105l98 127q78 105 78 231q0 86 -49.5 135.5t-143.5 49.5q-104 0 -163 -63.5t-78 -192.5l-162 -1174h-172z" />
<glyph unicode="&#xe0;" horiz-adv-x="1161" d="M94 455q0 175 65.5 319.5t193 233t294.5 88.5q116 0 254 -35l14 100h175l-148 -993l111 -68l-76 -129l-86 47q-54 32 -143 17l-74 -15q-103 -22 -182 -22q-196 0 -297 120.5t-101 336.5zM272 457q0 -143 59.5 -227.5t186.5 -84.5q80 0 180 21l74 14l109 735 q-151 31 -238 31q-90 0 -162.5 -41.5t-117 -111.5t-68 -156t-23.5 -180zM489 1563h228l131 -158q26 -29 26 -62q0 -26 -18.5 -46.5t-52.5 -20.5q-27 0 -66 31z" />
<glyph unicode="&#xe1;" horiz-adv-x="1161" d="M94 455q0 175 65.5 319.5t193 233t294.5 88.5q116 0 254 -35l14 100h175l-148 -993l111 -68l-76 -129l-86 47q-54 32 -143 17l-74 -15q-103 -22 -182 -22q-196 0 -297 120.5t-101 336.5zM272 457q0 -143 59.5 -227.5t186.5 -84.5q80 0 180 21l74 14l109 735 q-151 31 -238 31q-90 0 -162.5 -41.5t-117 -111.5t-68 -156t-23.5 -180zM616 1341q0 36 37 68l164 154h248l-309 -258q-40 -31 -74 -31q-31 0 -48.5 20t-17.5 47z" />
<glyph unicode="&#xe2;" horiz-adv-x="1161" d="M94 455q0 175 65.5 319.5t193 233t294.5 88.5q116 0 254 -35l14 100h175l-148 -993l111 -68l-76 -129l-86 47q-54 32 -143 17l-74 -15q-103 -22 -182 -22q-196 0 -297 120.5t-101 336.5zM272 457q0 -143 59.5 -227.5t186.5 -84.5q80 0 180 21l74 14l109 735 q-151 31 -238 31q-90 0 -162.5 -41.5t-117 -111.5t-68 -156t-23.5 -180zM385 1268l274 256q47 43 109 43q51 0 94 -43l203 -256h-203l-108 166l-148 -166h-221z" />
<glyph unicode="&#xe3;" horiz-adv-x="1161" d="M94 455q0 175 65.5 319.5t193 233t294.5 88.5q116 0 254 -35l14 100h175l-148 -993l111 -68l-76 -129l-86 47q-54 32 -143 17l-74 -15q-103 -22 -182 -22q-196 0 -297 120.5t-101 336.5zM272 457q0 -143 59.5 -227.5t186.5 -84.5q80 0 180 21l74 14l109 735 q-151 31 -238 31q-90 0 -162.5 -41.5t-117 -111.5t-68 -156t-23.5 -180zM319 1352q52 110 123.5 163.5t143.5 53.5q87 0 151 -58l68 -61q44 -35 74 -35q77 0 147 137l104 -69q-52 -110 -124 -162.5t-144 -52.5q-87 0 -151 61l-66 57q-30 35 -74 35q-79 0 -147 -137z" />
<glyph unicode="&#xe4;" horiz-adv-x="1161" d="M94 455q0 175 65.5 319.5t193 233t294.5 88.5q116 0 254 -35l14 100h175l-148 -993l111 -68l-76 -129l-86 47q-54 32 -143 17l-74 -15q-103 -22 -182 -22q-196 0 -297 120.5t-101 336.5zM272 457q0 -143 59.5 -227.5t186.5 -84.5q80 0 180 21l74 14l109 735 q-151 31 -238 31q-90 0 -162.5 -41.5t-117 -111.5t-68 -156t-23.5 -180zM449 1427q0 67 34.5 106.5t91.5 39.5q97 0 97 -98q0 -65 -36 -104.5t-91 -39.5q-46 0 -71 25t-25 71zM840 1427q0 67 35.5 106.5t93.5 39.5q94 0 94 -98q0 -66 -36 -105t-91 -39q-45 0 -70.5 25.5 t-25.5 70.5z" />
<glyph unicode="&#xe5;" horiz-adv-x="1161" d="M94 455q0 175 65.5 319.5t193 233t294.5 88.5q116 0 254 -35l14 100h175l-148 -993l111 -68l-76 -129l-86 47q-54 32 -143 17l-74 -15q-103 -22 -182 -22q-196 0 -297 120.5t-101 336.5zM272 457q0 -143 59.5 -227.5t186.5 -84.5q80 0 180 21l74 14l109 735 q-151 31 -238 31q-90 0 -162.5 -41.5t-117 -111.5t-68 -156t-23.5 -180zM524 1403q0 108 72.5 177t173.5 69q84 0 138.5 -51.5t54.5 -139.5q0 -105 -74.5 -174.5t-173.5 -69.5q-84 0 -137.5 51t-53.5 138zM631 1409q0 -49 25.5 -75.5t68.5 -26.5q54 0 92.5 41.5t38.5 103.5 q0 46 -26.5 74t-69.5 28q-56 0 -92.5 -42.5t-36.5 -102.5z" />
<glyph unicode="&#xe6;" horiz-adv-x="1847" d="M82 285q0 66 16.5 119.5t44 90t69.5 63.5t85.5 42.5t99.5 25t105 12.5t108 3h215l19 107q18 114 -31.5 169.5t-150.5 55.5q-119 0 -316 -55l-121 -35l-24 145l114 35q228 64 373 67q110 0 188 -44.5t109 -139.5q71 91 172.5 139t204.5 48q212 0 320 -139.5t71 -391.5 q-9 -59 -40 -82.5t-87 -23.5h-653q-12 -164 61 -258.5t201 -94.5q141 0 324 60l106 37l29 -148l-109 -35q-114 -36 -194 -52.5t-174 -16.5q-63 0 -132.5 18.5t-111.5 48.5q-18 14 -41.5 17.5t-40 1t-53.5 -10.5l-205 -43q-146 -30 -240 -30q-147 0 -229 83t-82 212zM258 289 q0 -70 43 -111t123 -41q67 0 192 23l236 47q-11 21 -20 46t-14 48.5t-8.5 49t-4.5 46t-1.5 41t0 34t0.5 24.5l1 10h-279q-268 0 -268 -217zM991 627h596q13 72 2.5 138t-37.5 116.5t-81 80t-128 29.5q-128 0 -223.5 -102t-128.5 -262z" />
<glyph unicode="&#xe7;" horiz-adv-x="1030" d="M94 455q0 189 70 342.5t198.5 242t292.5 88.5q114 0 283 -57l68 -24l-48 -154l-75 25q-149 53 -240 53q-90 0 -161.5 -43.5t-115.5 -117t-67 -163.5t-23 -188q0 -142 67 -228t189 -86q129 0 269 45l86 29l22 -151l-90 -27q-140 -42 -235 -49l-56 -94q166 0 166 -131 q0 -81 -61.5 -125.5t-155.5 -44.5q-86 0 -178 41l33 94q79 -35 147 -35q94 0 94 67q0 20 -13.5 33t-37 17.5t-54 6t-65.5 -0.5l-8 16l92 152q-187 7 -290 135t-103 332z" />
<glyph unicode="&#xe8;" horiz-adv-x="1146" d="M96 449q0 143 43.5 270t118 217.5t178.5 143.5t221 53q106 0 188 -34.5t136 -104.5t72 -174.5t-2 -244.5q-12 -79 -84 -79h-693q-12 -163 64 -258t201 -95q140 0 323 60l107 37l28 -148l-108 -35q-114 -36 -194.5 -52.5t-174.5 -16.5q-195 0 -310.5 125.5t-113.5 335.5z M293 627h588q9 58 9 111.5t-17 100t-45 80t-75.5 53t-109.5 19.5q-128 0 -223.5 -102t-126.5 -262zM463 1563h227l131 -158q27 -30 27 -62q0 -26 -19 -46.5t-53 -20.5q-26 0 -65 31z" />
<glyph unicode="&#xe9;" horiz-adv-x="1146" d="M96 449q0 143 43.5 270t118 217.5t178.5 143.5t221 53q106 0 188 -34.5t136 -104.5t72 -174.5t-2 -244.5q-12 -79 -84 -79h-693q-12 -163 64 -258t201 -95q140 0 323 60l107 37l28 -148l-108 -35q-114 -36 -194.5 -52.5t-174.5 -16.5q-195 0 -310.5 125.5t-113.5 335.5z M293 627h588q9 58 9 111.5t-17 100t-45 80t-75.5 53t-109.5 19.5q-128 0 -223.5 -102t-126.5 -262zM578 1341q0 37 36 68l164 154h248l-309 -258q-40 -31 -74 -31q-30 0 -47.5 20t-17.5 47z" />
<glyph unicode="&#xea;" horiz-adv-x="1146" d="M96 449q0 143 43.5 270t118 217.5t178.5 143.5t221 53q106 0 188 -34.5t136 -104.5t72 -174.5t-2 -244.5q-12 -79 -84 -79h-693q-12 -163 64 -258t201 -95q140 0 323 60l107 37l28 -148l-108 -35q-114 -36 -194.5 -52.5t-174.5 -16.5q-195 0 -310.5 125.5t-113.5 335.5z M293 627h588q9 58 9 111.5t-17 100t-45 80t-75.5 53t-109.5 19.5q-128 0 -223.5 -102t-126.5 -262zM340 1268l274 256q47 43 109 43q51 0 94 -43l203 -256h-203l-108 166l-148 -166h-221z" />
<glyph unicode="&#xeb;" horiz-adv-x="1146" d="M96 449q0 143 43.5 270t118 217.5t178.5 143.5t221 53q106 0 188 -34.5t136 -104.5t72 -174.5t-2 -244.5q-12 -79 -84 -79h-693q-12 -163 64 -258t201 -95q140 0 323 60l107 37l28 -148l-108 -35q-114 -36 -194.5 -52.5t-174.5 -16.5q-195 0 -310.5 125.5t-113.5 335.5z M293 627h588q9 58 9 111.5t-17 100t-45 80t-75.5 53t-109.5 19.5q-128 0 -223.5 -102t-126.5 -262zM408 1427q0 67 35 106.5t92 39.5q96 0 96 -98q0 -65 -36 -104.5t-91 -39.5q-46 0 -71 25t-25 71zM799 1427q0 67 35.5 106.5t93.5 39.5q94 0 94 -98q0 -66 -36 -105t-91 -39 q-45 0 -70.5 25.5t-25.5 70.5z" />
<glyph unicode="&#xec;" horiz-adv-x="485" d="M80 0l156 1116h174l-156 -1116h-174zM102 1563h228l131 -158q26 -29 26 -62q0 -26 -18.5 -46.5t-52.5 -20.5q-27 0 -66 31z" />
<glyph unicode="&#xed;" horiz-adv-x="485" d="M80 0l156 1116h174l-156 -1116h-174zM199 1341q0 36 37 68l163 154h248l-309 -258q-40 -31 -74 -31q-30 0 -47.5 20t-17.5 47z" />
<glyph unicode="&#xee;" horiz-adv-x="485" d="M-4 1268l274 256q47 43 109 43q51 0 94 -43l203 -256h-203l-108 166l-148 -166h-221zM80 0l156 1116h174l-156 -1116h-174z" />
<glyph unicode="&#xef;" horiz-adv-x="485" d="M55 1427q0 67 35 106.5t92 39.5q97 0 97 -98q0 -65 -36 -104.5t-91 -39.5q-46 0 -71.5 25t-25.5 71zM80 0l156 1116h174l-156 -1116h-174zM446 1427q0 67 35.5 106.5t93.5 39.5q45 0 70 -24.5t25 -73.5q0 -66 -36 -105t-91 -39q-45 0 -71 25.5t-26 70.5z" />
<glyph unicode="&#xf0;" horiz-adv-x="1226" d="M121 436q0 123 36 233.5t102.5 196.5t172 136.5t234.5 50.5q108 0 297 -64l14 90q18 135 -8 213l-301 -166l18 144l213 116q-62 44 -174 44h-123l19 133h137q191 0 295 -93l194 109l-20 -145l-107 -58q53 -119 27 -309q-14 -83 -27.5 -175.5t-30 -210t-24.5 -175.5 q-33 -237 -171.5 -377.5t-363.5 -140.5q-198 0 -303.5 123t-105.5 325zM297 432q0 -138 63.5 -216.5t186.5 -78.5q149 0 235.5 99t112.5 278l49 334q-183 50 -280 53q-76 0 -138 -24.5t-104 -67.5t-70.5 -102.5t-41.5 -128t-13 -146.5z" />
<glyph unicode="&#xf1;" horiz-adv-x="1132" d="M80 0l127 924q20 119 137 151q186 51 332 51q103 0 176 -30.5t110 -84.5t51 -127t-1 -157l-103 -727h-172l99 709q19 127 -23.5 193.5t-169.5 66.5q-106 0 -262 -41l-131 -928h-170zM276 1352q52 110 123.5 163.5t143.5 53.5q87 0 151 -58l68 -61q44 -35 74 -35 q77 0 147 137l104 -69q-52 -110 -124 -162.5t-144 -52.5q-87 0 -151 61l-66 57q-30 35 -74 35q-79 0 -147 -137z" />
<glyph unicode="&#xf2;" horiz-adv-x="1171" d="M92 459q0 144 43 269t118.5 212.5t181.5 137.5t227 50q196 0 306.5 -124.5t110.5 -341.5q0 -182 -69.5 -334.5t-201.5 -246t-300 -93.5q-195 0 -305.5 126.5t-110.5 344.5zM272 459q0 -151 65 -239.5t193 -88.5q85 0 157 47t117.5 123.5t71 169.5t25.5 188 q0 149 -66.5 236.5t-193.5 87.5q-107 0 -192 -72.5t-131 -192t-46 -259.5zM475 1563h227l132 -158q26 -29 26 -62q0 -26 -19 -46.5t-53 -20.5q-26 0 -65 31z" />
<glyph unicode="&#xf3;" horiz-adv-x="1171" d="M92 459q0 144 43 269t118.5 212.5t181.5 137.5t227 50q196 0 306.5 -124.5t110.5 -341.5q0 -182 -69.5 -334.5t-201.5 -246t-300 -93.5q-195 0 -305.5 126.5t-110.5 344.5zM272 459q0 -151 65 -239.5t193 -88.5q85 0 157 47t117.5 123.5t71 169.5t25.5 188 q0 149 -66.5 236.5t-193.5 87.5q-107 0 -192 -72.5t-131 -192t-46 -259.5zM565 1341q0 36 37 68l164 154h248l-309 -258q-40 -31 -74 -31q-31 0 -48.5 20t-17.5 47z" />
<glyph unicode="&#xf4;" horiz-adv-x="1171" d="M92 459q0 144 43 269t118.5 212.5t181.5 137.5t227 50q196 0 306.5 -124.5t110.5 -341.5q0 -182 -69.5 -334.5t-201.5 -246t-300 -93.5q-195 0 -305.5 126.5t-110.5 344.5zM272 459q0 -151 65 -239.5t193 -88.5q85 0 157 47t117.5 123.5t71 169.5t25.5 188 q0 149 -66.5 236.5t-193.5 87.5q-107 0 -192 -72.5t-131 -192t-46 -259.5zM336 1268l274 256q47 43 109 43q51 0 94 -43l203 -256h-203l-108 166l-148 -166h-221z" />
<glyph unicode="&#xf5;" horiz-adv-x="1171" d="M92 459q0 144 43 269t118.5 212.5t181.5 137.5t227 50q196 0 306.5 -124.5t110.5 -341.5q0 -182 -69.5 -334.5t-201.5 -246t-300 -93.5q-195 0 -305.5 126.5t-110.5 344.5zM272 459q0 -151 65 -239.5t193 -88.5q85 0 157 47t117.5 123.5t71 169.5t25.5 188 q0 149 -66.5 236.5t-193.5 87.5q-107 0 -192 -72.5t-131 -192t-46 -259.5zM291 1352q52 110 123 163.5t143 53.5q88 0 152 -58l67 -61q44 -35 74 -35q77 0 147 137l105 -69q-52 -110 -124 -162.5t-144 -52.5q-88 0 -152 61l-66 57q-30 35 -73 35q-80 0 -148 -137z" />
<glyph unicode="&#xf6;" horiz-adv-x="1171" d="M92 459q0 144 43 269t118.5 212.5t181.5 137.5t227 50q196 0 306.5 -124.5t110.5 -341.5q0 -182 -69.5 -334.5t-201.5 -246t-300 -93.5q-195 0 -305.5 126.5t-110.5 344.5zM272 459q0 -151 65 -239.5t193 -88.5q85 0 157 47t117.5 123.5t71 169.5t25.5 188 q0 149 -66.5 236.5t-193.5 87.5q-107 0 -192 -72.5t-131 -192t-46 -259.5zM416 1427q0 67 35 106.5t92 39.5q96 0 96 -98q0 -65 -36 -104.5t-91 -39.5q-46 0 -71 25t-25 71zM807 1427q0 67 35.5 106.5t93.5 39.5q94 0 94 -98q0 -66 -36 -105t-91 -39q-45 0 -70.5 25.5 t-25.5 70.5z" />
<glyph unicode="&#xf7;" d="M117 520v160h930v-160h-930zM465 186q0 53 30.5 87t84.5 34q52 0 82 -34t30 -87q0 -54 -29.5 -87t-82.5 -33q-54 0 -84.5 33t-30.5 87zM465 1018q0 53 30.5 87t84.5 34q52 0 82 -34t30 -87q0 -54 -29.5 -87.5t-82.5 -33.5q-54 0 -84.5 33.5t-30.5 87.5z" />
<glyph unicode="&#xf8;" horiz-adv-x="1171" d="M92 459q0 144 43 269t118.5 212.5t181.5 137.5t227 50q107 0 188 -38l74 120h133l-111 -184q133 -127 133 -364q0 -182 -69.5 -334.5t-201.5 -246t-300 -93.5q-93 0 -170 30l-74 -124h-135l111 182q-148 126 -148 383zM272 459q0 -147 58 -232l438 725q-60 31 -127 31 q-107 0 -192 -72.5t-131 -192t-46 -259.5zM420 154q51 -23 110 -23q85 0 157 47t117.5 123.5t71 169.5t25.5 188q0 129 -49 211z" />
<glyph unicode="&#xf9;" horiz-adv-x="1130" d="M119 391l102 725h172l-98 -708q-19 -128 23.5 -194.5t170.5 -66.5q108 0 263 43l129 926h172l-129 -923q-18 -120 -138 -152q-185 -49 -331 -49q-200 0 -280.5 108.5t-55.5 290.5zM408 1563h227l131 -158q27 -30 27 -62q0 -26 -19 -46.5t-53 -20.5q-27 0 -66 31z" />
<glyph unicode="&#xfa;" horiz-adv-x="1130" d="M119 391l102 725h172l-98 -708q-19 -128 23.5 -194.5t170.5 -66.5q108 0 263 43l129 926h172l-129 -923q-18 -120 -138 -152q-185 -49 -331 -49q-200 0 -280.5 108.5t-55.5 290.5zM541 1341q0 36 37 68l163 154h248l-309 -258q-40 -31 -74 -31q-30 0 -47.5 20t-17.5 47z " />
<glyph unicode="&#xfb;" horiz-adv-x="1130" d="M119 391l102 725h172l-98 -708q-19 -128 23.5 -194.5t170.5 -66.5q108 0 263 43l129 926h172l-129 -923q-18 -120 -138 -152q-185 -49 -331 -49q-200 0 -280.5 108.5t-55.5 290.5zM324 1268l274 256q47 43 109 43q51 0 94 -43l203 -256h-203l-109 166l-147 -166h-221z " />
<glyph unicode="&#xfc;" horiz-adv-x="1130" d="M119 391l102 725h172l-98 -708q-19 -128 23.5 -194.5t170.5 -66.5q108 0 263 43l129 926h172l-129 -923q-18 -120 -138 -152q-185 -49 -331 -49q-200 0 -280.5 108.5t-55.5 290.5zM381 1427q0 67 35 106.5t92 39.5q96 0 96 -98q0 -65 -36 -104.5t-91 -39.5q-46 0 -71 25 t-25 71zM772 1427q0 67 35.5 106.5t93.5 39.5q94 0 94 -98q0 -66 -36 -105t-91 -39q-45 0 -70.5 25.5t-25.5 70.5z" />
<glyph unicode="&#xfd;" horiz-adv-x="1083" d="M-6 -342l39 145q92 -28 145 -28q64 0 102.5 31t67.5 98l27 59l-252 1153h194l177 -930l389 930h190l-567 -1261q-103 -230 -328 -230q-81 0 -184 33zM530 1341q0 36 37 68l164 154h248l-309 -258q-40 -31 -74 -31q-31 0 -48.5 20t-17.5 47z" />
<glyph unicode="&#xfe;" d="M20 -369l275 1932h168l-64 -476q177 37 269 37q199 0 299 -123t100 -335q0 -133 -37.5 -254t-107 -215.5t-177 -150.5t-237.5 -56q-140 0 -262 35l-56 -394h-170zM268 172q126 -29 246 -29q77 0 141 30.5t107.5 81t73.5 118t43.5 140.5t13.5 149q0 143 -64 224t-202 81 q-107 0 -248 -25z" />
<glyph unicode="&#xff;" horiz-adv-x="1083" d="M-6 -342l39 145q92 -28 145 -28q64 0 102.5 31t67.5 98l27 59l-252 1153h194l177 -930l389 930h190l-567 -1261q-103 -230 -328 -230q-81 0 -184 33zM340 1427q0 67 35 106.5t92 39.5q96 0 96 -98q0 -65 -36 -104.5t-91 -39.5q-46 0 -71 25t-25 71zM731 1427 q0 67 35.5 106.5t93.5 39.5q94 0 94 -98q0 -66 -36 -105t-91 -39q-45 0 -70.5 25.5t-25.5 70.5z" />
<glyph unicode="&#x100;" horiz-adv-x="1308" d="M-27 0l668 1434q46 104 156 104q105 0 123 -102l260 -1436h-203l-53 326h-600l-148 -326h-203zM389 479h514l-137 848zM481 1657l23 151h645l-23 -151h-645z" />
<glyph unicode="&#x101;" horiz-adv-x="1161" d="M94 455q0 175 65.5 319.5t193 233t294.5 88.5q116 0 254 -35l14 100h175l-148 -993l111 -68l-76 -129l-86 47q-54 32 -143 17l-74 -15q-103 -22 -182 -22q-196 0 -297 120.5t-101 336.5zM272 457q0 -143 59.5 -227.5t186.5 -84.5q80 0 180 21l74 14l109 735 q-151 31 -238 31q-90 0 -162.5 -41.5t-117 -111.5t-68 -156t-23.5 -180zM373 1341l20 154h627l-21 -154h-626z" />
<glyph unicode="&#x102;" horiz-adv-x="1308" d="M-27 0l668 1434q46 104 156 104q105 0 123 -102l260 -1436h-203l-53 326h-600l-148 -326h-203zM389 479h514l-137 848zM483 1874h166q-7 -54 40 -85.5t134 -31.5q86 0 141.5 32t63.5 85h166q-11 -80 -68.5 -138t-140.5 -85t-180 -27q-151 0 -244.5 65.5t-77.5 184.5z" />
<glyph unicode="&#x103;" horiz-adv-x="1161" d="M94 455q0 175 65.5 319.5t193 233t294.5 88.5q116 0 254 -35l14 100h175l-148 -993l111 -68l-76 -129l-86 47q-54 32 -143 17l-74 -15q-103 -22 -182 -22q-196 0 -297 120.5t-101 336.5zM272 457q0 -143 59.5 -227.5t186.5 -84.5q80 0 180 21l74 14l109 735 q-151 31 -238 31q-90 0 -162.5 -41.5t-117 -111.5t-68 -156t-23.5 -180zM418 1563h155q-10 -78 32 -122t120 -44q77 0 133 45t66 121h155q-18 -134 -124.5 -217.5t-245.5 -83.5q-142 0 -225.5 83.5t-65.5 217.5z" />
<glyph unicode="&#x104;" horiz-adv-x="1308" d="M-27 0l668 1434q46 104 156 104q105 0 123 -102l260 -1436h-2q-111 -62 -111 -147q0 -78 109 -78q86 0 192 39l23 -113q-119 -47 -232 -47q-112 0 -174.5 43.5t-62.5 120.5q0 111 127 182h-72l-53 326h-600l-148 -326h-203zM389 479h514l-137 848z" />
<glyph unicode="&#x105;" d="M86 455q0 175 65.5 319.5t193 233t294.5 88.5q110 0 254 -35l14 100h174l-149 -993l112 -68l-77 -129q-45 -21 -70 -54t-25 -69q0 -77 109 -77q87 0 193 39l22 -113q-124 -49 -231 -49q-111 0 -174.5 47t-63.5 125q0 69 37 121.5t108 81.5q-50 24 -133 12l-75 -15 q-103 -22 -181 -22q-196 0 -296.5 120t-100.5 337zM262 457q0 -142 60.5 -227t187.5 -85q82 0 178 21l74 14l108 735q-147 31 -235 31q-90 0 -163 -42t-118 -111.5t-68.5 -155.5t-23.5 -180z" />
<glyph unicode="&#x106;" horiz-adv-x="1304" d="M135 569q0 277 91 495.5t261.5 343t393.5 124.5q158 0 358 -76l92 -35l-47 -168l-100 37q-195 68 -314 68q-163 0 -285 -100t-185.5 -275.5t-63.5 -402.5q0 -422 362 -422q133 0 334 67l111 39l22 -164l-102 -37q-218 -79 -395 -79q-248 0 -390.5 150t-142.5 435z M795 1688q0 43 41 69l165 107h279l-336 -213q-46 -27 -80 -27t-51.5 19t-17.5 45z" />
<glyph unicode="&#x107;" horiz-adv-x="1030" d="M94 455q0 189 70 342.5t198.5 242t292.5 88.5q114 0 283 -57l68 -24l-48 -154l-75 25q-149 53 -240 53q-90 0 -161.5 -43.5t-115.5 -117t-67 -163.5t-23 -188q0 -142 67 -228t189 -86q129 0 269 45l86 29l22 -151l-90 -27q-178 -53 -309 -53q-196 0 -306 129t-110 338z M535 1341q0 37 36 68l164 154h248l-309 -258q-40 -31 -74 -31q-30 0 -47.5 20t-17.5 47z" />
<glyph unicode="&#x108;" horiz-adv-x="1304" d="M135 569q0 277 91 495.5t261.5 343t393.5 124.5q158 0 358 -76l92 -35l-47 -168l-100 37q-195 68 -314 68q-163 0 -285 -100t-185.5 -275.5t-63.5 -402.5q0 -422 362 -422q133 0 334 67l111 39l22 -164l-102 -37q-218 -79 -395 -79q-248 0 -390.5 150t-142.5 435z M535 1626l288 199q53 39 117 39q69 0 111 -39l231 -199h-227l-125 113l-160 -113h-235z" />
<glyph unicode="&#x109;" horiz-adv-x="1030" d="M94 455q0 189 70 342.5t198.5 242t292.5 88.5q114 0 283 -57l68 -24l-48 -154l-75 25q-149 53 -240 53q-90 0 -161.5 -43.5t-115.5 -117t-67 -163.5t-23 -188q0 -142 67 -228t189 -86q129 0 269 45l86 29l22 -151l-90 -27q-178 -53 -309 -53q-196 0 -306 129t-110 338z M319 1268l275 256q47 43 108 43q52 0 95 -43l202 -256h-202l-109 166l-147 -166h-222z" />
<glyph unicode="&#x10a;" horiz-adv-x="1304" d="M135 569q0 277 91 495.5t261.5 343t393.5 124.5q158 0 358 -76l92 -35l-47 -168l-100 37q-195 68 -314 68q-163 0 -285 -100t-185.5 -275.5t-63.5 -402.5q0 -422 362 -422q133 0 334 67l111 39l22 -164l-102 -37q-218 -79 -395 -79q-248 0 -390.5 150t-142.5 435z M831 1720q0 66 38 107t100 41q47 0 74.5 -27t27.5 -72q0 -57 -38.5 -101t-98.5 -44q-49 0 -76 25.5t-27 70.5z" />
<glyph unicode="&#x10b;" horiz-adv-x="1030" d="M94 455q0 189 70 342.5t198.5 242t292.5 88.5q114 0 283 -57l68 -24l-48 -154l-75 25q-149 53 -240 53q-90 0 -161.5 -43.5t-115.5 -117t-67 -163.5t-23 -188q0 -142 67 -228t189 -86q129 0 269 45l86 29l22 -151l-90 -27q-178 -53 -309 -53q-196 0 -306 129t-110 338z M582 1427q0 67 36 106.5t95 39.5q98 0 98 -98q0 -66 -37.5 -105t-93.5 -39q-47 0 -72.5 25t-25.5 71z" />
<glyph unicode="&#x10c;" horiz-adv-x="1304" d="M135 569q0 277 91 495.5t261.5 343t393.5 124.5q158 0 358 -76l92 -35l-47 -168l-100 37q-195 68 -314 68q-163 0 -285 -100t-185.5 -275.5t-63.5 -402.5q0 -422 362 -422q133 0 334 67l111 39l22 -164l-102 -37q-218 -79 -395 -79q-248 0 -390.5 150t-142.5 435z M586 1864h227l129 -113l154 113h237l-286 -201q-60 -39 -121 -39q-68 0 -107 39z" />
<glyph unicode="&#x10d;" horiz-adv-x="1030" d="M94 455q0 189 70 342.5t198.5 242t292.5 88.5q114 0 283 -57l68 -24l-48 -154l-75 25q-149 53 -240 53q-90 0 -161.5 -43.5t-115.5 -117t-67 -163.5t-23 -188q0 -142 67 -228t189 -86q129 0 269 45l86 29l22 -151l-90 -27q-178 -53 -309 -53q-196 0 -306 129t-110 338z M365 1563h204l107 -166l149 166h217l-272 -256q-43 -43 -108 -43q-52 0 -95 43z" />
<glyph unicode="&#x10e;" horiz-adv-x="1386" d="M104 150l170 1224q11 68 57.5 109t114.5 41h336q251 0 396 -149t145 -431q0 -274 -93 -488t-264.5 -335t-394.5 -121h-340q-65 0 -101 41.5t-26 108.5zM299 160h285q165 0 289.5 104.5t187.5 279.5t63 394q0 215 -96.5 320.5t-269.5 105.5h-283zM459 1864h227l129 -113 l154 113h237l-286 -201q-60 -39 -121 -39q-68 0 -107 39z" />
<glyph unicode="&#x10f;" horiz-adv-x="1411" d="M94 453q0 132 38 252.5t107.5 214t177.5 149t238 55.5q131 0 263 -32l65 471h170l-192 -1385q-14 -107 -132 -147q-124 -41 -313 -41q-209 0 -315.5 124.5t-106.5 338.5zM270 455q0 -144 65 -227t204 -83q100 0 245 23l111 776q-141 29 -244 29q-96 0 -171 -45.5 t-119.5 -121t-67.5 -165.5t-23 -186zM1241 1200l129 365h184l-149 -404q-25 -69 -96 -69q-45 0 -64 33t-4 75z" />
<glyph unicode="&#x110;" horiz-adv-x="1413" d="M66 709l18 141h143l74 524q9 68 56 109t114 41h338q250 0 394.5 -148.5t144.5 -431.5q0 -274 -92 -488t-263.5 -335t-394.5 -121h-340q-65 0 -101.5 41.5t-27.5 108.5l78 559h-141zM319 160h295q166 0 290 104.5t187.5 279.5t63.5 394q0 215 -97.5 321.5t-271.5 106.5 h-290l-76 -516h397l-18 -141h-400z" />
<glyph unicode="&#x111;" d="M94 453q0 132 38 252.5t107.5 214t177.5 149t238 55.5q131 0 263 -32l22 165h-293l23 138h288l25 168h170l-25 -168h117l-22 -138h-113l-149 -1079q-14 -107 -132 -147q-124 -41 -313 -41q-209 0 -315.5 124.5t-106.5 338.5zM270 455q0 -144 65 -227t204 -83 q100 0 245 23l111 776q-141 29 -244 29q-96 0 -171 -45.5t-119.5 -121t-67.5 -165.5t-23 -186z" />
<glyph unicode="&#x112;" horiz-adv-x="1196" d="M104 150l170 1224q9 68 55.5 109t114.5 41h779l-21 -160h-729l-74 -506h652l-21 -156h-651l-80 -542h735l-20 -160h-783q-69 0 -103.5 41t-23.5 109zM471 1657l23 151h645l-23 -151h-645z" />
<glyph unicode="&#x113;" horiz-adv-x="1146" d="M96 449q0 143 43.5 270t118 217.5t178.5 143.5t221 53q106 0 188 -34.5t136 -104.5t72 -174.5t-2 -244.5q-12 -79 -84 -79h-693q-12 -163 64 -258t201 -95q140 0 323 60l107 37l28 -148l-108 -35q-114 -36 -194.5 -52.5t-174.5 -16.5q-195 0 -310.5 125.5t-113.5 335.5z M293 627h588q9 58 9 111.5t-17 100t-45 80t-75.5 53t-109.5 19.5q-128 0 -223.5 -102t-126.5 -262zM377 1341l20 154h627l-20 -154h-627z" />
<glyph unicode="&#x114;" horiz-adv-x="1196" d="M104 150l170 1224q9 68 55.5 109t114.5 41h779l-21 -160h-729l-74 -506h652l-21 -156h-651l-80 -542h735l-20 -160h-783q-69 0 -103.5 41t-23.5 109zM479 1874h166q-7 -54 40 -85.5t134 -31.5q86 0 141.5 32t63.5 85h166q-11 -80 -68.5 -138t-140.5 -85t-180 -27 q-151 0 -244.5 65.5t-77.5 184.5z" />
<glyph unicode="&#x115;" horiz-adv-x="1146" d="M96 449q0 143 43.5 270t118 217.5t178.5 143.5t221 53q106 0 188 -34.5t136 -104.5t72 -174.5t-2 -244.5q-12 -79 -84 -79h-693q-12 -163 64 -258t201 -95q140 0 323 60l107 37l28 -148l-108 -35q-114 -36 -194.5 -52.5t-174.5 -16.5q-195 0 -310.5 125.5t-113.5 335.5z M293 627h588q9 58 9 111.5t-17 100t-45 80t-75.5 53t-109.5 19.5q-128 0 -223.5 -102t-126.5 -262zM385 1563h156q-10 -78 31.5 -122t119.5 -44q77 0 133 45t66 121h156q-18 -134 -124.5 -217.5t-246.5 -83.5q-142 0 -225.5 83.5t-65.5 217.5z" />
<glyph unicode="&#x116;" horiz-adv-x="1196" d="M104 150l170 1224q9 68 55.5 109t114.5 41h779l-21 -160h-729l-74 -506h652l-21 -156h-651l-80 -542h735l-20 -160h-783q-69 0 -103.5 41t-23.5 109zM705 1720q0 66 38 107t99 41q47 0 74.5 -27t27.5 -72q0 -57 -38.5 -101t-98.5 -44q-49 0 -75.5 25.5t-26.5 70.5z" />
<glyph unicode="&#x117;" horiz-adv-x="1146" d="M96 449q0 143 43.5 270t118 217.5t178.5 143.5t221 53q106 0 188 -34.5t136 -104.5t72 -174.5t-2 -244.5q-12 -79 -84 -79h-693q-12 -163 64 -258t201 -95q140 0 323 60l107 37l28 -148l-108 -35q-114 -36 -194.5 -52.5t-174.5 -16.5q-195 0 -310.5 125.5t-113.5 335.5z M293 627h588q9 58 9 111.5t-17 100t-45 80t-75.5 53t-109.5 19.5q-128 0 -223.5 -102t-126.5 -262zM598 1427q0 67 36 106.5t95 39.5q98 0 98 -98q0 -66 -37.5 -105t-93.5 -39q-47 0 -72.5 25t-25.5 71z" />
<glyph unicode="&#x118;" horiz-adv-x="1196" d="M104 150l170 1224q9 68 55.5 109t114.5 41h779l-21 -160h-729l-74 -506h652l-21 -156h-651l-80 -542h735l-20 -160h-133q-111 -62 -111 -147q0 -78 109 -78q86 0 192 39l23 -113q-119 -47 -232 -47q-112 0 -174.5 43.5t-62.5 120.5q0 111 127 182h-521q-69 0 -103.5 41 t-23.5 109z" />
<glyph unicode="&#x119;" horiz-adv-x="1146" d="M96 449q0 143 43.5 270t118 217.5t178.5 143.5t221 53q106 0 188 -34.5t136 -104.5t72 -174.5t-2 -244.5q-12 -79 -84 -79h-693q-12 -163 64 -258t201 -95q140 0 323 60l107 37l28 -148l-108 -35l-55 -18q-109 -61 -109 -145q0 -78 109 -78q86 0 192 39l23 -113 q-119 -47 -232 -47q-112 0 -174.5 43.5t-62.5 120.5q0 82 61 137q-74 -8 -121 -8q-195 0 -310.5 125.5t-113.5 335.5zM293 627h588q9 58 9 111.5t-17 100t-45 80t-75.5 53t-109.5 19.5q-128 0 -223.5 -102t-126.5 -262z" />
<glyph unicode="&#x11a;" horiz-adv-x="1196" d="M104 150l170 1224q9 68 55.5 109t114.5 41h779l-21 -160h-729l-74 -506h652l-21 -156h-651l-80 -542h735l-20 -160h-783q-69 0 -103.5 41t-23.5 109zM461 1864h227l129 -113l154 113h237l-286 -201q-60 -39 -121 -39q-68 0 -107 39z" />
<glyph unicode="&#x11b;" horiz-adv-x="1146" d="M96 449q0 143 43.5 270t118 217.5t178.5 143.5t221 53q106 0 188 -34.5t136 -104.5t72 -174.5t-2 -244.5q-12 -79 -84 -79h-693q-12 -163 64 -258t201 -95q140 0 323 60l107 37l28 -148l-108 -35q-114 -36 -194.5 -52.5t-174.5 -16.5q-195 0 -310.5 125.5t-113.5 335.5z M293 627h588q9 58 9 111.5t-17 100t-45 80t-75.5 53t-109.5 19.5q-128 0 -223.5 -102t-126.5 -262zM379 1563h205l106 -166l150 166h217l-273 -256q-43 -43 -108 -43q-51 0 -94 43z" />
<glyph unicode="&#x11c;" horiz-adv-x="1376" d="M135 571q0 201 52.5 376t149 305t241 205t319.5 75q174 0 375 -72l94 -33l-45 -170l-102 37q-192 64 -332 64q-133 0 -239 -60t-174.5 -166t-105 -248t-36.5 -309q0 -218 100 -324t287 -106q72 0 147.5 12t114.5 24l39 12l63 391h-325l18 153h365q75 0 105 -41.5 t22 -107.5l-54 -359q-8 -65 -45 -110t-86 -66q-159 -65 -391 -65q-261 0 -409 149t-148 434zM524 1626l289 199q53 39 117 39q68 0 110 -39l232 -199h-228l-124 113l-160 -113h-236z" />
<glyph unicode="&#x11d;" horiz-adv-x="1212" d="M41 -80q0 116 98 221l117 125q47 52 47 99q0 32 -17.5 63t-42 59.5t-49 60.5t-42 79t-17.5 102q0 99 42.5 175t114.5 120.5t157.5 67t179.5 22.5h135q153 0 219 23l201 63l35 -147l-222 -66q31 -26 51.5 -75t20.5 -115q0 -189 -135.5 -285t-368.5 -96q-37 0 -70.5 2.5 t-48.5 5.5l-14 2q19 -28 19 -74q0 -53 -60 -121h307q202 0 294.5 -59.5t92.5 -187.5q0 -93 -43.5 -163t-122.5 -111t-179.5 -61t-223.5 -20q-222 0 -348.5 73.5t-126.5 217.5zM205 -74q0 -168 323 -168q81 0 147.5 10t124 33t90 66.5t32.5 103.5q0 123 -174 123h-467 q-40 -42 -58 -80.5t-18 -87.5zM299 1272l274 256q47 43 109 43q51 0 94 -43l203 -256h-203l-108 166l-148 -166h-221zM301 729q0 -197 270 -197q148 0 239 64.5t91 196.5q0 190 -268 190q-154 0 -243 -61t-89 -193z" />
<glyph unicode="&#x11e;" horiz-adv-x="1376" d="M135 571q0 201 52.5 376t149 305t241 205t319.5 75q174 0 375 -72l94 -33l-45 -170l-102 37q-192 64 -332 64q-133 0 -239 -60t-174.5 -166t-105 -248t-36.5 -309q0 -218 100 -324t287 -106q72 0 147.5 12t114.5 24l39 12l63 391h-325l18 153h365q75 0 105 -41.5 t22 -107.5l-54 -359q-8 -65 -45 -110t-86 -66q-159 -65 -391 -65q-261 0 -409 149t-148 434zM588 1874h166q-7 -54 40 -85.5t134 -31.5q86 0 141.5 32t63.5 85h165q-11 -80 -68.5 -138t-140.5 -85t-180 -27q-151 0 -244 65.5t-77 184.5z" />
<glyph unicode="&#x11f;" horiz-adv-x="1212" d="M41 -80q0 116 98 221l117 125q47 52 47 99q0 32 -17.5 63t-42 59.5t-49 60.5t-42 79t-17.5 102q0 99 42.5 175t114.5 120.5t157.5 67t179.5 22.5h135q153 0 219 23l201 63l35 -147l-222 -66q31 -26 51.5 -75t20.5 -115q0 -189 -135.5 -285t-368.5 -96q-37 0 -70.5 2.5 t-48.5 5.5l-14 2q19 -28 19 -74q0 -53 -60 -121h307q202 0 294.5 -59.5t92.5 -187.5q0 -93 -43.5 -163t-122.5 -111t-179.5 -61t-223.5 -20q-222 0 -348.5 73.5t-126.5 217.5zM205 -74q0 -168 323 -168q81 0 147.5 10t124 33t90 66.5t32.5 103.5q0 123 -174 123h-467 q-40 -42 -58 -80.5t-18 -87.5zM301 729q0 -197 270 -197q148 0 239 64.5t91 196.5q0 190 -268 190q-154 0 -243 -61t-89 -193zM348 1563h156q-10 -78 31.5 -122t119.5 -44q77 0 133 45t66 121h156q-18 -134 -124.5 -217.5t-246.5 -83.5q-142 0 -225.5 83.5t-65.5 217.5z" />
<glyph unicode="&#x120;" horiz-adv-x="1376" d="M135 571q0 201 52.5 376t149 305t241 205t319.5 75q174 0 375 -72l94 -33l-45 -170l-102 37q-192 64 -332 64q-133 0 -239 -60t-174.5 -166t-105 -248t-36.5 -309q0 -218 100 -324t287 -106q72 0 147.5 12t114.5 24l39 12l63 391h-325l18 153h365q75 0 105 -41.5 t22 -107.5l-54 -359q-8 -65 -45 -110t-86 -66q-159 -65 -391 -65q-261 0 -409 149t-148 434zM825 1720q0 66 38 107t100 41q47 0 74.5 -27t27.5 -72q0 -57 -38.5 -101t-98.5 -44q-49 0 -76 25.5t-27 70.5z" />
<glyph unicode="&#x121;" horiz-adv-x="1212" d="M41 -80q0 116 98 221l117 125q47 52 47 99q0 32 -17.5 63t-42 59.5t-49 60.5t-42 79t-17.5 102q0 99 42.5 175t114.5 120.5t157.5 67t179.5 22.5h135q153 0 219 23l201 63l35 -147l-222 -66q31 -26 51.5 -75t20.5 -115q0 -189 -135.5 -285t-368.5 -96q-37 0 -70.5 2.5 t-48.5 5.5l-14 2q19 -28 19 -74q0 -53 -60 -121h307q202 0 294.5 -59.5t92.5 -187.5q0 -93 -43.5 -163t-122.5 -111t-179.5 -61t-223.5 -20q-222 0 -348.5 73.5t-126.5 217.5zM205 -74q0 -168 323 -168q81 0 147.5 10t124 33t90 66.5t32.5 103.5q0 123 -174 123h-467 q-40 -42 -58 -80.5t-18 -87.5zM301 729q0 -197 270 -197q148 0 239 64.5t91 196.5q0 190 -268 190q-154 0 -243 -61t-89 -193zM563 1427q0 67 36 106.5t95 39.5q99 0 99 -98q0 -66 -37.5 -105t-93.5 -39q-47 0 -73 25t-26 71z" />
<glyph unicode="&#x122;" horiz-adv-x="1376" d="M135 571q0 201 52.5 376t149 305t241 205t319.5 75q174 0 375 -72l94 -33l-45 -170l-102 37q-192 64 -332 64q-133 0 -239 -60t-174.5 -166t-105 -248t-36.5 -309q0 -218 100 -324t287 -106q72 0 147.5 12t114.5 24l39 12l63 391h-325l18 153h365q75 0 105 -41.5 t22 -107.5l-54 -359q-8 -65 -45 -110t-86 -66q-159 -65 -391 -65q-261 0 -409 149t-148 434zM493 -389.5q-17 34.5 5 80.5l96 209h197l-121 -252q-37 -72 -107 -72q-53 0 -70 34.5z" />
<glyph unicode="&#x123;" horiz-adv-x="1212" d="M41 -80q0 116 98 221l117 125q47 52 47 99q0 32 -17.5 63t-42 59.5t-49 60.5t-42 79t-17.5 102q0 99 42.5 175t114.5 120.5t157.5 67t179.5 22.5h135q153 0 219 23l201 63l35 -147l-222 -66q31 -26 51.5 -75t20.5 -115q0 -189 -135.5 -285t-368.5 -96q-37 0 -70.5 2.5 t-48.5 5.5l-14 2q19 -28 19 -74q0 -53 -60 -121h307q202 0 294.5 -59.5t92.5 -187.5q0 -93 -43.5 -163t-122.5 -111t-179.5 -61t-223.5 -20q-222 0 -348.5 73.5t-126.5 217.5zM205 -74q0 -168 323 -168q81 0 147.5 10t124 33t90 66.5t32.5 103.5q0 123 -174 123h-467 q-40 -42 -58 -80.5t-18 -87.5zM301 729q0 -197 270 -197q148 0 239 64.5t91 196.5q0 190 -268 190q-154 0 -243 -61t-89 -193zM530 1260l125 331q26 70 101 70q43 0 63 -33.5t6 -75.5l-102 -292h-193z" />
<glyph unicode="&#x124;" horiz-adv-x="1372" d="M80 0l215 1524h197l-95 -666h676l94 666h195l-213 -1524h-197l101 698h-676l-101 -698h-196zM467 1626l289 199q53 39 116 39q69 0 111 -39l231 -199h-227l-125 113l-160 -113h-235z" />
<glyph unicode="&#x125;" horiz-adv-x="1134" d="M80 0l219 1563h170l-72 -500q163 61 291 61q197 0 274.5 -108t51.5 -291l-103 -725h-172l101 721q16 120 -29.5 184t-167.5 64q-51 0 -109.5 -15.5t-156.5 -50.5l-127 -903h-170zM344 1632l289 199q53 39 117 39q68 0 110 -39l232 -199h-228l-125 113l-159 -113h-236z " />
<glyph unicode="&#x126;" horiz-adv-x="1372" d="M61 1083l23 144h168l43 297h197l-43 -297h675l43 297h195l-41 -297h166l-21 -144h-166l-151 -1083h-197l101 698h-676l-101 -698h-196l151 1083h-170zM397 858h676l31 225h-676z" />
<glyph unicode="&#x127;" horiz-adv-x="1134" d="M80 0l176 1257h-145l20 138h143l25 168h170l-25 -168h265l-21 -138h-264l-27 -194q163 61 291 61q197 0 274.5 -108t51.5 -291l-103 -725h-172l101 721q16 120 -29.5 184t-167.5 64q-51 0 -109.5 -15.5t-156.5 -50.5l-127 -903h-170z" />
<glyph unicode="&#x128;" horiz-adv-x="497" d="M-2 1696q101 182 270 182q80 0 152 -43l86 -51q39 -23 80 -23q40 0 73.5 24.5t71.5 88.5l113 -66q-51 -96 -122 -141t-147 -45q-84 0 -151 43l-84 53q-37 21 -80 21q-41 0 -76 -22t-73 -85zM80 0l215 1524h194l-215 -1524h-194z" />
<glyph unicode="&#x129;" horiz-adv-x="485" d="M-35 1352q52 110 123 163.5t143 53.5q88 0 152 -58l68 -61q44 -35 73 -35q78 0 148 137l104 -69q-52 -110 -124 -162.5t-144 -52.5q-88 0 -152 61l-65 57q-30 35 -74 35q-79 0 -147 -137zM80 0l156 1116h174l-156 -1116h-174z" />
<glyph unicode="&#x12a;" horiz-adv-x="497" d="M80 0l215 1524h194l-215 -1524h-194zM84 1657l22 151h646l-23 -151h-645z" />
<glyph unicode="&#x12b;" horiz-adv-x="485" d="M35 1341l20 154h627l-20 -154h-627zM80 0l156 1116h174l-156 -1116h-174z" />
<glyph unicode="&#x12c;" horiz-adv-x="497" d="M80 0l215 1524h194l-215 -1524h-194zM88 1874h166q-7 -54 40 -85.5t134 -31.5q86 0 141.5 32t63.5 85h166q-11 -80 -68.5 -138t-140.5 -85t-180 -27q-151 0 -244.5 65.5t-77.5 184.5z" />
<glyph unicode="&#x12d;" horiz-adv-x="485" d="M49 1563h156q-10 -78 31.5 -122t119.5 -44q77 0 133 45t66 121h156q-18 -134 -124.5 -217.5t-246.5 -83.5q-142 0 -225.5 83.5t-65.5 217.5zM80 0l156 1116h174l-156 -1116h-174z" />
<glyph unicode="&#x12e;" horiz-adv-x="497" d="M16 -182q0 111 127 182h-63l215 1524h194l-215 -1524h-2q-110 -61 -110 -147q0 -78 108 -78q87 0 193 39l22 -113q-119 -47 -231 -47t-175 43.5t-63 120.5z" />
<glyph unicode="&#x12f;" horiz-adv-x="485" d="M-4 -182q0 111 127 182h-43l156 1116h174l-156 -1116h-2q-111 -62 -111 -147q0 -78 109 -78q86 0 192 39l23 -113q-119 -47 -232 -47q-112 0 -174.5 43.5t-62.5 120.5zM256 1427q0 67 35.5 106.5t95.5 39.5q96 0 96 -98q0 -66 -36.5 -105t-92.5 -39q-47 0 -72.5 25 t-25.5 71z" />
<glyph unicode="&#x130;" horiz-adv-x="497" d="M80 0l215 1524h194l-215 -1524h-194zM305 1720q0 66 38 107t99 41q47 0 75 -27t28 -72q0 -57 -38.5 -101t-98.5 -44q-49 0 -76 25.5t-27 70.5z" />
<glyph unicode="&#x131;" horiz-adv-x="485" d="M80 0l156 1116h174l-156 -1116h-174z" />
<glyph unicode="&#x134;" horiz-adv-x="768" d="M-20 33l43 168q129 -37 192 -37q88 0 132 53t59 174l159 1133h193l-160 -1147q-55 -383 -387 -383q-81 0 -231 39zM293 1626l289 199q53 39 116 39q69 0 111 -39l231 -199h-227l-125 113l-160 -113h-235z" />
<glyph unicode="&#x135;" horiz-adv-x="491" d="M-162 -371l23 144q95 3 147.5 58t67.5 163l160 1122h174l-160 -1128q-24 -175 -132 -267t-280 -92zM-12 1268l274 256q47 43 109 43q51 0 94 -43l203 -256h-203l-109 166l-147 -166h-221z" />
<glyph unicode="&#x136;" horiz-adv-x="1265" d="M80 0l213 1524h192l-118 -830l735 830h231l-485 -539l291 -985h-203l-242 827l-215 -229q-39 -43 -61.5 -70.5t-47.5 -66.5t-39 -81.5t-20 -92.5l-39 -287h-192zM376 -389.5q-17 34.5 5 80.5l96 209h197l-121 -252q-37 -72 -107 -72q-53 0 -70 34.5z" />
<glyph unicode="&#x137;" horiz-adv-x="1105" d="M80 0l219 1563h170l-145 -1020l571 573h217l-395 -393l284 -723h-188l-242 592l-157 -150q-68 -64 -97 -112t-43 -144l-26 -186h-168zM306.5 -389.5q-17.5 34.5 4.5 80.5l97 209h196l-121 -252q-37 -72 -106 -72q-53 0 -70.5 34.5z" />
<glyph unicode="&#x138;" horiz-adv-x="1114" d="M76 0l157 1116h173l-84 -596q51 12 100.5 53t92.5 95.5t89.5 118t100 124.5t113.5 111t141.5 80.5t173.5 30.5l-25 -160q-46 0 -91 -15.5t-80.5 -39t-74 -62t-66 -71t-63.5 -80.5l275 -705h-195l-215 547q-61 -77 -139 -133t-160 -72l-49 -342h-174z" />
<glyph unicode="&#x139;" horiz-adv-x="1099" d="M102 150l195 1374h199l-193 -1356h694l-20 -168h-748q-67 0 -101.5 41t-25.5 109zM592 1688q0 43 41 69l166 107h278l-336 -213q-46 -27 -79 -27q-34 0 -52 19t-18 45z" />
<glyph unicode="&#x13a;" horiz-adv-x="493" d="M88 0l219 1563h176l-221 -1563h-174zM246 1690q0 43 41 69l166 107h278l-336 -213q-46 -27 -80 -27t-51.5 19t-17.5 45z" />
<glyph unicode="&#x13b;" horiz-adv-x="1099" d="M102 150l195 1374h199l-193 -1356h694l-20 -168h-748q-67 0 -101.5 41t-25.5 109zM343.5 -389.5q-17.5 34.5 4.5 80.5l96 209h197l-121 -252q-37 -72 -106 -72q-53 0 -70.5 34.5z" />
<glyph unicode="&#x13c;" horiz-adv-x="493" d="M-35.5 -389.5q-17.5 34.5 4.5 80.5l97 209h196l-121 -252q-37 -72 -106 -72q-53 0 -70.5 34.5zM88 0l219 1563h176l-221 -1563h-174z" />
<glyph unicode="&#x13d;" horiz-adv-x="1099" d="M102 150l195 1374h199l-193 -1356h694l-20 -168h-748q-67 0 -101.5 41t-25.5 109zM612 1202l129 361h187l-150 -404q-26 -69 -92 -69q-52 0 -71 32.5t-3 79.5z" />
<glyph unicode="&#x13e;" horiz-adv-x="774" d="M88 0l219 1563h176l-221 -1563h-174zM602 1200l131 365h185l-152 -404q-21 -69 -94 -69q-45 0 -64 32.5t-6 75.5z" />
<glyph unicode="&#x13f;" horiz-adv-x="1099" d="M102 150l195 1374h199l-193 -1356h694l-20 -168h-748q-67 0 -101.5 41t-25.5 109zM659 723q0 68 35.5 107.5t93.5 39.5q99 0 99 -100q0 -67 -36.5 -106t-92.5 -39q-47 0 -73 26t-26 72z" />
<glyph unicode="&#x140;" horiz-adv-x="792" d="M88 0l219 1563h176l-221 -1563h-174zM559 723q0 68 35.5 107.5t93.5 39.5q98 0 98 -100q0 -67 -36.5 -106t-92.5 -39q-47 0 -72.5 26t-25.5 72z" />
<glyph unicode="&#x141;" horiz-adv-x="1103" d="M59 682l23 168l135 61l86 613h195l-74 -516l332 151l-23 -168l-334 -153l-94 -674h682l-20 -164h-729q-69 0 -103.5 41t-23.5 109l82 593z" />
<glyph unicode="&#x142;" horiz-adv-x="499" d="M70 702l26 179l133 80l86 602h174l-69 -488l139 84l-27 -180l-137 -82l-125 -897h-174l109 784z" />
<glyph unicode="&#x143;" horiz-adv-x="1388" d="M80 0l196 1411q16 127 150 127q98 0 129 -96l467 -1149l178 1231h178l-196 -1397q-19 -137 -148 -137q-56 0 -88 27t-51 77l-461 1135l-174 -1229h-180zM752 1688q0 43 41 69l165 107h279l-336 -213q-46 -27 -80 -27t-51.5 19t-17.5 45z" />
<glyph unicode="&#x144;" horiz-adv-x="1132" d="M80 0l127 924q20 119 137 151q186 51 332 51q103 0 176 -30.5t110 -84.5t51 -127t-1 -157l-103 -727h-172l99 709q19 127 -23.5 193.5t-169.5 66.5q-106 0 -262 -41l-131 -928h-170zM516 1341q0 36 37 68l164 154h248l-310 -258q-40 -31 -73 -31q-31 0 -48.5 20t-17.5 47 z" />
<glyph unicode="&#x145;" horiz-adv-x="1388" d="M80 0l196 1411q16 127 150 127q98 0 129 -96l467 -1149l178 1231h178l-196 -1397q-19 -137 -148 -137q-56 0 -88 27t-51 77l-461 1135l-174 -1229h-180zM423.5 -389.5q-17.5 34.5 4.5 80.5l96 209h197l-121 -252q-37 -72 -106 -72q-53 0 -70.5 34.5z" />
<glyph unicode="&#x146;" horiz-adv-x="1132" d="M80 0l127 924q20 119 137 151q186 51 332 51q103 0 176 -30.5t110 -84.5t51 -127t-1 -157l-103 -727h-172l99 709q19 127 -23.5 193.5t-169.5 66.5q-106 0 -262 -41l-131 -928h-170zM284 -389.5q-17 34.5 5 80.5l96 209h197l-121 -252q-37 -72 -107 -72q-53 0 -70 34.5z " />
<glyph unicode="&#x147;" horiz-adv-x="1388" d="M80 0l196 1411q16 127 150 127q98 0 129 -96l467 -1149l178 1231h178l-196 -1397q-19 -137 -148 -137q-56 0 -88 27t-51 77l-461 1135l-174 -1229h-180zM522 1864h228l129 -113l153 113h238l-287 -201q-60 -39 -121 -39q-67 0 -106 39z" />
<glyph unicode="&#x148;" horiz-adv-x="1132" d="M80 0l127 924q20 119 137 151q186 51 332 51q103 0 176 -30.5t110 -84.5t51 -127t-1 -157l-103 -727h-172l99 709q19 127 -23.5 193.5t-169.5 66.5q-106 0 -262 -41l-131 -928h-170zM358 1563h205l107 -166l149 166h217l-272 -256q-43 -43 -109 -43q-51 0 -94 43z" />
<glyph unicode="&#x14a;" horiz-adv-x="1386" d="M80 0l194 1403q9 68 50.5 101.5t101.5 33.5q92 0 129 -88l481 -1106l166 1180h174l-217 -1538q-25 -174 -131.5 -266.5t-279.5 -92.5l22 144q185 6 215 217l2 12l-557 1251l-176 -1251h-174z" />
<glyph unicode="&#x14b;" horiz-adv-x="1132" d="M80 0l127 924q20 119 137 151q186 51 332 51q103 0 176 -30.5t110 -84.5t51 -127t-1 -157l-103 -739q-26 -175 -132.5 -267t-278.5 -92l24 144q184 6 215 221l99 715q19 127 -23.5 193.5t-169.5 66.5q-106 0 -262 -41l-131 -928h-170z" />
<glyph unicode="&#x14c;" horiz-adv-x="1499" d="M135 610q0 209 60 384.5t163 292t239.5 181t289.5 64.5q252 0 399.5 -163t147.5 -460q0 -261 -97.5 -472.5t-270.5 -332t-388 -120.5q-250 0 -396.5 164.5t-146.5 461.5zM332 608q0 -231 96 -349t274 -118q156 0 279 107t187.5 281t64.5 378q0 231 -96 347t-273 116 q-111 0 -208.5 -54.5t-169 -152t-113 -241.5t-41.5 -314zM616 1657l23 151h645l-22 -151h-646z" />
<glyph unicode="&#x14d;" horiz-adv-x="1171" d="M92 459q0 144 43 269t118.5 212.5t181.5 137.5t227 50q196 0 306.5 -124.5t110.5 -341.5q0 -182 -69.5 -334.5t-201.5 -246t-300 -93.5q-195 0 -305.5 126.5t-110.5 344.5zM272 459q0 -151 65 -239.5t193 -88.5q85 0 157 47t117.5 123.5t71 169.5t25.5 188 q0 149 -66.5 236.5t-193.5 87.5q-107 0 -192 -72.5t-131 -192t-46 -259.5zM393 1341l21 154h626l-20 -154h-627z" />
<glyph unicode="&#x14e;" horiz-adv-x="1499" d="M135 610q0 209 60 384.5t163 292t239.5 181t289.5 64.5q252 0 399.5 -163t147.5 -460q0 -261 -97.5 -472.5t-270.5 -332t-388 -120.5q-250 0 -396.5 164.5t-146.5 461.5zM332 608q0 -231 96 -349t274 -118q156 0 279 107t187.5 281t64.5 378q0 231 -96 347t-273 116 q-111 0 -208.5 -54.5t-169 -152t-113 -241.5t-41.5 -314zM606 1874h166q-7 -54 40 -85.5t134 -31.5q86 0 141.5 32t63.5 85h166q-11 -80 -68.5 -138t-140.5 -85t-180 -27q-151 0 -244.5 65.5t-77.5 184.5z" />
<glyph unicode="&#x14f;" horiz-adv-x="1171" d="M92 459q0 144 43 269t118.5 212.5t181.5 137.5t227 50q196 0 306.5 -124.5t110.5 -341.5q0 -182 -69.5 -334.5t-201.5 -246t-300 -93.5q-195 0 -305.5 126.5t-110.5 344.5zM272 459q0 -151 65 -239.5t193 -88.5q85 0 157 47t117.5 123.5t71 169.5t25.5 188 q0 149 -66.5 236.5t-193.5 87.5q-107 0 -192 -72.5t-131 -192t-46 -259.5zM395 1563h156q-10 -78 31.5 -122t119.5 -44q77 0 133 45t66 121h156q-18 -134 -124.5 -217.5t-246.5 -83.5q-142 0 -225.5 83.5t-65.5 217.5z" />
<glyph unicode="&#x150;" horiz-adv-x="1499" d="M135 610q0 209 60 384.5t163 292t239.5 181t289.5 64.5q252 0 399.5 -163t147.5 -460q0 -261 -97.5 -472.5t-270.5 -332t-388 -120.5q-250 0 -396.5 164.5t-146.5 461.5zM332 608q0 -231 96 -349t274 -118q156 0 279 107t187.5 281t64.5 378q0 231 -96 347t-273 116 q-111 0 -208.5 -54.5t-169 -152t-113 -241.5t-41.5 -314zM684 1686q0 27 31 55l162 123h243l-289 -217q-35 -27 -77 -27q-32 0 -51 20t-19 46zM1057 1681q0 32 28 54l166 129h252l-303 -224q-34 -22 -74 -22q-33 0 -51 18t-18 45z" />
<glyph unicode="&#x151;" horiz-adv-x="1171" d="M92 459q0 144 43 269t118.5 212.5t181.5 137.5t227 50q196 0 306.5 -124.5t110.5 -341.5q0 -182 -69.5 -334.5t-201.5 -246t-300 -93.5q-195 0 -305.5 126.5t-110.5 344.5zM272 459q0 -151 65 -239.5t193 -88.5q85 0 157 47t117.5 123.5t71 169.5t25.5 188 q0 149 -66.5 236.5t-193.5 87.5q-107 0 -192 -72.5t-131 -192t-46 -259.5zM422 1327q0 32 33 70l168 166h221l-287 -267q-36 -32 -72 -32q-31 0 -47 18.5t-16 44.5zM788 1315q0 31 33 69l174 179h222l-293 -279q-37 -33 -70 -33q-32 0 -49 19t-17 45z" />
<glyph unicode="&#x152;" horiz-adv-x="2072" d="M133 621q0 199 59.5 369.5t160.5 286.5t237.5 181.5t288.5 65.5h1220l-24 -160h-734l-73 -506h657l-20 -156h-658l-80 -542h742l-21 -160h-1233q-241 0 -381.5 171t-140.5 450zM332 625q0 -212 94.5 -337.5t273.5 -125.5h275l170 1202h-283q-155 0 -277.5 -101 t-187.5 -268.5t-65 -369.5z" />
<glyph unicode="&#x153;" horiz-adv-x="1939" d="M92 459q0 144 43 269t118.5 212.5t181.5 137.5t227 50q135 0 227 -62t135 -177q73 114 184.5 179t241.5 65q218 0 326 -143t65 -415q-9 -79 -82 -79h-694q-10 -163 65 -258t201 -95q141 0 324 60l106 37l29 -148l-109 -35q-114 -36 -194 -52.5t-174 -16.5 q-135 0 -230.5 63.5t-140.5 177.5q-75 -113 -186 -177t-248 -64q-195 0 -305.5 126.5t-110.5 344.5zM272 459q0 -151 65 -239.5t193 -88.5q85 0 157 47t117.5 123.5t71 169.5t25.5 188q0 149 -66.5 236.5t-193.5 87.5q-107 0 -192 -72.5t-131 -192t-46 -259.5zM1083 627h590 q15 72 6.5 138t-34 116.5t-80 80t-131.5 29.5q-127 0 -222.5 -102t-128.5 -262z" />
<glyph unicode="&#x154;" horiz-adv-x="1286" d="M80 0l194 1382q8 66 51.5 104t112.5 38h457q166 0 256 -89t90 -251q0 -194 -160 -375l-129 -150l205 -659h-201l-182 610h-414l-86 -610h-194zM381 762h448l95 115q127 153 127 297q0 93 -49 144.5t-148 51.5h-387zM684 1688q0 43 41 69l166 107h278l-335 -213 q-46 -27 -80 -27t-52 19t-18 45z" />
<glyph unicode="&#x155;" horiz-adv-x="743" d="M80 0l125 905q7 61 37.5 96t89.5 56q204 67 434 67l-23 -159q-208 0 -368 -58l-125 -907h-170zM381 1341q0 36 37 68l164 154h247l-309 -258q-40 -31 -74 -31q-30 0 -47.5 20t-17.5 47z" />
<glyph unicode="&#x156;" horiz-adv-x="1286" d="M80 0l194 1382q8 66 51.5 104t112.5 38h457q166 0 256 -89t90 -251q0 -194 -160 -375l-129 -150l205 -659h-201l-182 610h-414l-86 -610h-194zM381 762h448l95 115q127 153 127 297q0 93 -49 144.5t-148 51.5h-387zM392.5 -389.5q-17.5 34.5 4.5 80.5l97 209h196 l-121 -252q-37 -72 -106 -72q-53 0 -70.5 34.5z" />
<glyph unicode="&#x157;" horiz-adv-x="743" d="M-45.5 -389.5q-17.5 34.5 4.5 80.5l96 209h197l-121 -252q-37 -72 -106 -72q-53 0 -70.5 34.5zM80 0l125 905q7 61 37.5 96t89.5 56q204 67 434 67l-23 -159q-208 0 -368 -58l-125 -907h-170z" />
<glyph unicode="&#x158;" horiz-adv-x="1286" d="M80 0l194 1382q8 66 51.5 104t112.5 38h457q166 0 256 -89t90 -251q0 -194 -160 -375l-129 -150l205 -659h-201l-182 610h-414l-86 -610h-194zM381 762h448l95 115q127 153 127 297q0 93 -49 144.5t-148 51.5h-387zM446 1864h228l129 -113l153 113h238l-287 -201 q-60 -39 -121 -39q-67 0 -106 39z" />
<glyph unicode="&#x159;" horiz-adv-x="743" d="M80 0l125 905q7 61 37.5 96t89.5 56q204 67 434 67l-23 -159q-208 0 -368 -58l-125 -907h-170zM223 1563h205l107 -166l149 166h217l-272 -256q-43 -43 -109 -43q-51 0 -94 43z" />
<glyph unicode="&#x15a;" horiz-adv-x="1232" d="M68 111l47 176l114 -45q217 -86 383 -86q146 0 231 61t85 191q0 163 -178 221l-281 90q-138 46 -210.5 143.5t-72.5 224.5q0 207 139 327t367 120q186 0 418 -82l107 -39l-50 -174l-114 41q-236 82 -369 82q-144 0 -224.5 -64t-80.5 -196q0 -160 176 -219l279 -92 q140 -47 214 -142.5t74 -226.5q0 -203 -144.5 -320.5t-375.5 -117.5q-196 0 -428 88zM684 1688q0 43 41 69l166 107h278l-335 -213q-46 -27 -80 -27t-52 19t-18 45z" />
<glyph unicode="&#x15b;" horiz-adv-x="1042" d="M53 78l45 149l80 -26q198 -64 330 -64q93 0 155 41t62 133q0 55 -34.5 89.5t-108.5 56.5l-191 53q-122 33 -181.5 100t-59.5 178q0 90 34.5 158t93.5 106.5t128.5 57t148.5 18.5q166 0 358 -65l76 -27l-43 -151l-84 26q-68 22 -104 33t-99 22t-122 11 q-101 0 -159.5 -42.5t-58.5 -133.5q0 -55 34.5 -90.5t109.5 -57.5l194 -51q121 -33 180.5 -99.5t59.5 -176.5q0 -89 -35.5 -157t-94.5 -106.5t-128.5 -57.5t-146.5 -19q-171 0 -363 65zM494 1341q0 37 36 68l164 154h248l-309 -258q-40 -31 -74 -31q-30 0 -47.5 20t-17.5 47 z" />
<glyph unicode="&#x15c;" horiz-adv-x="1232" d="M68 111l47 176l114 -45q217 -86 383 -86q146 0 231 61t85 191q0 163 -178 221l-281 90q-138 46 -210.5 143.5t-72.5 224.5q0 207 139 327t367 120q186 0 418 -82l107 -39l-50 -174l-114 41q-236 82 -369 82q-144 0 -224.5 -64t-80.5 -196q0 -160 176 -219l279 -92 q140 -47 214 -142.5t74 -226.5q0 -203 -144.5 -320.5t-375.5 -117.5q-196 0 -428 88zM365 1626l288 199q53 39 117 39q69 0 111 -39l231 -199h-227l-125 113l-160 -113h-235z" />
<glyph unicode="&#x15d;" horiz-adv-x="1042" d="M53 78l45 149l80 -26q198 -64 330 -64q93 0 155 41t62 133q0 55 -34.5 89.5t-108.5 56.5l-191 53q-122 33 -181.5 100t-59.5 178q0 90 34.5 158t93.5 106.5t128.5 57t148.5 18.5q166 0 358 -65l76 -27l-43 -151l-84 26q-68 22 -104 33t-99 22t-122 11 q-101 0 -159.5 -42.5t-58.5 -133.5q0 -55 34.5 -90.5t109.5 -57.5l194 -51q121 -33 180.5 -99.5t59.5 -176.5q0 -89 -35.5 -157t-94.5 -106.5t-128.5 -57.5t-146.5 -19q-171 0 -363 65zM264 1268l275 256q47 43 108 43q51 0 94 -43l203 -256h-203l-108 166l-148 -166h-221z " />
<glyph unicode="&#x15e;" horiz-adv-x="1232" d="M68 111l47 176l114 -45q217 -86 383 -86q146 0 231 61t85 191q0 163 -178 221l-281 90q-138 46 -210.5 143.5t-72.5 224.5q0 207 139 327t367 120q186 0 418 -82l107 -39l-50 -174l-114 41q-236 82 -369 82q-144 0 -224.5 -64t-80.5 -196q0 -160 176 -219l279 -92 q140 -47 214 -142.5t74 -226.5q0 -195 -135 -312t-354 -126l-51 -86q166 0 166 -131q0 -81 -62 -125.5t-156 -44.5q-86 0 -178 41l33 94q79 -35 147 -35q95 0 95 67q0 20 -13.5 33t-37 17.5t-54 6t-65.5 -0.5l-8 16l90 150q-172 12 -365 86z" />
<glyph unicode="&#x15f;" horiz-adv-x="1042" d="M53 78l45 149l80 -26q198 -64 330 -64q93 0 155 41t62 133q0 55 -34.5 89.5t-108.5 56.5l-191 53q-122 33 -181.5 100t-59.5 178q0 90 34.5 158t93.5 106.5t128.5 57t148.5 18.5q166 0 358 -65l76 -27l-43 -151l-84 26q-68 22 -104 33t-99 22t-122 11 q-101 0 -159.5 -42.5t-58.5 -133.5q0 -55 34.5 -90.5t109.5 -57.5l194 -51q121 -33 180.5 -99.5t59.5 -176.5q0 -87 -34 -154t-91 -106t-124 -58.5t-142 -21.5l-53 -88q165 0 165 -131q0 -81 -61.5 -125.5t-155.5 -44.5q-86 0 -178 41l33 94q79 -35 147 -35q95 0 95 67 q0 20 -13.5 33t-37 17.5t-54.5 6t-65 -0.5l-9 16l93 154q-128 8 -283 61z" />
<glyph unicode="&#x160;" horiz-adv-x="1232" d="M68 111l47 176l114 -45q217 -86 383 -86q146 0 231 61t85 191q0 163 -178 221l-281 90q-138 46 -210.5 143.5t-72.5 224.5q0 207 139 327t367 120q186 0 418 -82l107 -39l-50 -174l-114 41q-236 82 -369 82q-144 0 -224.5 -64t-80.5 -196q0 -160 176 -219l279 -92 q140 -47 214 -142.5t74 -226.5q0 -203 -144.5 -320.5t-375.5 -117.5q-196 0 -428 88zM418 1864h227l129 -113l154 113h237l-286 -201q-60 -39 -121 -39q-68 0 -107 39z" />
<glyph unicode="&#x161;" horiz-adv-x="1042" d="M53 78l45 149l80 -26q198 -64 330 -64q93 0 155 41t62 133q0 55 -34.5 89.5t-108.5 56.5l-191 53q-122 33 -181.5 100t-59.5 178q0 90 34.5 158t93.5 106.5t128.5 57t148.5 18.5q166 0 358 -65l76 -27l-43 -151l-84 26q-68 22 -104 33t-99 22t-122 11 q-101 0 -159.5 -42.5t-58.5 -133.5q0 -55 34.5 -90.5t109.5 -57.5l194 -51q121 -33 180.5 -99.5t59.5 -176.5q0 -89 -35.5 -157t-94.5 -106.5t-128.5 -57.5t-146.5 -19q-171 0 -363 65zM324 1563h204l107 -166l149 166h217l-272 -256q-43 -43 -108 -43q-52 0 -95 43z" />
<glyph unicode="&#x162;" horiz-adv-x="1191" d="M178 1364l23 160h1063l-21 -160h-434l-193 -1364h-198l194 1364h-434zM306.5 -389.5q-17.5 34.5 4.5 80.5l97 209h196l-121 -252q-37 -72 -106 -72q-53 0 -70.5 34.5z" />
<glyph unicode="&#x163;" horiz-adv-x="835" d="M115 950l20 150h158l39 270l174 39l-41 -309h336l-23 -150h-336l-86 -592q-17 -115 12 -167t113 -52q77 0 213 45v-147q-146 -49 -250 -49q-154 0 -220 91.5t-38 272.5l86 598h-157zM198 -389.5q-17 34.5 5 80.5l96 209h197l-121 -252q-37 -72 -107 -72q-53 0 -70 34.5z " />
<glyph unicode="&#x164;" horiz-adv-x="1191" d="M178 1364l23 160h1063l-21 -160h-434l-193 -1364h-198l194 1364h-434zM408 1864h227l129 -113l154 113h237l-287 -201q-60 -39 -120 -39q-68 0 -107 39z" />
<glyph unicode="&#x165;" horiz-adv-x="835" d="M115 950l20 150h158l39 270l174 39l-41 -309h336l-23 -150h-336l-86 -592q-17 -115 12 -167t113 -52q77 0 213 45v-147q-146 -49 -250 -49q-154 0 -220 91.5t-38 272.5l86 598h-157zM609.5 1229q-17.5 35 0.5 82l103 254h188l-127 -299q-29 -72 -96 -72q-51 0 -68.5 35z " />
<glyph unicode="&#x166;" horiz-adv-x="1191" d="M178 1364l23 160h1063l-21 -160h-434l-72 -512h310l-23 -152h-309l-99 -700h-198l100 700h-313l22 152h312l73 512h-434z" />
<glyph unicode="&#x167;" horiz-adv-x="835" d="M59 569l23 152h156l34 229h-157l20 150h158l39 270l174 39l-41 -309h336l-23 -150h-336l-34 -229h340l-25 -152h-336l-31 -211q-17 -115 12 -167t113 -52q77 0 213 45v-147q-146 -49 -250 -49q-154 0 -220 91.5t-38 272.5l31 217h-158z" />
<glyph unicode="&#x168;" horiz-adv-x="1390" d="M160 547l137 977h192l-135 -979q-56 -400 299 -400q181 0 280 100.5t126 299.5l137 979h195l-138 -979q-39 -271 -198.5 -422.5t-419.5 -151.5q-264 0 -388 152t-87 424zM465 1696q101 182 270 182q80 0 152 -43l86 -51q39 -23 80 -23q40 0 73.5 24.5t71.5 88.5l113 -66 q-51 -96 -122 -141t-147 -45q-84 0 -151 43l-84 53q-37 21 -80 21q-41 0 -76 -22t-73 -85z" />
<glyph unicode="&#x169;" horiz-adv-x="1130" d="M119 391l102 725h172l-98 -708q-19 -128 23.5 -194.5t170.5 -66.5q108 0 263 43l129 926h172l-129 -923q-18 -120 -138 -152q-185 -49 -331 -49q-200 0 -280.5 108.5t-55.5 290.5zM279 1352q52 110 123 163.5t143 53.5q87 0 151 -58l68 -61q44 -35 74 -35q77 0 147 137 l105 -69q-52 -110 -124 -162.5t-145 -52.5q-87 0 -151 61l-66 57q-30 35 -74 35q-79 0 -147 -137z" />
<glyph unicode="&#x16a;" horiz-adv-x="1390" d="M160 547l137 977h192l-135 -979q-56 -400 299 -400q181 0 280 100.5t126 299.5l137 979h195l-138 -979q-39 -271 -198.5 -422.5t-419.5 -151.5q-264 0 -388 152t-87 424zM537 1657l22 151h645l-22 -151h-645z" />
<glyph unicode="&#x16b;" horiz-adv-x="1130" d="M119 391l102 725h172l-98 -708q-19 -128 23.5 -194.5t170.5 -66.5q108 0 263 43l129 926h172l-129 -923q-18 -120 -138 -152q-185 -49 -331 -49q-200 0 -280.5 108.5t-55.5 290.5zM354 1341l21 154h626l-20 -154h-627z" />
<glyph unicode="&#x16c;" horiz-adv-x="1390" d="M160 547l137 977h192l-135 -979q-56 -400 299 -400q181 0 280 100.5t126 299.5l137 979h195l-138 -979q-39 -271 -198.5 -422.5t-419.5 -151.5q-264 0 -388 152t-87 424zM537 1874h165q-7 -54 40.5 -85.5t134.5 -31.5q86 0 141 32t63 85h166q-11 -80 -68.5 -138 t-140.5 -85t-180 -27q-151 0 -244 65.5t-77 184.5z" />
<glyph unicode="&#x16d;" horiz-adv-x="1130" d="M119 391l102 725h172l-98 -708q-19 -128 23.5 -194.5t170.5 -66.5q108 0 263 43l129 926h172l-129 -923q-18 -120 -138 -152q-185 -49 -331 -49q-200 0 -280.5 108.5t-55.5 290.5zM367 1563h155q-10 -78 32 -122t120 -44q77 0 132.5 45t65.5 121h156 q-18 -134 -124.5 -217.5t-246.5 -83.5q-142 0 -225 83.5t-65 217.5z" />
<glyph unicode="&#x16e;" horiz-adv-x="1390" d="M160 547l137 977h192l-135 -979q-56 -400 299 -400q181 0 280 100.5t126 299.5l137 979h195l-138 -979q-39 -271 -198.5 -422.5t-419.5 -151.5q-264 0 -388 152t-87 424zM666 1786q0 94 71.5 152.5t171.5 58.5q87 0 142 -44t55 -122q0 -94 -72.5 -155.5t-173.5 -61.5 q-84 0 -139 47.5t-55 124.5zM778 1792q0 -37 25.5 -58.5t68.5 -21.5q49 0 84 30.5t35 78.5q0 34 -26 55.5t-68 21.5q-52 0 -85.5 -30.5t-33.5 -75.5z" />
<glyph unicode="&#x16f;" horiz-adv-x="1130" d="M119 391l102 725h172l-98 -708q-19 -128 23.5 -194.5t170.5 -66.5q108 0 263 43l129 926h172l-129 -923q-18 -120 -138 -152q-185 -49 -331 -49q-200 0 -280.5 108.5t-55.5 290.5zM465 1403q0 108 72.5 177t173.5 69q84 0 138 -51t54 -140q0 -105 -74.5 -174.5 t-173.5 -69.5q-84 0 -137 51t-53 138zM571 1409q0 -49 25.5 -75.5t69.5 -26.5q54 0 92.5 41.5t38.5 103.5q0 46 -27 74t-70 28q-56 0 -92.5 -42.5t-36.5 -102.5z" />
<glyph unicode="&#x170;" horiz-adv-x="1390" d="M160 547l137 977h192l-135 -979q-56 -400 299 -400q181 0 280 100.5t126 299.5l137 979h195l-138 -979q-39 -271 -198.5 -422.5t-419.5 -151.5q-264 0 -388 152t-87 424zM596 1686q0 27 31 55l161 123h244l-289 -217q-35 -27 -77 -27q-32 0 -51 20t-19 46zM969 1681 q0 32 28 54l166 129h252l-303 -224q-34 -22 -74 -22q-33 0 -51 18t-18 45z" />
<glyph unicode="&#x171;" horiz-adv-x="1130" d="M119 391l102 725h172l-98 -708q-19 -128 23.5 -194.5t170.5 -66.5q108 0 263 43l129 926h172l-129 -923q-18 -120 -138 -152q-185 -49 -331 -49q-200 0 -280.5 108.5t-55.5 290.5zM401 1327q0 32 33 70l168 166h221l-286 -267q-36 -32 -72 -32q-32 0 -48 18.5t-16 44.5z M768 1315q0 31 33 69l174 179h221l-293 -279q-37 -33 -69 -33t-49 19t-17 45z" />
<glyph unicode="&#x172;" horiz-adv-x="1390" d="M160 547l137 977h192l-135 -979q-56 -400 299 -400q181 0 280 100.5t126 299.5l137 979h195l-138 -979q-51 -350 -290 -492q-111 -62 -111 -147q0 -78 109 -78q86 0 192 39l23 -113q-119 -47 -232 -47q-112 0 -174.5 43.5t-62.5 120.5q0 64 34 109q-50 -9 -106 -9 q-264 0 -388 152t-87 424z" />
<glyph unicode="&#x173;" horiz-adv-x="1130" d="M119 391l102 725h172l-98 -708q-19 -128 23.5 -194.5t170.5 -66.5q108 0 263 43l129 926h172l-129 -923q-18 -120 -138 -152l-49 -12q-102 -57 -102 -144q0 -78 108 -78q87 0 193 39l22 -112q-119 -47 -231 -47t-175 43t-63 120q0 86 74 148q-65 -6 -108 -6 q-200 0 -280.5 108.5t-55.5 290.5z" />
<glyph unicode="&#x174;" horiz-adv-x="1824" d="M242 98l16 1426h182l-28 -1291l514 1203q36 88 131 88q47 0 75.5 -22.5t32.5 -65.5l158 -1200l338 1288h188l-395 -1426q-13 -54 -52.5 -83t-96.5 -29q-119 0 -131 102l-154 1174l-504 -1176q-40 -100 -154 -100q-60 0 -91 29t-29 83zM698 1626l289 199q53 39 117 39 q68 0 110 -39l232 -199h-227l-125 113l-160 -113h-236z" />
<glyph unicode="&#x175;" horiz-adv-x="1576" d="M164 1116h182l29 -926l370 857q31 75 113 75t94 -75l129 -857l301 926h179l-361 -1032q-38 -104 -145 -104q-103 0 -115 96l-115 794l-350 -796q-42 -92 -143 -92q-110 0 -113 104zM524 1268l275 256q47 43 108 43q51 0 94 -43l203 -256h-203l-108 166l-148 -166h-221z " />
<glyph unicode="&#x176;" horiz-adv-x="1280" d="M188 1524h215l283 -688l459 688h221l-608 -871l-92 -653h-199l92 649zM406 1626l288 199q53 39 117 39q69 0 111 -39l231 -199h-227l-125 113l-160 -113h-235z" />
<glyph unicode="&#x177;" horiz-adv-x="1083" d="M-6 -342l39 145q92 -28 145 -28q64 0 102.5 31t67.5 98l27 59l-252 1153h194l177 -930l389 930h190l-567 -1261q-103 -230 -328 -230q-81 0 -184 33zM260 1270l275 256q47 43 108 43q51 0 94 -43l203 -256h-203l-108 166l-148 -166h-221z" />
<glyph unicode="&#x178;" horiz-adv-x="1280" d="M188 1524h215l283 -688l459 688h221l-608 -871l-92 -653h-199l92 649zM485 1720q0 66 38 106t98 40q47 0 73.5 -26t26.5 -71q0 -57 -37.5 -101t-97.5 -44q-47 0 -74 26t-27 70zM881 1720q0 66 37 106t96 40q47 0 73.5 -26t26.5 -71q0 -57 -37 -101t-96 -44 q-47 0 -73.5 25.5t-26.5 70.5z" />
<glyph unicode="&#x179;" horiz-adv-x="1230" d="M35 96q0 63 47 119l913 1151h-768l21 158h882q46 0 72.5 -26.5t26.5 -70.5q0 -64 -45 -118l-916 -1151h801l-18 -158h-918q-46 0 -72 26t-26 70zM676 1688q0 43 41 69l166 107h278l-336 -213q-46 -27 -80 -27t-51.5 19t-17.5 45z" />
<glyph unicode="&#x17a;" horiz-adv-x="1067" d="M53 90q0 61 43 107l705 782h-617l19 137h719q44 0 67 -24t23 -64q0 -62 -41 -106l-697 -781h623l-20 -141h-734q-42 0 -66 25t-24 65zM514 1341q0 36 37 68l164 154h248l-310 -258q-40 -31 -73 -31q-31 0 -48.5 20t-17.5 47z" />
<glyph unicode="&#x17b;" horiz-adv-x="1230" d="M35 96q0 63 47 119l913 1151h-768l21 158h882q46 0 72.5 -26.5t26.5 -70.5q0 -64 -45 -118l-916 -1151h801l-18 -158h-918q-46 0 -72 26t-26 70zM659 1720q0 66 38 107t100 41q47 0 74.5 -27t27.5 -72q0 -57 -38.5 -101t-98.5 -44q-49 0 -76 25.5t-27 70.5z" />
<glyph unicode="&#x17c;" horiz-adv-x="1067" d="M53 90q0 61 43 107l705 782h-617l19 137h719q44 0 67 -24t23 -64q0 -62 -41 -106l-697 -781h623l-20 -141h-734q-42 0 -66 25t-24 65zM535 1427q0 67 36 106.5t95 39.5q98 0 98 -98q0 -66 -37.5 -105t-93.5 -39q-47 0 -72.5 25t-25.5 71z" />
<glyph unicode="&#x17d;" horiz-adv-x="1230" d="M35 96q0 63 47 119l913 1151h-768l21 158h882q46 0 72.5 -26.5t26.5 -70.5q0 -64 -45 -118l-916 -1151h801l-18 -158h-918q-46 0 -72 26t-26 70zM410 1864h227l129 -113l154 113h237l-287 -201q-60 -39 -120 -39q-68 0 -107 39z" />
<glyph unicode="&#x17e;" horiz-adv-x="1067" d="M53 90q0 61 43 107l705 782h-617l19 137h719q44 0 67 -24t23 -64q0 -62 -41 -106l-697 -781h623l-20 -141h-734q-42 0 -66 25t-24 65zM334 1563h205l106 -166l150 166h217l-273 -256q-43 -43 -108 -43q-51 0 -94 43z" />
<glyph unicode="&#x192;" d="M258 -217q94 3 135 54.5t41 158.5v944h-172v160h172v108q0 175 87 267t247 92q74 0 238 -37l-27 -160q-132 33 -199 33q-90 0 -127 -48.5t-37 -160.5v-94h336v-160h-336v-950q0 -176 -93 -268.5t-265 -92.5v154z" />
<glyph unicode="&#x218;" horiz-adv-x="1232" d="M68 111l47 176l114 -45q217 -86 383 -86q146 0 231 61t85 191q0 163 -178 221l-281 90q-138 46 -210.5 143.5t-72.5 224.5q0 207 139 327t367 120q186 0 418 -82l107 -39l-50 -174l-114 41q-236 82 -369 82q-144 0 -224.5 -64t-80.5 -196q0 -160 176 -219l279 -92 q140 -47 214 -142.5t74 -226.5q0 -203 -144.5 -320.5t-375.5 -117.5q-196 0 -428 88zM362 -389.5q-17 34.5 5 80.5l96 209h196l-120 -252q-37 -72 -107 -72q-53 0 -70 34.5z" />
<glyph unicode="&#x219;" horiz-adv-x="1042" d="M53 78l45 149l80 -26q198 -64 330 -64q93 0 155 41t62 133q0 55 -34.5 89.5t-108.5 56.5l-191 53q-122 33 -181.5 100t-59.5 178q0 90 34.5 158t93.5 106.5t128.5 57t148.5 18.5q166 0 358 -65l76 -27l-43 -151l-84 26q-68 22 -104 33t-99 22t-122 11 q-101 0 -159.5 -42.5t-58.5 -133.5q0 -55 34.5 -90.5t109.5 -57.5l194 -51q121 -33 180.5 -99.5t59.5 -176.5q0 -89 -35.5 -157t-94.5 -106.5t-128.5 -57.5t-146.5 -19q-171 0 -363 65zM253.5 -389.5q-17.5 34.5 4.5 80.5l96 209h197l-121 -252q-37 -72 -106 -72 q-53 0 -70.5 34.5z" />
<glyph unicode="&#x237;" horiz-adv-x="489" d="M-162 -371l23 144q95 3 147.5 58t67.5 163l160 1122h174l-160 -1128q-24 -175 -132 -267t-280 -92z" />
<glyph unicode="&#x2c6;" horiz-adv-x="1060" d="M315 1268l275 256q47 43 108 43q52 0 95 -43l202 -256h-202l-109 166l-147 -166h-222z" />
<glyph unicode="&#x2c7;" horiz-adv-x="1060" d="M328 1563h204l107 -166l149 166h218l-273 -256q-43 -43 -108 -43q-52 0 -95 43z" />
<glyph unicode="&#x2d8;" horiz-adv-x="1060" d="M354 1563h156q-10 -78 32 -122t120 -44q77 0 132.5 45t65.5 121h156q-18 -134 -124.5 -217.5t-246.5 -83.5q-142 0 -225.5 83.5t-65.5 217.5z" />
<glyph unicode="&#x2d9;" horiz-adv-x="1060" d="M555 1427q0 67 36 106.5t95 39.5q98 0 98 -98q0 -66 -37.5 -105t-93.5 -39q-47 0 -72.5 25t-25.5 71z" />
<glyph unicode="&#x2da;" horiz-adv-x="1060" d="M455 1403q0 108 72 177t173 69q84 0 138.5 -51.5t54.5 -139.5q0 -105 -74.5 -174.5t-173.5 -69.5q-84 0 -137 51t-53 138zM561 1409q0 -49 25.5 -75.5t68.5 -26.5q54 0 92.5 41.5t38.5 103.5q0 46 -26.5 74t-69.5 28q-56 0 -92.5 -42.5t-36.5 -102.5z" />
<glyph unicode="&#x2db;" horiz-adv-x="1060" d="M272 -182q0 111 127 182l125 12l4 -12q-110 -61 -110 -147q0 -78 108 -78q87 0 193 39l22 -113q-119 -47 -231 -47t-175 43.5t-63 120.5z" />
<glyph unicode="&#x2dc;" horiz-adv-x="1060" d="M246 1352q52 110 123 163.5t143 53.5q88 0 152 -58l67 -61q44 -35 74 -35q77 0 147 137l105 -69q-52 -110 -124 -162.5t-145 -52.5q-87 0 -151 61l-66 57q-30 35 -73 35q-80 0 -148 -137z" />
<glyph unicode="&#x2dd;" horiz-adv-x="1060" d="M268 1327q0 32 33 70l168 166h221l-287 -267q-36 -32 -71 -32q-32 0 -48 18.5t-16 44.5zM635 1315q0 31 33 69l174 179h221l-293 -279q-37 -33 -70 -33q-32 0 -48.5 19t-16.5 45z" />
<glyph unicode="&#x3c0;" horiz-adv-x="1325" d="M49 963v153h1223v-153h-361v-603q0 -110 38 -159t128 -49q69 0 197 32l24 -161q-166 -35 -239 -35q-163 0 -246.5 90.5t-83.5 267.5v617h-326v-963h-184v963h-170z" />
<glyph unicode="&#x1e80;" horiz-adv-x="1824" d="M242 98l16 1426h182l-28 -1291l514 1203q36 88 131 88q47 0 75.5 -22.5t32.5 -65.5l158 -1200l338 1288h188l-395 -1426q-13 -54 -52.5 -83t-96.5 -29q-119 0 -131 102l-154 1174l-504 -1176q-40 -100 -154 -100q-60 0 -91 29t-29 83zM782 1864h275l153 -113 q29 -20 29 -55q0 -28 -21.5 -48t-54.5 -20q-34 0 -73 27z" />
<glyph unicode="&#x1e81;" horiz-adv-x="1576" d="M164 1116h182l29 -926l370 857q31 75 113 75t94 -75l129 -857l301 926h179l-361 -1032q-38 -104 -145 -104q-103 0 -115 96l-115 794l-350 -796q-42 -92 -143 -92q-110 0 -113 104zM602 1563h227l132 -158q26 -29 26 -62q0 -26 -19 -46.5t-53 -20.5q-26 0 -65 31z" />
<glyph unicode="&#x1e82;" horiz-adv-x="1824" d="M242 98l16 1426h182l-28 -1291l514 1203q36 88 131 88q47 0 75.5 -22.5t32.5 -65.5l158 -1200l338 1288h188l-395 -1426q-13 -54 -52.5 -83t-96.5 -29q-119 0 -131 102l-154 1174l-504 -1176q-40 -100 -154 -100q-60 0 -91 29t-29 83zM936 1688q0 43 41 69l166 107h278 l-336 -213q-46 -27 -79 -27q-34 0 -52 19t-18 45z" />
<glyph unicode="&#x1e83;" horiz-adv-x="1576" d="M164 1116h182l29 -926l370 857q31 75 113 75t94 -75l129 -857l301 926h179l-361 -1032q-38 -104 -145 -104q-103 0 -115 96l-115 794l-350 -796q-42 -92 -143 -92q-110 0 -113 104zM729 1341q0 36 37 68l164 154h248l-310 -258q-40 -31 -73 -31q-31 0 -48.5 20t-17.5 47z " />
<glyph unicode="&#x1e84;" horiz-adv-x="1824" d="M242 98l16 1426h182l-28 -1291l514 1203q36 88 131 88q47 0 75.5 -22.5t32.5 -65.5l158 -1200l338 1288h188l-395 -1426q-13 -54 -52.5 -83t-96.5 -29q-119 0 -131 102l-154 1174l-504 -1176q-40 -100 -154 -100q-60 0 -91 29t-29 83zM784 1720q0 66 38 106t98 40 q47 0 73.5 -26t26.5 -71q0 -57 -37.5 -101t-97.5 -44q-47 0 -74 26t-27 70zM1180 1720q0 66 37 106t96 40q47 0 73.5 -26t26.5 -71q0 -57 -37 -101t-96 -44q-47 0 -73.5 25.5t-26.5 70.5z" />
<glyph unicode="&#x1e85;" horiz-adv-x="1576" d="M164 1116h182l29 -926l370 857q31 75 113 75t94 -75l129 -857l301 926h179l-361 -1032q-38 -104 -145 -104q-103 0 -115 96l-115 794l-350 -796q-42 -92 -143 -92q-110 0 -113 104zM586 1427q0 67 35 106.5t92 39.5q96 0 96 -98q0 -65 -36 -104.5t-91 -39.5q-46 0 -71 25 t-25 71zM977 1427q0 67 35.5 106.5t93.5 39.5q94 0 94 -98q0 -66 -36 -105t-91 -39q-45 0 -70.5 25.5t-25.5 70.5z" />
<glyph unicode="&#x1ef2;" horiz-adv-x="1294" d="M188 1524h215l283 -688l459 688h221l-608 -871l-92 -653h-199l92 649zM453 1864h274l154 -113q28 -20 28 -55q0 -28 -21 -48t-54 -20q-35 0 -74 27z" />
<glyph unicode="&#x1ef3;" horiz-adv-x="1093" d="M-6 -342l39 145q92 -28 145 -28q64 0 102.5 31t67.5 98l27 59l-252 1153h194l177 -930l389 930h190l-567 -1261q-103 -230 -328 -230q-81 0 -184 33zM309 1563h228l131 -158q26 -29 26 -62q0 -26 -18.5 -46.5t-52.5 -20.5q-27 0 -66 31z" />
<glyph unicode="&#x2000;" horiz-adv-x="998" />
<glyph unicode="&#x2001;" horiz-adv-x="1997" />
<glyph unicode="&#x2002;" horiz-adv-x="998" />
<glyph unicode="&#x2003;" horiz-adv-x="1997" />
<glyph unicode="&#x2004;" horiz-adv-x="665" />
<glyph unicode="&#x2005;" horiz-adv-x="499" />
<glyph unicode="&#x2006;" horiz-adv-x="332" />
<glyph unicode="&#x2007;" horiz-adv-x="332" />
<glyph unicode="&#x2008;" horiz-adv-x="249" />
<glyph unicode="&#x2009;" horiz-adv-x="399" />
<glyph unicode="&#x200a;" horiz-adv-x="110" />
<glyph unicode="&#x2010;" horiz-adv-x="776" d="M127 555l20 162h572l-23 -162h-569z" />
<glyph unicode="&#x2011;" horiz-adv-x="776" d="M127 555l20 162h572l-23 -162h-569z" />
<glyph unicode="&#x2012;" horiz-adv-x="1093" d="M123 551l20 158h897l-22 -158h-895z" />
<glyph unicode="&#x2013;" horiz-adv-x="1093" d="M123 551l20 158h897l-22 -158h-895z" />
<glyph unicode="&#x2014;" horiz-adv-x="1853" d="M127 551l20 156h1647l-20 -156h-1647z" />
<glyph unicode="&#x2018;" horiz-adv-x="460" d="M156 1092l153 403q24 68 99 68q45 0 63.5 -32t5.5 -75l-133 -364h-188z" />
<glyph unicode="&#x2019;" horiz-adv-x="460" d="M160 1188l139 375h188l-157 -414q-24 -68 -101 -68q-45 0 -63.5 32t-5.5 75z" />
<glyph unicode="&#x201a;" horiz-adv-x="456" d="M-12 -143l133 376h190l-155 -415q-24 -68 -101 -68q-44 0 -62 32t-5 75z" />
<glyph unicode="&#x201c;" horiz-adv-x="794" d="M147 1090l154 405q24 68 98 68q44 0 62 -31.5t4 -75.5l-133 -366h-185zM520 1090l156 405q24 68 96 68q44 0 62 -31.5t4 -75.5l-131 -366h-187z" />
<glyph unicode="&#x201d;" horiz-adv-x="794" d="M162 1188l135 375h186l-157 -414q-25 -70 -99 -70q-44 0 -61.5 31.5t-3.5 77.5zM535 1188l137 375h184l-158 -414q-24 -70 -98 -70q-45 0 -61.5 31.5t-3.5 77.5z" />
<glyph unicode="&#x201e;" horiz-adv-x="792" d="M-16 -154l137 387h184l-158 -426q-25 -69 -98 -69q-44 0 -61 31.5t-4 76.5zM356 -154l138 387h184l-158 -426q-25 -69 -98 -69q-44 0 -61.5 31t-4.5 77z" />
<glyph unicode="&#x2020;" d="M182 840l31 213l373 -33l37 504h211l-105 -504l379 33l-31 -213l-370 37l-144 -1258h-209l215 1258z" />
<glyph unicode="&#x2021;" d="M76 92l28 213l388 -35l-7 297l93 310l-398 -37l31 213l371 -35l36 506h211l-104 -506l379 35l-31 -213l-383 37l6 -310l-90 -297l391 35l-28 -213l-367 37l-41 -510h-209l107 510z" />
<glyph unicode="&#x2022;" horiz-adv-x="835" d="M207 682q0 128 65 199t181 71t180.5 -70.5t64.5 -199.5q0 -127 -64.5 -197.5t-180.5 -70.5t-181 70.5t-65 197.5z" />
<glyph unicode="&#x2026;" horiz-adv-x="1218" d="M63 82q0 68 35.5 107.5t94.5 39.5q98 0 98 -100q0 -67 -36.5 -105t-92.5 -38q-47 0 -73 25t-26 71zM469 82q0 68 36 107.5t95 39.5q98 0 98 -100q0 -67 -37.5 -105t-93.5 -38q-47 0 -72.5 25t-25.5 71zM877 82q0 68 35 107.5t94 39.5q98 0 98 -100q0 -67 -36.5 -105 t-92.5 -38q-47 0 -72.5 25t-25.5 71z" />
<glyph unicode="&#x202f;" horiz-adv-x="399" />
<glyph unicode="&#x2030;" horiz-adv-x="1863" d="M94 0l979 1524h154l-977 -1524h-156zM135 1047l33 245q17 117 87 180.5t187 63.5q116 0 169 -67t36 -185l-35 -242q-31 -245 -266 -245q-118 0 -173 67t-38 183zM270 1044q-16 -131 86 -131q105 0 121 131l35 242q19 131 -84 131q-104 0 -123 -131zM674 240l35 247 q17 117 86 179.5t186 62.5t170.5 -67t36.5 -185l-33 -241q-39 -246 -268 -246q-117 0 -172.5 66.5t-40.5 183.5zM813 240q-19 -131 84 -131q104 0 123 131l33 241q16 131 -86 131q-53 0 -83 -34.5t-38 -96.5zM1266 240l37 247q15 116 84.5 179t185.5 63q117 0 170.5 -66.5 t38.5 -185.5l-35 -241q-36 -246 -268 -246q-117 0 -172.5 66.5t-40.5 183.5zM1405 240q-19 -131 84 -131q104 0 123 131l33 241q19 131 -84 131t-123 -131z" />
<glyph unicode="&#x2039;" horiz-adv-x="704" d="M90 561q0 57 60 117l299 287h219l-408 -396l332 -381h-211l-254 285q-37 40 -37 88z" />
<glyph unicode="&#x203a;" horiz-adv-x="702" d="M59 188l408 394l-332 383h209l256 -287q35 -35 35 -86q0 -62 -57 -119l-299 -285h-220z" />
<glyph unicode="&#x2044;" horiz-adv-x="40" d="M-547 0l981 1524h154l-979 -1524h-156z" />
<glyph unicode="&#x205f;" horiz-adv-x="499" />
<glyph unicode="&#x2070;" horiz-adv-x="612" d="M168 1245l37 248q17 117 85.5 179.5t184.5 62.5q117 0 170.5 -66.5t38.5 -185.5l-35 -242q-36 -246 -268 -246q-118 0 -174 67t-39 183zM307 1245q-19 -131 84 -131q104 0 123 131l33 242q19 131 -84 131t-123 -131z" />
<glyph unicode="&#x2074;" horiz-adv-x="612" d="M135 1186q0 39 29 71l336 429q40 49 96 49q81 0 72 -80l-60 -414h76l-14 -113h-76l-16 -122h-129l16 122h-266q-30 0 -47 16t-17 42zM305 1241h172l39 277z" />
<glyph unicode="&#x2075;" horiz-adv-x="612" d="M141 1051l33 118l66 -20q98 -31 149 -31q66 0 102.5 40t36.5 106q0 104 -112 104q-42 0 -115 -18l-96 -27l59 401h438l-18 -120h-313l-19 -131q44 12 99 12q215 0 215 -209q0 -127 -76.5 -203t-200.5 -76q-101 0 -186 31z" />
<glyph unicode="&#x2076;" horiz-adv-x="612" d="M172 1251l33 250q15 106 87 169t183 63q69 0 180 -29l60 -18l-35 -119l-70 20q-95 27 -141 27q-107 0 -125 -117l-4 -31q71 19 115 19q219 0 219 -195q0 -118 -80 -204.5t-203 -86.5q-117 0 -175.5 70t-43.5 182zM311 1253q-9 -64 15 -99.5t80 -35.5q57 0 94 45t37 109 q0 92 -111 92q-40 0 -102 -14z" />
<glyph unicode="&#x2077;" horiz-adv-x="612" d="M219 1606l19 118h417q70 0 70 -59q0 -25 -18 -66l-334 -593h-148l338 600h-344z" />
<glyph unicode="&#x2078;" horiz-adv-x="612" d="M150 1182q0 92 75 155l41 35l-22 37q-31 57 -31 109q0 99 69 158t187 59q105 0 164 -48t59 -131q0 -82 -59 -147l-31 -37l23 -35q41 -67 41 -120q0 -101 -76 -161.5t-201 -60.5q-110 0 -174.5 50.5t-64.5 136.5zM287 1192q0 -36 28.5 -57t83.5 -21q65 0 97 26.5t32 71.5 q0 29 -22 60l-31 39h-113l-38 -39q-37 -43 -37 -80zM346 1524q0 -21 19 -64l22 -37h107l28 35q37 47 37 88q0 31 -24.5 50.5t-73.5 19.5q-58 0 -86.5 -26t-28.5 -66z" />
<glyph unicode="&#x2079;" horiz-adv-x="612" d="M150 1047l34 118l68 -20q84 -25 143 -25q107 0 125 115l4 33q-64 -21 -114 -21q-220 0 -220 195q0 119 80 205t203 86q118 0 177.5 -70t41.5 -182l-33 -248q-15 -106 -87 -170t-183 -64q-76 0 -178 31zM330 1460q0 -92 108 -92q32 0 103 16l14 97q8 63 -16 99t-80 36 q-57 0 -93 -45.5t-36 -110.5z" />
<glyph unicode="&#x207a;" horiz-adv-x="612" d="M178 1262v114h178v191h129v-191h181v-114h-181v-193h-129v193h-178z" />
<glyph unicode="&#x207b;" horiz-adv-x="612" d="M180 1262v116h484v-116h-484z" />
<glyph unicode="&#x207c;" horiz-adv-x="612" d="M178 1174v112h488v-112h-488zM178 1350v116h488v-116h-488z" />
<glyph unicode="&#x207d;" horiz-adv-x="337" d="M150 1219q0 232 90.5 371t242.5 139l-16 -111q-28 0 -57.5 -22t-58 -66t-46.5 -125t-18 -186q0 -54 9.5 -89.5t26.5 -51.5t31 -21.5t33 -7.5l-14 -111q-41 0 -77 12t-70.5 40.5t-55 87t-20.5 141.5z" />
<glyph unicode="&#x207e;" horiz-adv-x="337" d="M92 938l14 111q28 0 58 22t59 66t47.5 125.5t18.5 185.5q0 54 -9.5 89.5t-27 51.5t-31.5 21.5t-33 7.5l15 111q41 0 77 -12t70.5 -40.5t55 -87t20.5 -141.5q0 -232 -91 -371t-243 -139z" />
<glyph unicode="&#x207f;" horiz-adv-x="794" d="M158 844l75 551q6 40 34.5 67.5t70.5 38.5q121 29 213 29q135 0 191 -68t40 -180l-61 -438h-143l61 428q8 63 -17 97t-98 34q-54 0 -147 -21l-76 -538h-143z" />
<glyph unicode="&#x2080;" horiz-adv-x="612" d="M-2 35l37 248q17 117 85.5 179t184.5 62q117 0 170.5 -66.5t38.5 -185.5l-35 -241q-36 -246 -268 -246q-118 0 -174 67t-39 183zM137 35q-19 -131 84 -131q104 0 123 131l33 241q19 132 -84 132t-123 -132z" />
<glyph unicode="&#x2081;" horiz-adv-x="612" d="M-39 -205l16 119h203l66 479h-21q-61 0 -121 -28l-22 118q76 31 160 31h67q46 0 67.5 -23t16.5 -65l-71 -512h161l-16 -119h-506z" />
<glyph unicode="&#x2082;" horiz-adv-x="612" d="M-29 -145q0 41 39 77l264 215q59 46 84 85t25 92q0 79 -96 79q-60 0 -156 -30l-70 -21l-16 117l64 20q104 35 192 35q99 0 159 -47t60 -143q0 -73 -34 -136t-121 -130l-197 -156h297l-14 -117h-414q-32 0 -49 16t-17 44z" />
<glyph unicode="&#x2083;" horiz-adv-x="612" d="M-35 -160l37 121l66 -20q98 -35 165 -35q121 0 121 102q0 29 -22 58l-29 34h-145l16 115h143l31 35q35 44 35 82q0 71 -92 71q-70 0 -156 -28l-69 -23l-17 119l66 21q97 32 188 32q103 0 159 -46t56 -128q0 -83 -59 -151l-33 -37l27 -35q41 -49 41 -115q0 -103 -73 -164 t-190 -61q-90 0 -202 33z" />
<glyph unicode="&#x2084;" horiz-adv-x="612" d="M-35 -25q0 40 29 72l336 428q40 49 96 49q81 0 72 -80l-60 -413h76l-14 -113h-76l-16 -123h-129l16 123h-266q-30 0 -47 16t-17 41zM135 31h172l39 276z" />
<glyph unicode="&#x2085;" horiz-adv-x="612" d="M-29 -160l33 119l66 -20q98 -31 149 -31q66 0 102.5 39.5t36.5 105.5q0 105 -112 105q-37 0 -115 -19l-96 -26l59 401h438l-18 -121h-313l-19 -131q43 12 99 12q215 0 215 -208q0 -127 -76.5 -203t-200.5 -76q-101 0 -186 31z" />
<glyph unicode="&#x2086;" horiz-adv-x="612" d="M2 41l33 250q15 106 87 168.5t183 62.5q73 0 180 -28l60 -19l-35 -119l-70 21q-91 26 -141 26q-107 0 -125 -116l-4 -31q68 18 115 18q219 0 219 -194q0 -118 -80 -204.5t-203 -86.5q-117 0 -175.5 70t-43.5 182zM141 43q-9 -64 15 -99.5t80 -35.5q57 0 94 44.5t37 108.5 q0 93 -111 93q-36 0 -102 -15z" />
<glyph unicode="&#x2087;" horiz-adv-x="612" d="M49 395l19 119h417q70 0 70 -59q0 -25 -18 -66l-334 -594h-148l338 600h-344z" />
<glyph unicode="&#x2088;" horiz-adv-x="612" d="M-20 -29q0 93 75 156l41 35l-22 37q-31 57 -31 108q0 99 69 158t187 59q105 0 164 -48t59 -130t-59 -147l-31 -37l23 -35q41 -67 41 -121q0 -101 -76 -161t-201 -60q-110 0 -174.5 50t-64.5 136zM117 -18q0 -36 28.5 -57t83.5 -21q65 0 97 26.5t32 71.5q0 28 -22 59 l-31 39h-112l-39 -39q-37 -43 -37 -79zM176 313q0 -20 19 -63l22 -37h107l28 35q37 47 37 88q0 31 -24.5 50.5t-73.5 19.5q-58 0 -86.5 -26.5t-28.5 -66.5z" />
<glyph unicode="&#x2089;" horiz-adv-x="612" d="M-20 -164l34 119l68 -21q81 -24 143 -24q107 0 125 115l4 32q-61 -20 -114 -20q-220 0 -220 194q0 119 80 205t203 86q118 0 177.5 -70t41.5 -182l-33 -247q-15 -106 -87 -170t-183 -64q-76 0 -178 31zM160 250q0 -92 108 -92q32 0 103 16l14 96q8 63 -16 99.5t-80 36.5 q-57 0 -93 -45.5t-36 -110.5z" />
<glyph unicode="&#x208d;" horiz-adv-x="337" d="M-20 8q0 232 90.5 371t242.5 139l-16 -110q-28 0 -57.5 -22t-58 -66.5t-46.5 -125.5t-18 -186q0 -54 9.5 -89.5t26.5 -51.5t31 -21.5t33 -7.5l-14 -110q-41 0 -77 11.5t-70.5 40t-55 87t-20.5 141.5z" />
<glyph unicode="&#x208e;" horiz-adv-x="337" d="M-78 -272l15 110q28 0 57.5 22t58.5 66.5t47.5 125.5t18.5 186q0 54 -9.5 89.5t-27 51.5t-31.5 21.5t-33 7.5l15 110q41 0 77 -11.5t70.5 -40t55 -87t20.5 -141.5q0 -232 -91 -371t-243 -139z" />
<glyph unicode="&#x20ac;" d="M78 551l20 139h138l22 154h-139l18 137h139q41 284 183.5 422.5t359.5 138.5q109 0 281 -51l80 -27l-37 -157l-80 26q-152 47 -244 47q-153 0 -242.5 -92.5t-119.5 -306.5h440l-18 -137h-443l-20 -154h440l-20 -139h-441q-27 -210 37 -305.5t215 -95.5q87 0 256 47l86 24 l25 -155l-86 -25q-194 -57 -299 -57q-222 0 -335.5 146t-76.5 421h-139z" />
<glyph unicode="&#x2113;" horiz-adv-x="800" d="M31 434l151 115v244q0 127 16 234t49 192.5t88.5 133.5t129.5 48q91 0 138.5 -75t47.5 -181q0 -108 -41.5 -210.5t-105 -184t-160.5 -172.5v-168q0 -185 46.5 -257.5t141.5 -72.5q130 0 230 149l39 -34q-128 -220 -342 -220q-70 0 -118.5 16t-85.5 55.5t-55 110 t-18 175.5v147l-125 -92zM344 662q91 106 146 229t55 248q0 86 -26 143t-73 57q-57 0 -79.5 -98t-22.5 -330v-249z" />
<glyph unicode="&#x2122;" horiz-adv-x="1777" d="M203 1401v123h618v-123h-235v-721h-148v721h-235zM948 680v764q0 43 28 66.5t71 23.5q90 0 108 -74l174 -579l176 575q9 35 38 53.5t71 18.5q46 0 71 -21t25 -61v-766h-129v608l-176 -557q-17 -51 -78 -51q-63 0 -78 51l-174 553v-604h-127z" />
<glyph unicode="&#x2126;" horiz-adv-x="1499" d="M45 0l21 150h366q-17 10 -39 26t-71 65.5t-85.5 107.5t-66 153t-29.5 200q0 177 58 332t157.5 264t234.5 171.5t286 62.5q254 0 405.5 -154t151.5 -436q0 -112 -23.5 -215.5t-58.5 -178.5t-83.5 -143t-90.5 -109.5t-87.5 -77t-66.5 -48.5t-35 -20h350l-18 -150h-453 q-86 0 -86 86q0 33 19 65.5t49 51.5q79 46 147 115t124 159.5t88 209t32 249.5q0 216 -101 327t-282 111q-145 0 -266 -90t-190.5 -248t-69.5 -348q0 -98 19.5 -177t57 -136.5t77.5 -96.5t94 -77q38 -27 38 -80q0 -58 -29 -89.5t-83 -31.5h-461z" />
<glyph unicode="&#x212e;" horiz-adv-x="1560" d="M59 627q0 175 96.5 324t262.5 236t360 87q149 0 283.5 -53t230 -142.5t151.5 -212.5t56 -258h-1165q-10 0 -10 -8v-352q0 -23 16 -39q156 -162 440 -162q304 0 463 184h105q-98 -116 -248.5 -182.5t-321.5 -66.5q-194 0 -360 86.5t-262.5 235t-96.5 323.5zM324 686 q0 -12 10 -12h893q8 0 8 12v324q0 23 -18 41q-166 163 -437 163t-438 -170q-18 -15 -18 -43v-315z" />
<glyph unicode="&#x2153;" horiz-adv-x="1271" d="M76 805l16 119h203l65 479h-20q-59 0 -121 -29l-22 119q76 31 159 31h68q46 0 67.5 -23t16.5 -65l-72 -512h162l-16 -119h-506zM106 0l981 1524h154l-979 -1524h-156zM653 45l37 121l66 -21q96 -34 166 -34q120 0 120 102q0 28 -22 57l-29 35h-145l16 115h144l30 35 q35 44 35 82q0 71 -92 71q-70 0 -156 -28l-69 -23l-17 119l66 20q100 33 188 33q103 0 159 -46t56 -128q0 -84 -59 -152l-33 -36l27 -35q41 -49 41 -115q0 -103 -72.5 -164t-189.5 -61q-91 0 -203 33z" />
<glyph unicode="&#x2154;" horiz-adv-x="1271" d="M86 864q0 42 39 78l264 215q59 46 84 85t25 91q0 80 -97 80q-56 0 -155 -31l-70 -20l-16 117l63 20q104 35 193 35q98 0 158.5 -47.5t60.5 -143.5q0 -73 -34.5 -136t-121.5 -130l-196 -155h297l-15 -117h-413q-66 0 -66 59zM100 0l981 1524h154l-979 -1524h-156zM653 45 l37 121l66 -21q96 -34 166 -34q120 0 120 102q0 28 -22 57l-29 35h-145l16 115h144l30 35q35 44 35 82q0 71 -92 71q-70 0 -156 -28l-69 -23l-17 119l66 20q100 33 188 33q103 0 159 -46t56 -128q0 -84 -59 -152l-33 -36l27 -35q41 -49 41 -115q0 -103 -72.5 -164 t-189.5 -61q-91 0 -203 33z" />
<glyph unicode="&#x2155;" horiz-adv-x="1271" d="M76 805l16 119h203l65 479h-20q-59 0 -121 -29l-22 119q76 31 159 31h68q46 0 67.5 -23t16.5 -65l-72 -512h162l-16 -119h-506zM113 0l981 1524h153l-979 -1524h-155zM659 45l33 119l66 -21q95 -30 149 -30q66 0 103 39.5t37 105.5q0 104 -113 104q-42 0 -115 -18 l-96 -27l59 402h439l-19 -121h-313l-19 -131q44 12 99 12q215 0 215 -209q0 -127 -76.5 -202.5t-200.5 -75.5q-101 0 -186 31z" />
<glyph unicode="&#x2156;" horiz-adv-x="1271" d="M86 864q0 42 39 78l264 215q59 46 84 85t25 91q0 80 -97 80q-56 0 -155 -31l-70 -20l-16 117l63 20q104 35 193 35q98 0 158.5 -47.5t60.5 -143.5q0 -73 -34.5 -136t-121.5 -130l-196 -155h297l-15 -117h-413q-66 0 -66 59zM100 0l981 1524h154l-979 -1524h-156zM659 45 l33 119l66 -21q95 -30 149 -30q66 0 103 39.5t37 105.5q0 104 -113 104q-42 0 -115 -18l-96 -27l59 402h439l-19 -121h-313l-19 -131q44 12 99 12q215 0 215 -209q0 -127 -76.5 -202.5t-200.5 -75.5q-101 0 -186 31z" />
<glyph unicode="&#x2157;" horiz-adv-x="1271" d="M80 850l37 121l65 -21q98 -35 166 -35q121 0 121 103q0 26 -23 57l-28 35h-146l17 115h143l31 35q35 44 35 81q0 72 -92 72q-67 0 -156 -29l-70 -22l-16 119l65 20q100 33 189 33q103 0 159 -46t56 -128q0 -83 -60 -152l-32 -37l26 -34q41 -49 41 -115q0 -103 -72.5 -164 t-189.5 -61q-94 0 -203 32zM84 0l981 1524h154l-979 -1524h-156zM659 45l33 119l66 -21q95 -30 149 -30q66 0 103 39.5t37 105.5q0 104 -113 104q-42 0 -115 -18l-96 -27l59 402h439l-19 -121h-313l-19 -131q44 12 99 12q215 0 215 -209q0 -127 -76.5 -202.5t-200.5 -75.5 q-101 0 -186 31z" />
<glyph unicode="&#x2158;" horiz-adv-x="1271" d="M80 985q0 40 29 72l335 428q40 49 97 49q80 0 71 -80l-59 -414h76l-15 -112h-75l-17 -123h-129l17 123h-267q-30 0 -46.5 15.5t-16.5 41.5zM92 0l981 1524h154l-979 -1524h-156zM250 1040h172l39 277zM659 45l33 119l66 -21q95 -30 149 -30q66 0 103 39.5t37 105.5 q0 104 -113 104q-42 0 -115 -18l-96 -27l59 402h439l-19 -121h-313l-19 -131q44 12 99 12q215 0 215 -209q0 -127 -76.5 -202.5t-200.5 -75.5q-101 0 -186 31z" />
<glyph unicode="&#x2159;" horiz-adv-x="1271" d="M76 805l16 119h203l65 479h-20q-59 0 -121 -29l-22 119q76 31 159 31h68q46 0 67.5 -23t16.5 -65l-72 -512h162l-16 -119h-506zM125 0l981 1524h154l-979 -1524h-156zM690 246l33 250q15 106 87 168.5t183 62.5q70 0 181 -29l59 -18l-35 -119l-70 21q-91 26 -141 26 q-107 0 -125 -116l-4 -31q68 18 115 18q219 0 219 -194q0 -118 -80 -204.5t-203 -86.5q-117 0 -175.5 70t-43.5 182zM829 248q-9 -64 15 -99.5t80 -35.5q57 0 94 44.5t37 108.5q0 92 -111 92q-40 0 -102 -14z" />
<glyph unicode="&#x215a;" horiz-adv-x="1271" d="M86 850l33 119l65 -21q95 -30 150 -30q66 0 102.5 39.5t36.5 105.5q0 104 -113 104q-40 0 -114 -18l-96 -27l59 402h438l-18 -121h-314l-18 -131q43 12 98 12q215 0 215 -209q0 -127 -76 -202.5t-200 -75.5q-105 0 -187 30zM98 0l981 1524h154l-979 -1524h-156zM690 246 l33 250q15 106 87 168.5t183 62.5q70 0 181 -29l59 -18l-35 -119l-70 21q-91 26 -141 26q-107 0 -125 -116l-4 -31q68 18 115 18q219 0 219 -194q0 -118 -80 -204.5t-203 -86.5q-117 0 -175.5 70t-43.5 182zM829 248q-9 -64 15 -99.5t80 -35.5q57 0 94 44.5t37 108.5 q0 92 -111 92q-40 0 -102 -14z" />
<glyph unicode="&#x215b;" horiz-adv-x="1271" d="M76 805l16 119h203l65 479h-20q-59 0 -121 -29l-22 119q76 31 159 31h68q46 0 67.5 -23t16.5 -65l-72 -512h162l-16 -119h-506zM113 0l981 1524h153l-979 -1524h-155zM668 176q0 93 75 156l41 35l-22 36q-31 57 -31 109q0 99 69 158t187 59q105 0 164 -48t59 -130 q0 -83 -59 -148l-31 -36l23 -35q41 -67 41 -121q0 -101 -76 -161t-201 -60q-110 0 -174.5 50t-64.5 136zM805 186q0 -36 28.5 -56.5t84.5 -20.5q65 0 97 26.5t32 71.5q0 26 -23 59l-31 39h-112l-39 -39q-37 -43 -37 -80zM864 518q0 -20 19 -63l22 -37h107l28 35q37 47 37 88 q0 31 -24.5 50t-73.5 19q-58 0 -86.5 -26t-28.5 -66z" />
<glyph unicode="&#x215c;" horiz-adv-x="1271" d="M80 850l37 121l65 -21q98 -35 166 -35q121 0 121 103q0 26 -23 57l-28 35h-146l17 115h143l31 35q35 44 35 81q0 72 -92 72q-67 0 -156 -29l-70 -22l-16 119l65 20q100 33 189 33q103 0 159 -46t56 -128q0 -83 -60 -152l-32 -37l26 -34q41 -49 41 -115q0 -103 -72.5 -164 t-189.5 -61q-94 0 -203 32zM98 0l981 1524h154l-979 -1524h-156zM668 176q0 93 75 156l41 35l-22 36q-31 57 -31 109q0 99 69 158t187 59q105 0 164 -48t59 -130q0 -83 -59 -148l-31 -36l23 -35q41 -67 41 -121q0 -101 -76 -161t-201 -60q-110 0 -174.5 50t-64.5 136z M805 186q0 -36 28.5 -56.5t84.5 -20.5q65 0 97 26.5t32 71.5q0 26 -23 59l-31 39h-112l-39 -39q-37 -43 -37 -80zM864 518q0 -20 19 -63l22 -37h107l28 35q37 47 37 88q0 31 -24.5 50t-73.5 19q-58 0 -86.5 -26t-28.5 -66z" />
<glyph unicode="&#x215d;" horiz-adv-x="1271" d="M86 850l33 119l65 -21q95 -30 150 -30q66 0 102.5 39.5t36.5 105.5q0 104 -113 104q-40 0 -114 -18l-96 -27l59 402h438l-18 -121h-314l-18 -131q43 12 98 12q215 0 215 -209q0 -127 -76 -202.5t-200 -75.5q-105 0 -187 30zM98 0l981 1524h154l-979 -1524h-156zM668 176 q0 93 75 156l41 35l-22 36q-31 57 -31 109q0 99 69 158t187 59q105 0 164 -48t59 -130q0 -83 -59 -148l-31 -36l23 -35q41 -67 41 -121q0 -101 -76 -161t-201 -60q-110 0 -174.5 50t-64.5 136zM805 186q0 -36 28.5 -56.5t84.5 -20.5q65 0 97 26.5t32 71.5q0 26 -23 59 l-31 39h-112l-39 -39q-37 -43 -37 -80zM864 518q0 -20 19 -63l22 -37h107l28 35q37 47 37 88q0 31 -24.5 50t-73.5 19q-58 0 -86.5 -26t-28.5 -66z" />
<glyph unicode="&#x215e;" horiz-adv-x="1271" d="M68 0l981 1524h153l-979 -1524h-155zM164 1405l18 119h418q70 0 70 -60q0 -21 -19 -65l-334 -594h-147l338 600h-344zM668 176q0 93 75 156l41 35l-22 36q-31 57 -31 109q0 99 69 158t187 59q105 0 164 -48t59 -130q0 -83 -59 -148l-31 -36l23 -35q41 -67 41 -121 q0 -101 -76 -161t-201 -60q-110 0 -174.5 50t-64.5 136zM805 186q0 -36 28.5 -56.5t84.5 -20.5q65 0 97 26.5t32 71.5q0 26 -23 59l-31 39h-112l-39 -39q-37 -43 -37 -80zM864 518q0 -20 19 -63l22 -37h107l28 35q37 47 37 88q0 31 -24.5 50t-73.5 19q-58 0 -86.5 -26 t-28.5 -66z" />
<glyph unicode="&#x215f;" horiz-adv-x="634" d="M76 805l16 119h203l65 479h-20q-59 0 -121 -29l-22 119q76 31 159 31h68q46 0 67.5 -23t16.5 -65l-72 -512h162l-16 -119h-506zM102 0l981 1524h154l-979 -1524h-156z" />
<glyph unicode="&#x2202;" horiz-adv-x="1173" d="M119 489q0 234 120.5 362t344.5 128q116 0 284 -57v129q0 149 -66.5 234t-207.5 85q-113 0 -330 -65l-84 -27l-33 162l86 26q230 70 369 70q208 0 329.5 -134t121.5 -351v-549q0 -232 -128 -373t-343 -141q-219 0 -341 139t-122 362zM307 487q0 -156 69 -244.5t202 -88.5 q142 0 216 93.5t74 260.5v252q-182 49 -262 49q-161 0 -230 -85t-69 -237z" />
<glyph unicode="&#x2206;" d="M33 0l413 1434q27 104 140 104q51 0 88.5 -26t50.5 -76l414 -1436h-1106zM260 156h651l-331 1144z" />
<glyph unicode="&#x220f;" horiz-adv-x="1277" d="M61 1364v160h1168v-160h-211v-1364h-197v1364h-350v-1364h-197v1364h-213z" />
<glyph unicode="&#x2211;" d="M74 -246q0 56 30 99l467 725l-467 727q-30 43 -30 98q0 53 30 87t84 34h887v-369h-166v203h-624l495 -778l-495 -781h643v221h168v-387h-908q-54 0 -84 34t-30 87z" />
<glyph unicode="&#x2212;" d="M117 522v168h930v-168h-930z" />
<glyph unicode="&#x2215;" horiz-adv-x="40" d="M-547 0l981 1524h154l-979 -1524h-156z" />
<glyph unicode="&#x2219;" horiz-adv-x="765" d="M303 723q0 68 35.5 107.5t93.5 39.5q98 0 98 -100q0 -67 -36.5 -106t-92.5 -39q-47 0 -72.5 26t-25.5 72z" />
<glyph unicode="&#x221a;" d="M18 965v151h312l221 -870l305 1278h307v-152h-164l-329 -1298q-13 -48 -46 -72.5t-77 -24.5t-77.5 25.5t-45.5 71.5l-246 891h-160z" />
<glyph unicode="&#x221e;" horiz-adv-x="1632" d="M98 608q0 200 96 319.5t277 119.5q118 0 219 -52l135 -69l140 69q101 52 219 52q180 0 276 -119.5t96 -319.5q0 -195 -97.5 -316.5t-274.5 -121.5q-122 0 -219 51l-136 72l-139 -72q-97 -51 -219 -51q-178 0 -275.5 121.5t-97.5 316.5zM260 608q0 -140 59 -211t156 -71 q80 0 164 36l106 48v399l-106 45q-78 37 -164 37q-99 0 -157 -70t-58 -213zM909 410l107 -48q84 -36 164 -36q97 0 156 71t59 211q0 143 -58 213t-157 70q-86 0 -164 -37l-107 -45v-399z" />
<glyph unicode="&#x222b;" d="M266 -217q94 3 134 54t40 159v1210q0 175 88 268t246 93q77 0 238 -37l-25 -160q-135 33 -201 33q-89 0 -126 -49t-37 -160v-1204q0 -176 -93 -268.5t-264 -92.5v154z" />
<glyph unicode="&#x2248;" d="M100 717q87 246 299 246q86 0 168 -60l109 -82q48 -39 96 -39t84.5 34.5t67.5 127.5l129 -80q-45 -126 -123 -186t-168 -60q-94 0 -174 62l-109 82q-51 39 -96 39q-47 0 -84.5 -34.5t-67.5 -125.5zM109 360q43 128 121.5 188t170.5 60t174 -61l111 -84q49 -37 94 -37 q48 0 84 34t66 126l129 -78q-43 -126 -121 -187t-168 -61q-91 0 -174 64l-109 82q-50 38 -94 38q-49 0 -86 -33.5t-67 -125.5z" />
<glyph unicode="&#x2260;" d="M117 365v155h368l78 185h-446v155h510l133 316h127l-133 -316h293v-155h-357l-78 -185h435v-155h-498l-125 -283h-127l121 283h-301z" />
<glyph unicode="&#x2264;" d="M117 668q0 93 82 123l848 305v-183l-744 -247l744 -246v-176l-846 303q-41 12 -62.5 44t-21.5 77zM123 0v152h921v-152h-921z" />
<glyph unicode="&#x2265;" d="M117 244v176l743 246l-743 247v183l846 -305q84 -29 84 -123q0 -45 -21.5 -77t-62.5 -44zM119 0v152h921v-152h-921z" />
<glyph unicode="&#x25ca;" d="M47 762l420 723q38 63 119 63q77 0 114 -63l416 -723l-416 -723q-38 -66 -118 -66q-78 0 -115 66zM242 762l348 -602l336 602l-340 604z" />
<glyph unicode="&#xe000;" horiz-adv-x="1116" d="M0 0v1116h1116v-1116h-1116z" />
<glyph unicode="&#xf6c3;" horiz-adv-x="1099" d="M407 -389.5q-17 34.5 5 80.5l96 209h197l-121 -252q-37 -72 -107 -72q-53 0 -70 34.5z" />
<glyph unicode="&#xfb04;" horiz-adv-x="1865" d="M-90 -371l22 144q95 3 147.5 58t67.5 163l138 958h-164l20 148h162l16 100q54 369 433 369q183 0 370 -78q103 78 264 78q140 0 289 -45l180 55l-221 -1579h-176l197 1372q-138 41 -264 41q-110 0 -170.5 -52t-81.5 -183l-13 -78h322l-18 -148h-324l-135 -964 q-26 -176 -132 -267.5t-278 -91.5l23 144q95 3 147.5 58t67.5 163l135 958h-479l-136 -964q-26 -176 -131.5 -267.5t-277.5 -91.5zM475 1100h479l17 100q12 100 53 172q-142 43 -270 43q-115 0 -180.5 -53t-86.5 -184z" />
<glyph horiz-adv-x="612" d="M47 240l37 247q17 117 85.5 179.5t184.5 62.5q117 0 170.5 -66.5t38.5 -185.5l-35 -241q-36 -246 -268 -246q-118 0 -174 67t-39 183zM186 240q-19 -131 84 -131q104 0 123 131l33 241q19 131 -84 131t-123 -131z" />
<glyph horiz-adv-x="612" d="M10 0l17 119h202l66 479h-21q-58 0 -120 -29l-23 119q76 31 160 31h67q46 0 67.5 -23t16.5 -65l-71 -512h161l-16 -119h-506z" />
<glyph horiz-adv-x="612" d="M20 59q0 42 39 78l265 215q59 46 83.5 84.5t24.5 91.5q0 80 -96 80q-60 0 -156 -30l-69 -21l-17 117l64 20q104 35 192 35q99 0 159 -47t60 -143q0 -73 -34 -136.5t-121 -130.5l-197 -155h297l-14 -117h-414q-66 0 -66 59z" />
<glyph horiz-adv-x="612" d="M14 45l37 121l66 -21q96 -34 166 -34q120 0 120 102q0 28 -22 57l-29 35h-145l16 115h144l30 35q35 44 35 82q0 71 -92 71q-70 0 -156 -28l-69 -23l-17 119l66 20q100 33 188 33q103 0 159 -46t56 -128q0 -84 -59 -152l-33 -36l27 -35q41 -49 41 -115q0 -103 -72.5 -164 t-189.5 -61q-91 0 -203 33z" />
<glyph horiz-adv-x="612" d="M14 180q0 40 29 72l336 428q40 49 96 49q81 0 72 -80l-60 -413h76l-14 -113h-76l-16 -123h-129l16 123h-266q-30 0 -47 16t-17 41zM184 236h172l39 276z" />
<glyph horiz-adv-x="612" d="M20 45l33 119l66 -21q95 -30 149 -30q66 0 103 39.5t37 105.5q0 104 -113 104q-41 0 -115 -18l-96 -27l59 402h439l-19 -121h-313l-19 -131q43 12 99 12q215 0 215 -209q0 -127 -76.5 -202.5t-200.5 -75.5q-101 0 -186 31z" />
<glyph horiz-adv-x="612" d="M51 246l33 250q15 106 87 168.5t183 62.5q70 0 181 -29l59 -18l-35 -119l-70 21q-91 26 -141 26q-107 0 -125 -116l-4 -31q67 18 115 18q219 0 219 -194q0 -118 -80 -204.5t-203 -86.5q-117 0 -175.5 70t-43.5 182zM190 248q-9 -64 15 -99.5t80 -35.5q57 0 94 44.5 t37 108.5q0 92 -111 92q-40 0 -102 -14z" />
<glyph horiz-adv-x="612" d="M98 600l19 119h418q69 0 69 -60q0 -24 -18 -65l-334 -594h-148l338 600h-344z" />
<glyph horiz-adv-x="612" d="M29 176q0 93 75 156l41 35l-22 36q-31 57 -31 109q0 99 69 158t187 59q105 0 164 -48t59 -130q0 -83 -59 -148l-31 -36l23 -35q41 -67 41 -121q0 -101 -76 -161t-201 -60q-110 0 -174.5 50t-64.5 136zM166 186q0 -36 28.5 -56.5t84.5 -20.5q65 0 97 26.5t32 71.5 q0 26 -23 59l-31 39h-112l-39 -39q-37 -43 -37 -80zM225 518q0 -20 19 -63l22 -37h107l28 35q37 47 37 88q0 31 -24.5 50t-73.5 19q-58 0 -86.5 -26t-28.5 -66z" />
<glyph horiz-adv-x="612" d="M29 41l34 119l68 -21q81 -24 143 -24q107 0 125 114l4 33q-61 -20 -114 -20q-219 0 -219 194q0 119 79.5 205t202.5 86q118 0 177.5 -70t41.5 -182l-32 -248q-15 -106 -87.5 -169.5t-183.5 -63.5q-76 0 -178 31zM209 455q0 -93 108 -93q28 0 103 17l14 96q8 63 -16 99 t-80 36q-57 0 -93 -45t-36 -110z" />
<glyph horiz-adv-x="612" d="M51 219q0 116 58.5 204.5t166.5 113.5l17 122h129l-16 -118q16 -3 83 -21l58 -16l-33 -117l-63 19q-77 22 -111 22q-66 0 -110 -54t-44 -147q0 -112 105 -112q55 0 115 16l71 19l12 -109l-61 -21q-55 -17 -98 -20l-21 -121h-127l21 123q-72 15 -112 71t-40 146z" />
<glyph horiz-adv-x="612" d="M8 57l43 119l66 -26q84 -35 166 -35q51 0 84.5 23.5t33.5 70.5q0 55 -61 74l-113 32q-153 49 -153 181q0 102 65 160t158 65l14 115h127l-16 -117q49 -5 119 -31l63 -24l-41 -121l-69 26q-87 35 -158 35q-55 0 -89 -23t-34 -67q0 -58 63 -76l113 -32q154 -49 154 -179 q0 -70 -34 -122t-83 -77.5t-107 -31.5l-14 -115h-127l17 119q-50 5 -123 31z" />
<glyph horiz-adv-x="612" d="M18 233l15 103h67l9 53h-68l12 100h70q23 123 96.5 182.5t188.5 59.5q64 0 147 -22l57 -19l-37 -123l-63 23q-50 18 -111 18q-59 0 -92.5 -25.5t-46.5 -93.5h213l-12 -100h-215l-8 -53h215l-17 -103h-213q-3 -118 109 -118q45 0 115 20l69 21l17 -119l-66 -21 q-73 -24 -150 -24q-118 0 -181.5 59.5t-51.5 181.5h-68z" />
<glyph horiz-adv-x="450" d="M45 258l16 117h332l-16 -117h-332z" />
<glyph horiz-adv-x="612" d="M57 256v115h179v190h129v-190h180v-115h-180v-193h-129v193h-179z" />
<glyph horiz-adv-x="612" d="M59 256v117h484v-117h-484z" />
<glyph horiz-adv-x="612" d="M57 168v113h488v-113h-488zM57 344v117h488v-117h-488z" />
<glyph horiz-adv-x="337" d="M29 213q0 232 90.5 371t242.5 139l-16 -111q-28 0 -57.5 -22t-58 -66t-46.5 -125t-18 -186q0 -54 9.5 -89.5t26.5 -51.5t31 -21.5t33 -7.5l-14 -111q-41 0 -77 12t-70.5 40.5t-55 87t-20.5 141.5z" />
<glyph horiz-adv-x="337" d="M-29 -68l15 111q22 0 45.5 12.5t48 43t44 75t32 114t12.5 154.5q0 54 -9.5 89.5t-26.5 51.5t-31 21.5t-33 7.5l14 111q41 0 77 -12t70.5 -40.5t55 -87t20.5 -141.5q0 -232 -91 -371t-243 -139z" />
<glyph horiz-adv-x="262" d="M-11 -110q-14 23 1 57l71 200h144l-90 -233q-18 -47 -72 -47q-40 0 -54 23z" />
<glyph horiz-adv-x="262" d="M18 53q0 44 24.5 69t66.5 25q67 0 67 -61q0 -40 -24.5 -67t-65.5 -27q-68 0 -68 61z" />
<glyph horiz-adv-x="612" d="M47 240l37 247q17 117 85.5 179.5t184.5 62.5q117 0 170.5 -66.5t38.5 -185.5l-35 -241q-36 -246 -268 -246q-118 0 -174 67t-39 183zM182 199l205 403q-20 10 -45 10q-103 0 -123 -131l-33 -241q-4 -32 -4 -41zM233 113q10 -4 37 -4q104 0 123 131l33 241q0 4 1 11.5 t1 11.5z" />
<glyph horiz-adv-x="612" d="M145 1044l37 248q17 117 86 179.5t185 62.5q117 0 170.5 -66.5t38.5 -185.5l-35 -242q-36 -245 -269 -245q-118 0 -174 66.5t-39 182.5zM285 1044q-19 -131 84 -131q104 0 123 131l32 242q19 131 -84 131t-123 -131z" />
<glyph horiz-adv-x="612" d="M106 805l17 119h203l65 479h-20q-59 0 -121 -29l-23 119q76 31 160 31h68q46 0 67.5 -23t16.5 -65l-72 -512h162l-17 -119h-506z" />
<glyph horiz-adv-x="612" d="M119 864q0 42 39 78l264 215q59 46 83.5 84.5t24.5 91.5q0 80 -96 80q-56 0 -155 -31l-70 -20l-16 117l63 20q104 35 193 35q98 0 158.5 -47.5t60.5 -143.5q0 -73 -34.5 -136t-121.5 -130l-197 -155h297l-14 -117h-414q-65 0 -65 59z" />
<glyph horiz-adv-x="612" d="M113 850l37 121l65 -21q98 -35 166 -35q121 0 121 103q0 26 -23 57l-28 35h-146l17 115h143l31 35q34 42 34 81q0 72 -92 72q-66 0 -155 -29l-70 -22l-16 119l65 20q100 33 189 33q103 0 159 -46t56 -128q0 -83 -60 -152l-33 -37l27 -34q41 -49 41 -115 q0 -103 -72.5 -164t-189.5 -61q-94 0 -203 32z" />
<glyph horiz-adv-x="612" d="M111 985q0 41 28 72l336 428q40 49 96 49q81 0 72 -80l-59 -414h75l-14 -112h-76l-16 -123h-129l16 123h-266q-30 0 -46.5 15.5t-16.5 41.5zM281 1040h172l39 277z" />
<glyph horiz-adv-x="612" d="M119 850l33 119l65 -21q95 -30 150 -30q66 0 102.5 39.5t36.5 105.5q0 104 -113 104q-41 0 -114 -18l-97 -27l60 402h438l-18 -121h-314l-18 -131q44 12 98 12q215 0 215 -209q0 -127 -76 -202.5t-200 -75.5q-105 0 -187 30z" />
<glyph horiz-adv-x="612" d="M150 1051l32 249q15 106 87.5 169t183.5 63q69 0 180 -29l59 -18l-35 -119l-69 20q-94 27 -142 27q-106 0 -124 -117l-5 -30q67 18 115 18q219 0 219 -194q0 -118 -80 -204.5t-202 -86.5q-117 0 -175.5 70t-43.5 182zM289 1053q-9 -64 14.5 -99.5t79.5 -35.5 q57 0 94 44.5t37 108.5q0 92 -111 92q-40 0 -102 -14z" />
<glyph horiz-adv-x="612" d="M197 1405l18 119h418q69 0 69 -60q0 -24 -18 -65l-334 -594h-147l338 600h-344z" />
<glyph horiz-adv-x="612" d="M127 981q0 92 76 156l41 34l-23 37q-31 57 -31 109q0 99 69 158t187 59q105 0 164.5 -48t59.5 -130t-60 -148l-30 -37l22 -34q41 -67 41 -121q0 -101 -75.5 -161t-200.5 -60q-111 0 -175.5 50t-64.5 136zM264 991q0 -36 28.5 -57t84.5 -21q65 0 97 27t32 72q0 26 -23 59 l-30 39h-113l-39 -39q-37 -43 -37 -80zM324 1323q0 -23 18 -63l23 -37h106l29 34q37 47 37 89q0 31 -25 50t-74 19q-58 0 -86 -26t-28 -66z" />
<glyph horiz-adv-x="612" d="M127 846l35 119l67 -21q81 -24 144 -24q107 0 125 114l4 33q-61 -20 -115 -20q-219 0 -219 194q0 119 80 205t203 86q118 0 177.5 -70t41.5 -182l-33 -248q-15 -106 -87 -169.5t-183 -63.5q-81 0 -179 30zM307 1260q0 -93 109 -93q27 0 102 17l14 96q8 63 -16 99t-80 36 q-57 0 -93 -45t-36 -110z" />
<glyph horiz-adv-x="612" d="M150 1024q0 116 58.5 204t166.5 113l16 123h129l-16 -118q19 -3 84 -21l57 -16l-33 -117l-63 18q-80 23 -111 23q-66 0 -109.5 -53.5t-43.5 -147.5q0 -112 104 -112q55 0 115 16l71 18l13 -108l-62 -21q-55 -17 -98 -20l-20 -121h-127l20 123q-71 15 -111 71t-40 146z " />
<glyph horiz-adv-x="612" d="M106 862l44 119l65 -27q81 -34 166 -34q51 0 85 23.5t34 70.5q0 54 -62 73l-112 33q-154 50 -154 180q0 102 65 160.5t158 65.5l15 114h127l-17 -116q49 -5 119 -31l63 -25l-40 -120l-70 26q-87 35 -158 35q-55 0 -89 -23t-34 -67q0 -57 64 -76l112 -33q76 -24 115 -67 t39 -111q0 -103 -66 -162t-157 -69l-15 -115h-127l17 119q-50 5 -123 31z" />
<glyph horiz-adv-x="612" d="M117 1038l14 103h68l8 53h-68l13 100h69q23 123 96.5 182.5t188.5 59.5q60 0 147 -23l58 -18l-37 -123l-64 23q-50 18 -110 18q-59 0 -93 -25.5t-47 -93.5h213l-12 -100h-215l-8 -53h215l-16 -103h-213q-3 -118 108 -118q45 0 115 20l69 21l17 -119l-66 -21 q-73 -24 -149 -24q-118 0 -182 59.5t-52 181.5h-67z" />
<glyph horiz-adv-x="450" d="M143 1063l17 117h332l-17 -117h-332z" />
<glyph horiz-adv-x="612" d="M156 1061v115h178v190h129v-190h180v-115h-180v-193h-129v193h-178z" />
<glyph horiz-adv-x="612" d="M158 1061v117h483v-117h-483z" />
<glyph horiz-adv-x="612" d="M156 973v112h487v-112h-487zM156 1149v117h487v-117h-487z" />
<glyph horiz-adv-x="337" d="M127 1018q0 232 91 371t243 139l-17 -111q-28 0 -57.5 -22t-58 -66t-46.5 -125t-18 -186q0 -54 9.5 -89.5t27 -51.5t31.5 -21.5t33 -7.5l-15 -111q-41 0 -77 12t-70.5 40.5t-55 87t-20.5 141.5z" />
<glyph horiz-adv-x="337" d="M70 737l14 111q22 0 45.5 12.5t48 43t44 75t32 114t12.5 154.5q0 54 -9.5 89.5t-26.5 51.5t-31 21.5t-33 7.5l14 111q41 0 77 -12t70.5 -40.5t55 -87t20.5 -141.5q0 -232 -90.5 -371t-242.5 -139z" />
<glyph horiz-adv-x="262" d="M87 695q-14 23 1 57l72 200h143l-90 -233q-18 -47 -72 -47q-40 0 -54 23z" />
<glyph horiz-adv-x="262" d="M117 858q0 44 24 69t66 25q67 0 67 -61q0 -40 -24.5 -67t-65.5 -27q-67 0 -67 61z" />
<glyph horiz-adv-x="612" d="M145 1044l37 248q17 117 86 179.5t185 62.5q117 0 170.5 -66.5t38.5 -185.5l-35 -242q-36 -245 -269 -245q-118 0 -174 66.5t-39 182.5zM285 1044q-8 -43 2 -77l174 448q-6 2 -21 2q-103 0 -123 -131zM356 913h13q104 0 123 131l32 242q6 37 0 64z" />
<glyph horiz-adv-x="612" d="M172 1225q0 116 58.5 204t166.5 113l17 123h129l-17 -119q27 -4 84 -20l58 -17l-33 -116l-64 18q-81 23 -110 23q-66 0 -110 -54t-44 -147q0 -113 105 -113q50 0 114 17l72 18l12 -108l-61 -21q-55 -17 -98 -20l-21 -121h-127l21 123q-72 15 -112 71t-40 146z" />
<glyph horiz-adv-x="612" d="M129 1063l43 119l66 -27q84 -35 165 -35q51 0 85 23.5t34 70.5q0 55 -61 74l-113 33q-153 49 -153 180q0 102 65 160t158 65l14 115h127l-16 -117q53 -5 119 -30l63 -25l-41 -121l-70 27q-87 35 -157 35q-55 0 -89 -23t-34 -67q0 -58 63 -76l113 -33q76 -24 115 -67 t39 -111q0 -103 -66.5 -162.5t-157.5 -69.5l-14 -114h-127l16 119q-53 5 -122 30z" />
<glyph horiz-adv-x="612" d="M139 1239l15 102h67l8 54h-67l12 100h70q44 242 284 242q61 0 148 -23l57 -18l-37 -123l-63 22q-53 19 -111 19q-59 0 -92.5 -25.5t-46.5 -93.5h213l-12 -100h-215l-9 -54h215l-16 -102h-213q-3 -119 109 -119q40 0 114 21l70 20l16 -119l-65 -20q-76 -25 -150 -25 q-118 0 -181.5 59.5t-51.5 182.5h-68z" />
<glyph horiz-adv-x="450" d="M166 1264l16 116h332l-16 -116h-332z" />
<glyph horiz-adv-x="262" d="M110 895q-14 23 1 57l71 201h144l-90 -233q-19 -48 -72 -48q-40 0 -54 23z" />
<glyph horiz-adv-x="262" d="M139 1059q0 44 24 69t66 25q32 0 50 -16t18 -45q0 -40 -24.5 -67.5t-65.5 -27.5q-68 0 -68 62z" />
<glyph horiz-adv-x="612" d="M168 1245l37 248q17 117 85.5 179.5t184.5 62.5q117 0 170.5 -66.5t38.5 -185.5l-35 -242q-36 -246 -268 -246q-118 0 -174 67t-39 183zM307 1245q-6 -50 2 -78l174 449q-6 2 -20 2q-103 0 -123 -131zM377 1114h14q104 0 123 131l33 242q6 40 0 67z" />
<glyph horiz-adv-x="612" d="M2 14q0 116 58.5 204.5t166.5 113.5l17 123h129l-17 -119q19 -3 84 -21l58 -16l-33 -117l-64 19q-77 22 -110 22q-66 0 -110 -53.5t-44 -146.5q0 -113 105 -113q54 0 114 16l72 19l12 -109l-61 -20q-59 -18 -98 -21l-21 -121h-127l21 123q-72 15 -112 71t-40 146z" />
<glyph horiz-adv-x="612" d="M-41 -147l43 118l66 -26q84 -35 165 -35q51 0 85 23.5t34 70.5q0 55 -61 74l-113 33q-153 49 -153 180q0 102 65 160t158 65l14 115h127l-16 -117q49 -5 119 -31l63 -24l-41 -121l-70 27q-84 34 -157 34q-55 0 -89 -23t-34 -67q0 -58 63 -76l113 -32q76 -24 115 -67 t39 -111q0 -103 -66.5 -162.5t-157.5 -69.5l-14 -115h-127l16 119q-49 5 -122 31z" />
<glyph horiz-adv-x="612" d="M-31 29l15 102h67l8 53h-67l12 101h70q44 241 284 241q65 0 148 -22l57 -19l-37 -123l-63 23q-50 18 -111 18q-59 0 -92.5 -25t-46.5 -93h213l-12 -101h-215l-9 -53h216l-17 -102h-213q-3 -119 109 -119q44 0 114 20l70 21l16 -119l-65 -20q-76 -25 -150 -25 q-118 0 -181.5 59.5t-51.5 182.5h-68z" />
<glyph horiz-adv-x="450" d="M-4 53l16 117h332l-16 -117h-332z" />
<glyph horiz-adv-x="612" d="M8 51v115h178v190h129v-190h181v-115h-181v-192h-129v192h-178z" />
<glyph horiz-adv-x="612" d="M10 51v117h484v-117h-484z" />
<glyph horiz-adv-x="612" d="M8 -37v113h488v-113h-488zM8 139v117h488v-117h-488z" />
<glyph horiz-adv-x="262" d="M-60 -315q-14 23 1 57l71 201h144l-90 -234q-18 -47 -72 -47q-40 0 -54 23z" />
<glyph horiz-adv-x="262" d="M-31 -152q0 44 24.5 69.5t65.5 25.5q32 0 50 -16.5t18 -45.5q0 -40 -24.5 -67t-65.5 -27q-68 0 -68 61z" />
<glyph horiz-adv-x="612" d="M-2 35l37 248q17 117 85.5 179t184.5 62q117 0 170.5 -66.5t38.5 -185.5l-35 -241q-36 -246 -268 -246q-118 0 -174 67t-39 183zM137 35q-7 -53 0 -76l176 447q-6 2 -20 2q-103 0 -123 -132zM209 -96h12q104 0 123 131l33 241q6 38 0 66z" />
<glyph d="M141 485l78 555q33 238 162.5 370t341.5 132q213 0 308 -133.5t61 -374.5l-76 -547q-34 -245 -158.5 -377.5t-335.5 -132.5q-215 0 -315 135t-66 373zM313 487q-49 -354 219 -354q137 0 212.5 90t99.5 264l78 549q49 353 -217 353q-264 0 -314 -353z" />
<glyph d="M74 0l20 158h406l172 1206h-82q-136 0 -230 -47v156q41 25 116.5 38t146.5 13h108q69 0 101.5 -41t23.5 -111l-172 -1214h330l-21 -158h-919z" />
<glyph d="M78 86q0 71 61 129l535 490q141 128 203.5 229.5t62.5 232.5q0 110 -62 160.5t-169 50.5q-63 3 -141.5 -14.5t-194.5 -52.5l-94 -29l-27 154l86 28q234 78 391 78q174 0 282.5 -92.5t108.5 -265.5q0 -145 -72 -281.5t-253 -300.5l-496 -450h680l-18 -152h-795 q-42 0 -65 23.5t-23 62.5z" />
<glyph d="M70 90l43 158l90 -29q220 -78 344 -76q153 0 238 75t85 206q0 89 -55 160l-78 106h-268l20 148h265l94 110q92 114 92 242q0 86 -56 136t-171 50q-122 0 -334 -67l-86 -29l-27 158l86 26q246 74 381 74q189 0 286 -91t97 -245q0 -169 -125 -313l-110 -127l86 -109 q77 -96 77 -231q0 -198 -140.5 -318t-360.5 -120q-151 -2 -389 77z" />
<glyph d="M53 365q0 51 51 120l707 971q61 80 143 80q116 0 101 -121l-140 -983h160l-22 -149h-158l-39 -283h-170l37 283h-586q-84 0 -84 82zM260 432h485l119 836z" />
<glyph d="M86 86l41 158l82 -29q205 -72 315 -72q170 0 264.5 117t94.5 309q0 127 -69.5 189.5t-199.5 62.5q-115 0 -254 -43l-131 -39l109 785h797l-23 -166h-641l-59 -426q148 45 258 45q184 0 285.5 -99t101.5 -294q0 -276 -147 -438t-392 -162q-157 0 -354 73z" />
<glyph d="M147 502l78 567q31 219 161.5 343t334.5 124q152 0 350 -70l80 -28l-39 -158l-80 29q-203 67 -315 67q-139 0 -219 -83t-101 -236l-18 -137q174 57 293 57q194 0 294.5 -103t100.5 -292q0 -168 -63.5 -302.5t-185 -213t-279.5 -78.5q-146 0 -243 67.5t-134 182.5t-15 264 zM317 372.5q8 -65.5 32 -116.5t78 -82t132 -31q147 0 238.5 117.5t91.5 310.5q0 248 -260 248q-87 0 -271 -51l-36 -260q-13 -70 -5 -135.5z" />
<glyph d="M92 338q0 177 141 321l109 121l-55 115q-54 106 -54 219q0 196 136 313t350 117q189 0 294 -92.5t105 -247.5q0 -161 -117 -311l-94 -125l76 -113q68 -100 68 -217q0 -210 -144.5 -334t-378.5 -124q-203 0 -319.5 94.5t-116.5 263.5zM264 344q0 -97 71 -153t202 -56 q161 0 250.5 80t89.5 215q0 75 -52 154l-69 106h-281l-102 -106q-106 -110 -109 -240zM406 1108q0 -89 34 -162l54 -108h282l80 108q90 121 90 242q0 91 -58.5 144.5t-178.5 53.5q-148 0 -225.5 -78t-77.5 -200z" />
<glyph d="M270 1364l21 160h807q98 0 98 -84q0 -45 -41 -125l-678 -1315h-196l712 1364h-723z" />
<glyph d="M104 86l39 158l80 -29q206 -68 316 -68q139 0 218.5 83.5t100.5 236.5l19 137q-171 -57 -293 -57q-194 0 -294 102.5t-100 292.5q0 168 64 302.5t185 213t278 78.5q146 0 243 -67.5t133.5 -182.5t14.5 -264l-78 -565q-31 -220 -161 -344.5t-334 -124.5q-156 0 -351 69z M367 952q0 -247 260 -247q85 0 272 51l35 262q13 68 5 133t-31.5 116t-78 82t-133.5 31q-147 0 -238 -117t-91 -311z" />
<glyph d="M147 455q0 266 134 451.5t352 213.5l35 260h157l-37 -262q105 -13 201 -49l68 -25l-47 -153l-76 24q-152 54 -240 54q-90 0 -161.5 -43.5t-115 -116t-66.5 -162.5t-23 -188q0 -141 67 -226.5t189 -85.5q115 0 268 46l86 28l23 -151l-91 -27q-142 -44 -243 -51l-39 -262 h-158l41 268q-154 26 -239 149.5t-85 307.5z" />
<glyph d="M61 113l48 172l112 -43q212 -82 373 -82q145 0 230 61.5t85 190.5q0 97 -54.5 145.5t-184.5 91.5l-150 51q-171 57 -256.5 149.5t-85.5 237.5q0 200 132.5 318t351.5 123l36 248h158l-41 -256q125 -19 275 -70l104 -37l-49 -174l-113 39q-227 80 -362 80 q-303 0 -303 -254q0 -84 47.5 -139t156.5 -91l191 -67q179 -65 257.5 -150.5t78.5 -228.5q0 -198 -135.5 -314.5t-360.5 -121.5l-33 -256h-157l37 264q-134 14 -283 74z" />
<glyph d="M78 551l20 139h138l22 154h-139l18 137h139q41 284 183.5 422.5t359.5 138.5q109 0 281 -51l80 -27l-37 -157l-80 26q-152 47 -244 47q-153 0 -242.5 -92.5t-119.5 -306.5h440l-18 -137h-443l-20 -154h440l-20 -139h-441q-27 -210 37 -305.5t215 -95.5q87 0 256 47l86 24 l25 -155l-86 -25q-194 -57 -299 -57q-222 0 -335.5 146t-76.5 421h-139z" />
<glyph d="M139 485l21 148q33 238 162.5 370t341.5 132q214 0 309 -133.5t61 -374.5l-18 -138q-34 -246 -158.5 -379t-335.5 -133q-216 0 -316.5 135t-66.5 373zM305.5 353.5q6.5 -64.5 28 -113t72 -77t126.5 -28.5q137 0 211.5 89t100.5 265l18 140q54 350 -215 350 q-136 0 -214.5 -90.5t-100.5 -259.5l-19 -140q-14 -71 -7.5 -135.5z" />
<glyph d="M141 485l78 555q33 238 162.5 370t341.5 132q213 0 308 -133.5t61 -374.5l-76 -547q-34 -245 -158.5 -377.5t-335.5 -132.5q-215 0 -315 135t-66 373zM305 362l565 967q-57 60 -165 60q-264 0 -314 -353l-78 -549q-11 -79 -8 -125zM358 201q56 -68 174 -68 q137 0 212.5 90t99.5 264l78 549q9 77 6 140z" />
<glyph d="M74 0l18 158h408l112 798h-82q-129 0 -229 -47v158q43 23 117.5 36t144.5 13h109q71 0 103.5 -40t21.5 -111l-113 -807h328l-19 -158h-919z" />
<glyph d="M61 88q0 97 86 143l476 263q57 32 94 56.5t74 59t55 76t18 90.5q0 191 -243 191q-118 0 -332 -68l-86 -27l-31 156l88 29q234 76 389 76q192 0 297 -87.5t105 -248.5q0 -133 -83.5 -233t-246.5 -189l-408 -219h670l-18 -156h-818q-42 0 -64 23.5t-22 64.5z" />
<glyph d="M6 -272l43 157l88 -30q228 -76 344 -76q155 0 238.5 72.5t83.5 203.5q0 85 -55 156l-80 102h-267l19 146h266l90 102q90 112 90 234q0 180 -227 180q-100 0 -334 -70l-86 -26l-26 155l86 27q242 76 380 76q190 0 287.5 -88.5t97.5 -241.5q0 -89 -30.5 -161t-91.5 -142 l-109 -119l86 -104q78 -97 78 -228q0 -198 -139 -315t-359 -117q-159 -3 -391 78z" />
<glyph d="M16 82q0 33 12.5 59t39.5 62l686 846q64 79 145 79q113 0 98 -120l-118 -858h159l-22 -150h-158l-51 -365h-172l51 365h-586q-84 0 -84 82zM221 150h488l104 735z" />
<glyph d="M29 -276l47 155l82 -29q207 -69 315 -69q169 0 262.5 113t93.5 305q0 245 -270 245q-115 0 -254 -43l-131 -39l105 754h796l-22 -164h-639l-56 -397q145 45 256 45q187 0 289.5 -96t102.5 -291q0 -276 -146 -434t-393 -158q-158 0 -361 74z" />
<glyph d="M147 502l78 567q31 219 161.5 343t334.5 124q152 0 350 -70l80 -28l-39 -158l-80 29q-203 67 -315 67q-139 0 -219 -83t-101 -236l-18 -137q174 57 293 57q194 0 294.5 -103t100.5 -292q0 -168 -63.5 -302.5t-185 -213t-279.5 -78.5q-146 0 -243 67.5t-134 182.5t-15 264 zM317 372.5q8 -65.5 32 -116.5t78 -82t132 -31q147 0 238.5 117.5t91.5 310.5q0 248 -260 248q-87 0 -271 -51l-36 -260q-13 -70 -5 -135.5z" />
<glyph d="M215 956l21 160h806q99 0 99 -82q0 -49 -41 -125l-660 -1274h-196l694 1321h-723z" />
<glyph d="M92 338q0 177 141 321l109 121l-55 115q-54 106 -54 219q0 196 136 313t350 117q189 0 294 -92.5t105 -247.5q0 -161 -117 -311l-94 -125l76 -113q68 -100 68 -217q0 -210 -144.5 -334t-378.5 -124q-203 0 -319.5 94.5t-116.5 263.5zM264 344q0 -97 71 -153t202 -56 q161 0 250.5 80t89.5 215q0 75 -52 154l-69 106h-281l-102 -106q-106 -110 -109 -240zM406 1108q0 -89 34 -162l54 -108h282l80 108q90 121 90 242q0 91 -58.5 144.5t-178.5 53.5q-148 0 -225.5 -78t-77.5 -200z" />
<glyph d="M57 -281l39 158l80 -29q199 -67 316 -67q140 0 216.5 78t98.5 231l16 125q-169 -59 -293 -59q-195 0 -294 101t-99 290q0 168 63.5 301t183.5 210t278 77q146 0 243 -67.5t134 -182.5t16 -264l-76 -541q-29 -218 -158.5 -338.5t-333.5 -120.5q-152 0 -350 70zM313 557 q0 -118 61.5 -181t198.5 -63q48 0 102.5 11t170.5 43l35 249q6 55 6 107.5t-16.5 99t-43.5 81t-74.5 55t-111.5 20.5q-147 0 -237.5 -115t-90.5 -307z" />
<glyph d="M147 455q0 266 134 451.5t352 213.5l35 260h157l-37 -262q82 -10 201 -49l68 -25l-47 -153l-76 24q-152 54 -240 54q-90 0 -161.5 -43.5t-115 -116t-66.5 -162.5t-23 -188q0 -141 67 -226.5t189 -85.5q115 0 268 46l86 28l23 -151l-91 -27q-142 -44 -243 -51l-39 -262 h-158l41 268q-154 26 -239 149.5t-85 307.5z" />
<glyph d="M131 78l45 149l78 -24q204 -66 328 -66q95 0 158 41t63 133q0 56 -33.5 90t-107.5 56l-195 53q-240 65 -240 276q0 88 32.5 154.5t88.5 105.5t120.5 59t137.5 23l35 252h158l-37 -260q103 -15 235 -59l72 -25l-45 -151l-78 26q-73 24 -106 33.5t-96.5 21t-122.5 11.5 q-222 0 -222 -176q0 -56 34 -91t110 -57l196 -53q118 -31 177 -97.5t59 -176.5q0 -85 -32.5 -151t-88 -104.5t-119.5 -59t-135 -23.5l-37 -258h-157l38 264q-97 9 -241 59z" />
<glyph d="M31 354l20 138h152q3 73 14 131h-149l20 137h168q66 170 198.5 269t307.5 99q113 0 282 -57l68 -24l-47 -154l-74 27q-137 51 -241 51q-103 0 -181.5 -57t-124.5 -154h463l-20 -137h-488q-13 -71 -16 -131h485l-20 -138h-455q24 -98 87.5 -153.5t160.5 -55.5 q125 0 268 45l84 29l25 -151l-92 -27q-175 -53 -310 -53q-171 0 -276.5 98.5t-130.5 267.5h-178z" />
<glyph d="M139 485l21 148q33 238 162.5 370t341.5 132q214 0 309 -133.5t61 -374.5l-18 -138q-34 -246 -158.5 -379t-335.5 -133q-216 0 -316.5 135t-66.5 373zM313 489q-23 -147 15 -235l452 692q-47 33 -133 33q-136 0 -214.5 -90.5t-100.5 -259.5zM410 162q47 -27 122 -27 q137 0 211.5 89t100.5 265l18 140q18 134 -6 217z" />
<glyph d="M139 485l21 148q33 238 162.5 370t341.5 132q214 0 309 -133.5t61 -374.5l-18 -138q-34 -246 -158.5 -379t-335.5 -133q-216 0 -316.5 135t-66.5 373zM305.5 353.5q6.5 -64.5 28 -113t72 -77t126.5 -28.5q137 0 211.5 89t100.5 265l18 140q54 350 -215 350 q-136 0 -214.5 -90.5t-100.5 -259.5l-19 -140q-14 -71 -7.5 -135.5z" />
<glyph d="M74 0l18 158h408l112 798h-82q-129 0 -229 -47v158q43 23 117.5 36t144.5 13h109q71 0 103.5 -40t21.5 -111l-113 -807h328l-19 -158h-919z" />
<glyph d="M61 88q0 97 86 143l476 263q57 32 94 56.5t74 59t55 76t18 90.5q0 191 -243 191q-118 0 -332 -68l-86 -27l-31 156l88 29q234 76 389 76q192 0 297 -87.5t105 -248.5q0 -133 -83.5 -233t-246.5 -189l-408 -219h670l-18 -156h-818q-42 0 -64 23.5t-22 64.5z" />
<glyph d="M6 -272l43 157l88 -30q228 -76 344 -76q155 0 238.5 72.5t83.5 203.5q0 85 -55 156l-80 102h-267l19 146h266l90 102q90 112 90 234q0 180 -227 180q-100 0 -334 -70l-86 -26l-26 155l86 27q242 76 380 76q190 0 287.5 -88.5t97.5 -241.5q0 -89 -30.5 -161t-91.5 -142 l-109 -119l86 -104q78 -97 78 -228q0 -198 -139 -315t-359 -117q-159 -3 -391 78z" />
<glyph d="M16 82q0 33 12.5 59t39.5 62l686 846q64 79 145 79q113 0 98 -120l-118 -858h159l-22 -150h-158l-51 -365h-172l51 365h-586q-84 0 -84 82zM221 150h488l104 735z" />
<glyph d="M29 -276l47 155l82 -29q207 -69 315 -69q169 0 262.5 113t93.5 305q0 245 -270 245q-115 0 -254 -43l-131 -39l105 754h796l-22 -164h-639l-56 -397q145 45 256 45q187 0 289.5 -96t102.5 -291q0 -276 -146 -434t-393 -158q-158 0 -361 74z" />
<glyph d="M147 502l78 567q31 219 161.5 343t334.5 124q152 0 350 -70l80 -28l-39 -158l-80 29q-203 67 -315 67q-139 0 -219 -83t-101 -236l-18 -137q174 57 293 57q194 0 294.5 -103t100.5 -292q0 -168 -63.5 -302.5t-185 -213t-279.5 -78.5q-146 0 -243 67.5t-134 182.5t-15 264 zM317 372.5q8 -65.5 32 -116.5t78 -82t132 -31q147 0 238.5 117.5t91.5 310.5q0 248 -260 248q-87 0 -271 -51l-36 -260q-13 -70 -5 -135.5z" />
<glyph d="M215 956l21 160h806q99 0 99 -82q0 -49 -41 -125l-660 -1274h-196l694 1321h-723z" />
<glyph d="M92 338q0 177 141 321l109 121l-55 115q-54 106 -54 219q0 196 136 313t350 117q189 0 294 -92.5t105 -247.5q0 -161 -117 -311l-94 -125l76 -113q68 -100 68 -217q0 -210 -144.5 -334t-378.5 -124q-203 0 -319.5 94.5t-116.5 263.5zM264 344q0 -97 71 -153t202 -56 q161 0 250.5 80t89.5 215q0 75 -52 154l-69 106h-281l-102 -106q-106 -110 -109 -240zM406 1108q0 -89 34 -162l54 -108h282l80 108q90 121 90 242q0 91 -58.5 144.5t-178.5 53.5q-148 0 -225.5 -78t-77.5 -200z" />
<glyph d="M57 -281l39 158l80 -29q199 -67 316 -67q140 0 216.5 78t98.5 231l16 125q-169 -59 -293 -59q-195 0 -294 101t-99 290q0 168 63.5 301t183.5 210t278 77q146 0 243 -67.5t134 -182.5t16 -264l-76 -541q-29 -218 -158.5 -338.5t-333.5 -120.5q-152 0 -350 70zM313 557 q0 -118 61.5 -181t198.5 -63q48 0 102.5 11t170.5 43l35 249q6 55 6 107.5t-16.5 99t-43.5 81t-74.5 55t-111.5 20.5q-147 0 -237.5 -115t-90.5 -307z" />
<glyph d="M147 455q0 266 134 451.5t352 213.5l35 260h157l-37 -262q82 -10 201 -49l68 -25l-47 -153l-76 24q-152 54 -240 54q-90 0 -161.5 -43.5t-115 -116t-66.5 -162.5t-23 -188q0 -141 67 -226.5t189 -85.5q115 0 268 46l86 28l23 -151l-91 -27q-142 -44 -243 -51l-39 -262 h-158l41 268q-154 26 -239 149.5t-85 307.5z" />
<glyph d="M131 78l45 149l78 -24q204 -66 328 -66q95 0 158 41t63 133q0 56 -33.5 90t-107.5 56l-195 53q-240 65 -240 276q0 88 32.5 154.5t88.5 105.5t120.5 59t137.5 23l35 252h158l-37 -260q103 -15 235 -59l72 -25l-45 -151l-78 26q-73 24 -106 33.5t-96.5 21t-122.5 11.5 q-222 0 -222 -176q0 -56 34 -91t110 -57l196 -53q118 -31 177 -97.5t59 -176.5q0 -85 -32.5 -151t-88 -104.5t-119.5 -59t-135 -23.5l-37 -258h-157l38 264q-97 9 -241 59z" />
<glyph d="M31 354l20 138h152q3 73 14 131h-149l20 137h168q66 170 198.5 269t307.5 99q113 0 282 -57l68 -24l-47 -154l-74 27q-137 51 -241 51q-103 0 -181.5 -57t-124.5 -154h463l-20 -137h-488q-13 -71 -16 -131h485l-20 -138h-455q24 -98 87.5 -153.5t160.5 -55.5 q125 0 268 45l84 29l25 -151l-92 -27q-175 -53 -310 -53q-171 0 -276.5 98.5t-130.5 267.5h-178z" />
<glyph horiz-adv-x="1044" d="M121 383l57 412q26 186 140 287.5t303 101.5q191 0 273.5 -105t55.5 -297l-55 -403q-27 -191 -135.5 -293t-298.5 -102t-278.5 105.5t-61.5 293.5zM295 381q-32 -242 182 -242q215 0 246 242l55 405q31 240 -178 240q-216 0 -248 -240z" />
<glyph horiz-adv-x="1044" d="M66 0l20 158h350l119 854h-57q-116 0 -195 -37l-22 153q92 43 243 43h101q66 0 99 -33.5t24 -93.5l-123 -886h280l-20 -158h-819z" />
<glyph horiz-adv-x="1044" d="M66 82q0 64 59 111l463 362q106 87 152 155.5t46 153.5q0 80 -55.5 118t-146.5 38q-120 0 -281 -49l-90 -27l-27 156l88 26q199 56 330 56q166 0 263.5 -75t97.5 -226q0 -116 -61 -221t-195 -209l-400 -297h563l-20 -154h-696q-43 0 -66.5 22t-23.5 60z" />
<glyph horiz-adv-x="1044" d="M61 70l48 157l90 -26q173 -56 299 -56q121 0 183 49t62 134q0 33 -11.5 56t-39.5 58l-57 72h-242l21 150h243l64 71q61 68 61 152q0 133 -188 133q-49 0 -135 -15t-152 -34l-88 -27l-29 160l93 24q195 54 325 54q170 0 262.5 -73.5t92.5 -203.5q0 -136 -103 -239l-69 -72 l59 -70q72 -87 72 -188q0 -160 -120 -254t-310 -94q-141 0 -340 57z" />
<glyph horiz-adv-x="1044" d="M55 291q0 42 47 100l590 723q52 66 135 66q57 0 83 -28t18 -81l-101 -711h138l-23 -151h-135l-29 -209h-172l29 209h-490q-90 0 -90 82zM279 360h376l78 560z" />
<glyph horiz-adv-x="1044" d="M78 66l49 155l86 -24q159 -50 270 -50q130 0 200.5 73t70.5 194q0 98 -59 146t-169 48q-93 0 -211 -33l-131 -34l86 630h711l-23 -163h-550l-37 -269q113 25 192 25q176 0 271.5 -83t95.5 -247q0 -203 -123.5 -324.5t-333.5 -121.5q-157 0 -313 51z" />
<glyph horiz-adv-x="1044" d="M111 393l57 410q24 172 140.5 274.5t299.5 102.5q124 0 310 -52l81 -22l-51 -160l-80 27q-153 47 -268 47q-111 0 -176.5 -58t-77.5 -161l-10 -74q135 37 239 37q178 0 268.5 -82t90.5 -236q0 -198 -127.5 -327t-335.5 -129q-182 0 -285.5 111.5t-74.5 291.5zM289 393 q-16 -112 35.5 -180t167.5 -68q117 0 188.5 80t71.5 203q0 178 -217 178q-66 0 -220 -33z" />
<glyph horiz-adv-x="1044" d="M205 1014l20 157h711q103 0 94 -92q-3 -24 -35 -90l-567 -989h-192l587 1014h-618z" />
<glyph horiz-adv-x="1044" d="M76 279q0 134 117 245l86 74l-46 74q-55 90 -55 168q0 158 114 251t304 93q171 0 269 -76t98 -207q0 -127 -93 -231l-71 -80l53 -70q72 -91 72 -180q0 -165 -122 -260.5t-327 -95.5q-185 0 -292 79.5t-107 215.5zM252 291q0 -70 60.5 -110t174.5 -40q127 0 194 49.5 t67 135.5q0 57 -46 112l-61 72h-240l-75 -72q-74 -68 -74 -147zM350 846q0 -48 37 -113l43 -71h238l59 71q59 69 59 150q0 64 -51 102.5t-153 38.5q-117 0 -174.5 -49t-57.5 -129z" />
<glyph horiz-adv-x="1044" d="M74 66l49 157l82 -26q153 -47 268 -47q110 0 175 58t79 161l8 73q-139 -36 -237 -36q-178 0 -268.5 82t-90.5 235q0 198 127 327.5t336 129.5q182 0 285.5 -112t73.5 -290l-58 -411q-24 -171 -140.5 -274t-299.5 -103q-128 0 -307 51zM319 741q0 -178 220 -178 q67 0 219 35l26 178q16 113 -35 180.5t-167 67.5q-118 0 -190.5 -80t-72.5 -203z" />
<glyph horiz-adv-x="1165" d="M119 457q0 107 21 204t65 183t108 152.5t155 112t200 62.5l26 191h164l-27 -188q88 -7 224 -52l94 -30l-45 -166l-100 32q-164 52 -261 52q-191 0 -311.5 -137.5t-120.5 -401.5q0 -159 79.5 -237t225.5 -78q104 0 279 51l106 29l19 -162l-102 -29q-155 -43 -252 -53 l-27 -191h-164l29 193q-179 21 -282 138.5t-103 324.5z" />
<glyph horiz-adv-x="1044" d="M47 84l55 164l95 -33q176 -65 315 -65q42 0 80 9t74 28.5t57.5 57t21.5 87.5q0 103 -137 141l-202 57q-248 70 -248 281q0 87 33 156.5t89 112t122.5 66t140.5 28.5l26 188h164l-26 -191q97 -10 227 -57l88 -35l-53 -161l-95 36q-162 60 -309 60q-44 0 -83 -10t-72.5 -31 t-53.5 -59t-20 -89q0 -49 33.5 -80.5t103.5 -52.5l201 -57q120 -35 185 -106t65 -177q0 -86 -32.5 -154t-88.5 -109.5t-121.5 -65t-140.5 -31.5l-27 -191h-164l29 193q-90 8 -240 59z" />
<glyph horiz-adv-x="1044" d="M68 403l20 140h119l10 86h-119l21 141h119q34 202 162 309t315 107q116 0 243 -41l82 -25l-43 -155l-84 24q-117 37 -208 37q-240 0 -283 -256h379l-19 -141h-383l-12 -86h383l-20 -140h-379q-29 -256 211 -256q90 0 219 37l92 25l14 -156l-90 -24q-149 -41 -256 -41 q-186 0 -290.5 108.5t-84.5 306.5h-118z" />
<glyph horiz-adv-x="851" d="M117 496l22 170h621l-23 -170h-620z" />
<glyph horiz-adv-x="1067" d="M117 492v163h323v332h176v-332h330v-163h-330v-330h-176v330h-323z" />
<glyph horiz-adv-x="1067" d="M121 487v166h823v-166h-823z" />
<glyph horiz-adv-x="1067" d="M117 348v164h829v-164h-829zM117 623v161h829v-161h-829z" />
<glyph horiz-adv-x="563" d="M74 334q0 131 19 251.5t60.5 228t101 186.5t146.5 125t191 46l-21 -147q-99 0 -174 -104.5t-111 -258t-36 -323.5q0 -294 182 -305l-20 -146q-49 0 -92 10t-90 39.5t-80 77t-54.5 130t-21.5 190.5z" />
<glyph horiz-adv-x="563" d="M-16 -113l20 148q60 0 112.5 40t90.5 107.5t65 155.5t40.5 186t13.5 197q0 294 -185 305l21 145q40 0 76.5 -7t76.5 -24.5t71.5 -50.5t58 -80.5t41 -120t14.5 -163.5q0 -165 -31 -312t-92 -266.5t-162.5 -189.5t-230.5 -70z" />
<glyph horiz-adv-x="446" d="M-18 -221q-19 35 2 82l147 372h201l-172 -417q-32 -72 -105 -72q-54 0 -73 35z" />
<glyph horiz-adv-x="446" d="M51 82q0 70 38 112t99 42q50 0 76.5 -27t26.5 -76q0 -60 -37.5 -105.5t-99.5 -45.5q-49 0 -76 26.5t-27 73.5z" />
<glyph horiz-adv-x="1044" d="M121 383l57 412q26 186 140 287.5t303 101.5q191 0 273.5 -105t55.5 -297l-55 -403q-27 -191 -135.5 -293t-298.5 -102t-278.5 105.5t-61.5 293.5zM295 381q-12 -79 6 -135l389 766q-44 14 -90 14q-216 0 -248 -240zM393 152q37 -13 84 -13q215 0 246 242l55 405 q9 69 -4 125z" />
<glyph horiz-adv-x="1044" d="M121 383l57 412q26 186 140 287.5t303 101.5q191 0 273.5 -105t55.5 -297l-55 -403q-27 -191 -135.5 -293t-298.5 -102t-278.5 105.5t-61.5 293.5zM295 381q-32 -242 182 -242q215 0 246 242l55 405q31 240 -178 240q-216 0 -248 -240z" />
<glyph horiz-adv-x="1044" d="M66 0l20 158h350l119 854h-57q-116 0 -195 -37l-22 153q92 43 243 43h101q66 0 99 -33.5t24 -93.5l-123 -886h280l-20 -158h-819z" />
<glyph horiz-adv-x="1044" d="M66 82q0 64 59 111l463 362q106 87 152 155.5t46 153.5q0 80 -55.5 118t-146.5 38q-120 0 -281 -49l-90 -27l-27 156l88 26q199 56 330 56q166 0 263.5 -75t97.5 -226q0 -116 -61 -221t-195 -209l-400 -297h563l-20 -154h-696q-43 0 -66.5 22t-23.5 60z" />
<glyph horiz-adv-x="1044" d="M61 70l48 157l90 -26q173 -56 299 -56q121 0 183 49t62 134q0 33 -11.5 56t-39.5 58l-57 72h-242l21 150h243l64 71q61 68 61 152q0 133 -188 133q-49 0 -135 -15t-152 -34l-88 -27l-29 160l93 24q195 54 325 54q170 0 262.5 -73.5t92.5 -203.5q0 -136 -103 -239l-69 -72 l59 -70q72 -87 72 -188q0 -160 -120 -254t-310 -94q-141 0 -340 57z" />
<glyph horiz-adv-x="1044" d="M55 291q0 42 47 100l590 723q52 66 135 66q57 0 83 -28t18 -81l-101 -711h138l-23 -151h-135l-29 -209h-172l29 209h-490q-90 0 -90 82zM279 360h376l78 560z" />
<glyph horiz-adv-x="1044" d="M78 66l49 155l86 -24q159 -50 270 -50q130 0 200.5 73t70.5 194q0 98 -59 146t-169 48q-93 0 -211 -33l-131 -34l86 630h711l-23 -163h-550l-37 -269q113 25 192 25q176 0 271.5 -83t95.5 -247q0 -203 -123.5 -324.5t-333.5 -121.5q-157 0 -313 51z" />
<glyph horiz-adv-x="1044" d="M111 393l57 410q24 172 140.5 274.5t299.5 102.5q124 0 310 -52l81 -22l-51 -160l-80 27q-153 47 -268 47q-111 0 -176.5 -58t-77.5 -161l-10 -74q135 37 239 37q178 0 268.5 -82t90.5 -236q0 -198 -127.5 -327t-335.5 -129q-182 0 -285.5 111.5t-74.5 291.5zM289 393 q-16 -112 35.5 -180t167.5 -68q117 0 188.5 80t71.5 203q0 178 -217 178q-66 0 -220 -33z" />
<glyph horiz-adv-x="1044" d="M205 1014l20 157h711q103 0 94 -92q-3 -24 -35 -90l-567 -989h-192l587 1014h-618z" />
<glyph horiz-adv-x="1044" d="M76 279q0 134 117 245l86 74l-46 74q-55 90 -55 168q0 158 114 251t304 93q171 0 269 -76t98 -207q0 -127 -93 -231l-71 -80l53 -70q72 -91 72 -180q0 -165 -122 -260.5t-327 -95.5q-185 0 -292 79.5t-107 215.5zM252 291q0 -70 60.5 -110t174.5 -40q127 0 194 49.5 t67 135.5q0 57 -46 112l-61 72h-240l-75 -72q-74 -68 -74 -147zM350 846q0 -48 37 -113l43 -71h238l59 71q59 69 59 150q0 64 -51 102.5t-153 38.5q-117 0 -174.5 -49t-57.5 -129z" />
<glyph horiz-adv-x="1044" d="M74 66l49 157l82 -26q153 -47 268 -47q110 0 175 58t79 161l8 73q-139 -36 -237 -36q-178 0 -268.5 82t-90.5 235q0 198 127 327.5t336 129.5q182 0 285.5 -112t73.5 -290l-58 -411q-24 -171 -140.5 -274t-299.5 -103q-128 0 -307 51zM319 741q0 -178 220 -178 q67 0 219 35l26 178q16 113 -35 180.5t-167 67.5q-118 0 -190.5 -80t-72.5 -203z" />
<glyph horiz-adv-x="1165" d="M119 457q0 107 21 204t65 183t108 152.5t155 112t200 62.5l26 191h164l-27 -188q88 -7 224 -52l94 -30l-45 -166l-100 32q-164 52 -261 52q-191 0 -311.5 -137.5t-120.5 -401.5q0 -159 79.5 -237t225.5 -78q104 0 279 51l106 29l19 -162l-102 -29q-155 -43 -252 -53 l-27 -191h-164l29 193q-179 21 -282 138.5t-103 324.5z" />
<glyph horiz-adv-x="1044" d="M47 84l55 164l95 -33q176 -65 315 -65q42 0 80 9t74 28.5t57.5 57t21.5 87.5q0 103 -137 141l-202 57q-248 70 -248 281q0 87 33 156.5t89 112t122.5 66t140.5 28.5l26 188h164l-26 -191q97 -10 227 -57l88 -35l-53 -161l-95 36q-162 60 -309 60q-44 0 -83 -10t-72.5 -31 t-53.5 -59t-20 -89q0 -49 33.5 -80.5t103.5 -52.5l201 -57q120 -35 185 -106t65 -177q0 -86 -32.5 -154t-88.5 -109.5t-121.5 -65t-140.5 -31.5l-27 -191h-164l29 193q-90 8 -240 59z" />
<glyph horiz-adv-x="1044" d="M68 403l20 140h119l10 86h-119l21 141h119q34 202 162 309t315 107q116 0 243 -41l82 -25l-43 -155l-84 24q-117 37 -208 37q-240 0 -283 -256h379l-19 -141h-383l-12 -86h383l-20 -140h-379q-29 -256 211 -256q90 0 219 37l92 25l14 -156l-90 -24q-149 -41 -256 -41 q-186 0 -290.5 108.5t-84.5 306.5h-118z" />
<glyph horiz-adv-x="1091" d="M623 1688q0 43 41 69l165 107h279l-336 -213q-46 -27 -80 -27t-51.5 19t-17.5 45z" />
<glyph horiz-adv-x="1087" d="M471 1874h166q-7 -54 40 -85.5t134 -31.5q86 0 141.5 32t63.5 85h166q-11 -80 -68.5 -138t-140.5 -85t-180 -27q-151 0 -244.5 65.5t-77.5 184.5z" />
<glyph horiz-adv-x="1087" d="M457 1864h227l129 -113l154 113h237l-286 -201q-60 -39 -121 -39q-68 0 -107 39z" />
<glyph horiz-adv-x="1087" d="M424 1626l289 199q53 39 116 39q69 0 111 -39l231 -199h-227l-125 113l-160 -113h-235z" />
<glyph horiz-adv-x="1099" d="M512 1720q0 66 37.5 106t97.5 40q47 0 74 -26t27 -71q0 -57 -38 -101t-98 -44q-47 0 -73.5 25.5t-26.5 70.5zM907 1720q0 66 37 106t96 40q47 0 74 -26t27 -71q0 -57 -37 -101t-96 -44q-47 0 -74 26t-27 70z" />
<glyph horiz-adv-x="1087" d="M664 1720q0 66 38 107t99 41q47 0 74.5 -27t27.5 -72q0 -57 -38.5 -101t-98.5 -44q-49 0 -75.5 25.5t-26.5 70.5z" />
<glyph horiz-adv-x="1091" d="M569 1864h275l153 -113q29 -20 29 -55q0 -28 -21.5 -48t-54.5 -20q-34 0 -73 27z" />
<glyph horiz-adv-x="1087" d="M422 1686q0 27 31 55l161 123h244l-289 -217q-35 -27 -77 -27q-32 0 -51 20t-19 46zM795 1681q0 32 28 54l166 129h252l-303 -224q-34 -22 -74 -22q-33 0 -51 18t-18 45z" />
<glyph horiz-adv-x="1087" d="M451 1657l22 151h645l-22 -151h-645z" />
<glyph horiz-adv-x="1087" d="M596 1786q0 94 72 152.5t172 58.5q87 0 141.5 -44t54.5 -122q0 -95 -72 -156t-173 -61q-84 0 -139.5 47.5t-55.5 124.5zM709 1792q0 -37 25.5 -58.5t68.5 -21.5q49 0 84 30.5t35 78.5q0 34 -26.5 55.5t-68.5 21.5q-52 0 -85 -30.5t-33 -75.5z" />
<glyph horiz-adv-x="1087" d="M375 1696q101 182 270 182q80 0 152 -43l86 -51q39 -23 80 -23q40 0 73.5 24.5t71.5 88.5l113 -66q-51 -96 -122 -141t-147 -45q-84 0 -151 43l-84 53q-38 21 -80 21t-77 -22t-73 -85z" />
<glyph horiz-adv-x="1392" d="M70 0l151 1063q14 105 57 189.5t116.5 149t186.5 99.5t257 35q98 0 179 -17t134 -43.5t92 -63t59 -72.5t29 -74l-442 -443q194 -9 287.5 -99t93.5 -235q0 -103 -39.5 -194.5t-110 -159.5t-175 -107.5t-226.5 -39.5q-132 0 -275 45l-55 18l53 158l56 -16q125 -41 219 -41 q165 0 267.5 95t102.5 232q0 102 -75 157.5t-211 55.5h-49q-80 0 -80 68q0 50 43 96l397 404q-22 44 -106 79t-193 35q-185 0 -282 -84t-117 -229l-152 -1061h-192z" />
<glyph horiz-adv-x="815" d="M162 1108q0 108 43 201t125.5 152t187.5 59q46 0 84 -7t53 -15l15 -7l10 65h133l-80 -577l74 -47l-64 -107l-67 41q-33 20 -72 8l-49 -12q-95 -26 -158 -26q-113 0 -174 71t-61 201zM305 1112q0 -78 29.5 -117t99.5 -39q46 0 109 17l55 16l55 395q-38 19 -123 19 q-102 0 -163.5 -89.5t-61.5 -201.5z" />
<glyph horiz-adv-x="811" d="M174 975l113 794l143 29l-41 -295q103 27 164 27q130 0 197 -71t67 -202q0 -190 -102 -303.5t-269 -113.5q-97 0 -202 30q-82 27 -70 105zM315 985q75 -22 144 -22q105 0 160 79t55 199q0 162 -150 162q-52 0 -151 -27z" />
<glyph horiz-adv-x="727" d="M174 1114q0 190 100.5 304t260.5 114q71 0 180 -31l65 -20l-41 -127l-65 20q-106 29 -146 29q-95 0 -152 -72.5t-57 -208.5q0 -157 150 -157q45 0 154 28l73 21l17 -127l-74 -19q-128 -32 -193 -32q-127 0 -199.5 69t-72.5 209z" />
<glyph horiz-adv-x="811" d="M170 1120q0 192 99.5 301t260.5 109q54 0 156 -29l39 271l143 26l-116 -825q-4 -38 -32.5 -65.5t-74.5 -41.5q-98 -26 -203 -26q-131 0 -201.5 73t-70.5 207zM313 1128q0 -165 154 -165q44 0 147 22l56 391q-111 27 -146 27q-102 0 -156.5 -77.5t-54.5 -197.5z" />
<glyph horiz-adv-x="796" d="M176 1130q0 184 103 294t258 110q145 0 219 -85t51 -249q-13 -74 -84 -74h-408q-3 -80 44 -121.5t126 -41.5q73 0 174 30l84 27l23 -119l-80 -24q-125 -41 -215 -41q-138 0 -216.5 75.5t-78.5 218.5zM332 1243h338q5 78 -30.5 126t-117.5 48q-72 0 -122.5 -46t-67.5 -128 z" />
<glyph horiz-adv-x="546" d="M172 1393l16 120h101l8 54q17 109 79 165t163 56q38 0 157 -25l-30 -123q-89 23 -131 23q-44 0 -67 -24.5t-30 -79.5l-8 -46h203l-17 -120h-202l-78 -549h-141l77 549h-100z" />
<glyph horiz-adv-x="815" d="M137 799q0 46 17.5 80t50.5 71l69 72q27 30 27 55q0 19 -16.5 38.5t-36.5 36t-36.5 50t-16.5 76.5q0 121 85 182.5t228 61.5h70q48 0 94 4l190 49l23 -115l-131 -35q37 -37 37 -100q0 -119 -88.5 -178.5t-237.5 -59.5h-47q4 -12 4 -26q0 -20 -21 -49h185 q104 0 154.5 -41.5t50.5 -112.5q0 -97 -86 -156.5t-228 -70.5q-46 -4 -67 -4q-123 2 -198 44t-75 128zM274 813q0 -74 164 -74q215 0 215 105q0 51 -90 51h-254q-35 -30 -35 -82zM334 1288q0 -96 147 -96q41 0 76 9.5t63.5 38.5t28.5 75q0 96 -145 96q-170 0 -170 -123z" />
<glyph horiz-adv-x="780" d="M154 844l131 925l147 29l-43 -297q113 29 166 29q134 0 184.5 -69t34.5 -181l-61 -436h-142l62 430q8 61 -16 94t-95 33q-53 0 -149 -27l-76 -530h-143z" />
<glyph horiz-adv-x="378" d="M162 844l96 680h141l-96 -680h-141zM266 1683q0 48 27 77.5t72 29.5q35 0 55 -19.5t20 -52.5q0 -42 -28 -73t-72 -31q-35 0 -54.5 18.5t-19.5 50.5z" />
<glyph horiz-adv-x="387" d="M39 627l16 121q56 1 82.5 27t34.5 81l92 668h146l-95 -672q-15 -110 -86.5 -167.5t-189.5 -57.5zM274 1683q0 47 28.5 77t72.5 30q35 0 54.5 -19.5t19.5 -52.5q0 -42 -27.5 -73t-71.5 -31q-35 0 -55.5 18.5t-20.5 50.5z" />
<glyph horiz-adv-x="763" d="M156 844l131 925l143 29l-80 -581l322 307h182l-262 -242l170 -438h-166l-127 330l-59 -54q-44 -37 -66.5 -69t-30.5 -84l-18 -123h-139z" />
<glyph horiz-adv-x="364" d="M152 844l131 925l149 29l-135 -954h-145z" />
<glyph horiz-adv-x="1142" d="M160 844l78 551q12 75 86 100q100 35 206 35q110 0 162 -49q122 49 221 49q124 0 175.5 -63.5t35.5 -174.5l-63 -448h-141l63 438q17 119 -98 119q-43 0 -79 -6.5t-50 -12.5l-15 -6q1 -4 2.5 -11.5t4 -30.5t-2.5 -44l-63 -446h-139l61 438q20 121 -96 121q-49 0 -129 -21 l-78 -538h-141z" />
<glyph horiz-adv-x="829" d="M176 1120q0 192 104 302t269 110q134 0 209.5 -75t75.5 -210q0 -192 -104 -301.5t-271 -109.5q-134 0 -208.5 74.5t-74.5 209.5zM322 1124q0 -170 153 -170q96 0 154.5 77.5t58.5 211.5q0 83 -40.5 126.5t-115.5 43.5q-95 0 -152.5 -77.5t-57.5 -211.5z" />
<glyph horiz-adv-x="811" d="M129 616l109 779q12 83 98 108q91 27 209 27q133 0 204.5 -73t71.5 -206q0 -193 -98.5 -302t-263.5 -109q-56 0 -154 28l-33 -225zM322 991q98 -23 145 -26q103 0 157 77t54 199q0 164 -154 164q-30 0 -67 -5.5t-59 -10.5l-21 -5z" />
<glyph horiz-adv-x="811" d="M176 1114q0 82 23.5 156t68 132.5t116.5 93t161 34.5q107 0 194 -25q47 -13 64.5 -38.5t11.5 -71.5l-104 -752l-144 -27l35 250q-86 -26 -166 -26q-130 0 -195 70.5t-65 203.5zM319 1120q0 -78 36 -116.5t114 -38.5q70 4 152 26l55 393q-89 21 -141 21q-102 0 -159 -80.5 t-57 -204.5z" />
<glyph horiz-adv-x="526" d="M158 844l75 551q12 83 105 106q61 18 122 23.5t165 5.5l-19 -129q-144 0 -233 -21l-76 -536h-139z" />
<glyph horiz-adv-x="751" d="M150 895l32 123l70 -23q133 -37 207 -37q49 0 86 19.5t37 60.5q0 52 -82 70l-125 31q-84 19 -124 59.5t-40 114.5q0 106 78 162.5t192 56.5t236 -37l67 -20l-36 -125l-72 22q-126 37 -205 37q-52 0 -85.5 -19t-33.5 -61q0 -56 80 -72l123 -30q86 -20 126 -59.5t40 -116.5 q0 -103 -79.5 -159t-192.5 -56q-112 0 -234 38z" />
<glyph horiz-adv-x="589" d="M172 1391l16 122h99l22 158l146 29l-27 -187h215l-16 -122h-215l-45 -322q-8 -57 7 -82.5t58 -25.5q47 0 131 24l10 -123q-101 -26 -165 -26q-106 0 -153 57.5t-32 167.5l47 330h-98z" />
<glyph horiz-adv-x="794" d="M193 1087l61 437h141l-59 -426q-7 -62 18.5 -97.5t98.5 -35.5q53 0 145 22l76 537h143l-76 -551q-7 -41 -34.5 -68.5t-67.5 -36.5q-110 -28 -215 -28q-138 0 -192.5 67t-38.5 180z" />
<glyph horiz-adv-x="751" d="M190 1524h150l98 -500l242 500h156l-318 -629q-31 -64 -106 -64q-77 0 -93 64z" />
<glyph horiz-adv-x="1056" d="M205 1524h147l19 -486l204 435q25 57 87 57q31 0 51 -14.5t24 -40.5l80 -435l158 484h147l-221 -619q-12 -34 -39 -54t-65 -20q-79 0 -88 68l-74 412l-199 -412q-26 -65 -104 -65q-85 0 -88 71z" />
<glyph horiz-adv-x="763" d="M92 844l295 346l-192 334h165l127 -234l185 234h170l-279 -336l195 -344h-166l-129 241l-199 -241h-172z" />
<glyph horiz-adv-x="741" d="M106 653l35 121q95 -24 129 -24q56 0 80 61l10 25l-170 688h154l111 -504l225 504h160l-357 -750q-67 -147 -223 -147q-73 0 -154 26z" />
<glyph horiz-adv-x="739" d="M141 909q0 45 37 82l412 416h-365l17 117h473q69 0 69 -64q0 -46 -36 -82l-412 -415h379l-17 -119h-487q-70 0 -70 65z" />
<glyph horiz-adv-x="1060" d="M492 1341q0 37 36 68l164 154h248l-309 -258q-40 -31 -74 -31q-30 0 -47.5 20t-17.5 47z" />
<glyph horiz-adv-x="1060" d="M354 1563h156q-10 -78 32 -122t120 -44q77 0 132.5 45t65.5 121h156q-18 -134 -124.5 -217.5t-246.5 -83.5q-142 0 -225.5 83.5t-65.5 217.5z" />
<glyph horiz-adv-x="1060" d="M328 1565h204l107 -166l152 166h217l-275 -256q-43 -43 -108 -43q-56 0 -93 43z" />
<glyph horiz-adv-x="1060" d="M258 -362l33 94q79 -35 147 -35q94 0 94 67q0 20 -13.5 33t-37 17.5t-54.5 6t-65 -0.5l-8 16l101 164h94l-62 -102q166 0 166 -131q0 -81 -61.5 -125.5t-155.5 -44.5q-86 0 -178 41z" />
<glyph horiz-adv-x="1060" d="M317 1270l273 256q54 43 108 43q52 0 95 -43l202 -256h-202l-109 164l-147 -164h-220z" />
<glyph horiz-adv-x="1099" d="M407 -389.5q-17 34.5 5 80.5l96 209h197l-121 -252q-37 -72 -107 -72q-53 0 -70 34.5z" />
<glyph horiz-adv-x="1060" d="M399 1427q0 67 35 106.5t92 39.5q97 0 97 -98q0 -65 -36 -104.5t-91 -39.5q-46 0 -71.5 25t-25.5 71zM791 1427q0 67 35.5 106.5t93.5 39.5q94 0 94 -98q0 -66 -36 -105t-91 -39q-45 0 -70.5 25.5t-25.5 70.5z" />
<glyph horiz-adv-x="1060" d="M555 1427q0 67 36 106.5t95 39.5q98 0 98 -98q0 -66 -37.5 -105t-93.5 -39q-47 0 -72.5 25t-25.5 71z" />
<glyph horiz-adv-x="1060" d="M479 1563h228l131 -158q26 -29 26 -62q0 -26 -18.5 -46.5t-52.5 -20.5q-27 0 -66 31z" />
<glyph horiz-adv-x="1060" d="M268 1327q0 32 33 70l168 166h221l-287 -267q-36 -32 -71 -32q-32 0 -48 18.5t-16 44.5zM635 1315q0 31 33 69l174 179h221l-293 -279q-37 -33 -70 -33q-32 0 -48.5 19t-16.5 45z" />
<glyph horiz-adv-x="1060" d="M326 1341l20 154h627l-21 -154h-626z" />
<glyph horiz-adv-x="1060" d="M272 -182q0 111 127 182l125 12l4 -12q-110 -61 -110 -147q0 -78 108 -78q87 0 193 39l22 -113q-119 -47 -231 -47t-175 43.5t-63 120.5z" />
<glyph horiz-adv-x="1060" d="M457 1442q0 108 71 177t172 69q85 0 139 -51t54 -140q0 -105 -74 -174.5t-172 -69.5q-85 0 -137.5 50.5t-52.5 138.5zM563 1448q0 -49 24.5 -75.5t69.5 -26.5q52 0 90.5 41.5t38.5 103.5q0 46 -26 74t-70 28q-56 0 -91.5 -42.5t-35.5 -102.5z" />
<glyph horiz-adv-x="1060" d="M246 1352q53 111 123 164t143 53q88 0 152 -58l67 -61q44 -35 74 -35q77 0 147 137l105 -69q-52 -110 -124 -162.5t-145 -52.5q-87 0 -151 61l-66 57q-30 35 -73 35q-80 0 -148 -137z" />
<glyph horiz-adv-x="1150" d="M-41 0l565 1096q42 86 148 86q96 0 119 -82l235 -1100h-184l-54 244h-505l-119 -244h-205zM352 391h410l-119 576z" />
<glyph horiz-adv-x="1134" d="M74 119q1 13 3 27.5t5 31.5t4 27l125 844q7 58 46.5 90t104.5 32h383q138 0 215.5 -65t77.5 -182q0 -142 -106 -260l-68 -76l64 -76q65 -77 65 -178q0 -157 -112.5 -245.5t-294.5 -88.5h-398q-56 0 -88.5 31.5t-25.5 87.5zM262 147h340q97 0 152 49t55 130q0 61 -39 112 l-63 78h-390zM336 662h387l63 79q66 80 66 170q0 72 -42.5 93.5t-152.5 21.5h-266z" />
<glyph horiz-adv-x="1130" d="M92 442q0 144 33.5 265t91.5 207t136.5 146t169.5 89t190 29q133 0 303 -56l94 -32l-47 -164l-105 39q-132 49 -249 49q-86 0 -160 -33t-133 -98t-93 -172.5t-34 -245.5q0 -158 75.5 -234.5t217.5 -76.5q87 0 266 51l115 35l8 -166l-99 -29q-179 -54 -315 -57 q-213 0 -339 113.5t-126 340.5z" />
<glyph horiz-adv-x="1210" d="M74 123l135 926q9 57 48.5 89.5t104.5 32.5h285q214 0 340.5 -123t126.5 -341q0 -146 -42.5 -274.5t-120.5 -225t-196.5 -152t-262.5 -55.5h-302q-62 0 -93 33.5t-23 89.5zM268 156h234q99 0 180.5 43t134 116t81 168t28.5 201q0 158 -80.5 246t-227.5 88h-225z" />
<glyph horiz-adv-x="1036" d="M74 123l137 926q8 57 47 89.5t104 32.5h656l-23 -155h-600l-51 -342h528l-24 -154h-526l-56 -366h602l-22 -154h-656q-64 0 -94.5 33.5t-21.5 89.5z" />
<glyph horiz-adv-x="1001" d="M55 0l156 1049q8 57 47 89.5t104 32.5h639l-22 -155h-584l-55 -365h534l-24 -149h-533l-71 -502h-191z" />
<glyph horiz-adv-x="1200" d="M94 475q0 135 34 249.5t93.5 197t140.5 140.5t175 86t196 28q135 0 316 -56l96 -30l-45 -166l-107 34q-157 54 -266 54q-91 0 -169.5 -32.5t-139.5 -96.5t-96 -169t-35 -241q0 -166 85 -250t236 -84q87 0 232 27l41 272h-273l21 148h319q65 0 96 -33.5t23 -91.5l-39 -266 q-10 -71 -39.5 -107.5t-81.5 -52.5q-155 -47 -317 -47q-150 0 -259 50t-173 161t-64 276z" />
<glyph horiz-adv-x="1185" d="M55 0l172 1171h189l-74 -501h532l72 501h189l-172 -1171h-189l76 520h-533l-73 -520h-189z" />
<glyph horiz-adv-x="477" d="M57 0l170 1171h193l-174 -1171h-189z" />
<glyph horiz-adv-x="688" d="M-31 27l41 161q121 -34 176 -34q122 0 142 155l127 862h188l-131 -878q-22 -148 -108.5 -223.5t-227.5 -75.5q-78 0 -207 33z" />
<glyph horiz-adv-x="1105" d="M55 0l172 1171h187l-90 -600l577 600h234l-410 -411l244 -760h-197l-205 610l-166 -166q-59 -59 -88 -106t-39 -115l-32 -223h-187z" />
<glyph horiz-adv-x="974" d="M74 123l153 1048h193l-150 -1013h555l-20 -158h-615q-64 0 -94.5 33.5t-21.5 89.5z" />
<glyph horiz-adv-x="1425" d="M55 0l158 1063q17 117 145 117q115 0 131 -99l173 -837l430 837q44 99 157 99q60 0 90 -28.5t21 -86.5l-156 -1065h-176l129 862l-405 -796q-35 -72 -127 -72q-90 0 -103 72l-168 796l-125 -862h-174z" />
<glyph horiz-adv-x="1222" d="M55 0l158 1067q9 56 45 85.5t94 29.5q47 0 75 -18.5t46 -57.5l389 -819l133 884h174l-155 -1062q-9 -57 -46.5 -87t-95.5 -30q-89 0 -116 76l-394 821l-129 -889h-178z" />
<glyph horiz-adv-x="1302" d="M94 457q0 167 49.5 304t136.5 227.5t203 140t250 49.5q218 0 345 -123t128 -346q0 -167 -49.5 -304t-136 -227.5t-203 -140t-250.5 -49.5q-216 0 -343 123t-130 346zM287 475q0 -163 79.5 -248.5t223.5 -85.5q186 0 306 147.5t120 403.5q0 161 -80 247.5t-223 86.5 q-186 0 -306 -148t-120 -403z" />
<glyph horiz-adv-x="1067" d="M55 0l156 1049q8 57 47 89.5t104 32.5h326q151 0 236.5 -82t85.5 -229q0 -180 -119 -299t-305 -119h-283l-63 -442h-185zM326 590h268q108 0 174 73.5t66 188.5q0 82 -44 127t-126 45h-273z" />
<glyph horiz-adv-x="1302" d="M94 459q0 166 48.5 302.5t133.5 227.5t201 140t250 49q226 0 351.5 -126t125.5 -358q0 -208 -87.5 -368.5t-258.5 -243.5q109 -39 186 -39h72l-22 -147h-76q-70 0 -131.5 16t-99 36t-90.5 36t-109 16q-227 0 -360.5 118.5t-133.5 340.5zM285 475q0 -161 80.5 -245.5 t226.5 -84.5q193 0 311.5 152t118.5 391q0 162 -81 251t-228 89q-185 0 -306.5 -149.5t-121.5 -403.5z" />
<glyph horiz-adv-x="1110" d="M55 0l156 1049q7 58 46.5 90t104.5 32h361q145 0 227 -70t82 -196q0 -168 -127 -295l-100 -108l170 -502h-197l-149 455h-322l-65 -455h-187zM330 600h354l70 78q96 107 96 213q0 62 -37 96.5t-111 34.5h-311z" />
<glyph horiz-adv-x="1067" d="M39 86l51 162l98 -35q191 -68 334 -68q96 0 158.5 48.5t62.5 138.5q0 108 -137 145l-205 55q-128 33 -188.5 100.5t-60.5 184.5q0 89 34.5 160t92.5 114.5t131 66t155 22.5q158 0 369 -68l96 -33l-51 -164l-102 39q-179 66 -320 66q-89 0 -153 -48t-64 -138 q0 -57 29.5 -92.5t99.5 -55.5l205 -55q134 -35 195 -99.5t61 -183.5q0 -89 -36.5 -159.5t-97 -113t-133.5 -65t-151 -22.5q-203 0 -383 65z" />
<glyph horiz-adv-x="1042" d="M133 1018l27 153h899l-23 -153h-352l-152 -1018h-190l150 1018h-359z" />
<glyph horiz-adv-x="1193" d="M109 428l110 743h184l-108 -747q-20 -129 40.5 -208t196.5 -79q140 0 219.5 74t98.5 213l111 747h190l-111 -747q-30 -210 -165.5 -328.5t-356.5 -118.5q-220 0 -330.5 120t-78.5 331z" />
<glyph horiz-adv-x="1122" d="M129 1171h188l189 -944l461 944h198l-555 -1099q-42 -82 -137 -82q-102 0 -115 80z" />
<glyph horiz-adv-x="1503" d="M145 1171h183l24 -907l363 832q14 32 49 53.5t76 21.5q91 0 100 -73l113 -840l295 913h184l-361 -1089q-32 -94 -145 -94q-104 0 -113 84l-110 835l-369 -833q-19 -44 -51.5 -64t-85.5 -20q-108 0 -111 92z" />
<glyph horiz-adv-x="1171" d="M-8 0l481 594l-303 577h215l223 -438l350 438h220l-467 -579l301 -592h-211l-223 459l-359 -459h-227z" />
<glyph horiz-adv-x="1122" d="M121 1171h209l245 -505l379 505h222l-527 -667l-74 -504h-192l74 496z" />
<glyph horiz-adv-x="1087" d="M33 86q3 57 43 102l733 834h-623l23 149h749q48 0 70.5 -24t20.5 -64q-3 -50 -43 -96l-727 -837h639l-23 -150h-774q-46 0 -68 23t-20 63z" />
<glyph horiz-adv-x="1150" d="M-41 0l565 1096q42 86 148 86q96 0 119 -82l235 -1100h-184l-54 244h-505l-119 -244h-205zM352 391h410l-119 576zM485 1563h228l131 -158q26 -29 26 -62q0 -26 -18.5 -46.5t-52.5 -20.5q-27 0 -66 31z" />
<glyph horiz-adv-x="1150" d="M-41 0l565 1096q42 86 148 86q96 0 119 -82l235 -1100h-184l-54 244h-505l-119 -244h-205zM352 391h410l-119 576zM504 1341q0 36 37 68l164 154h247l-309 -258q-40 -31 -74 -31q-30 0 -47.5 20t-17.5 47z" />
<glyph horiz-adv-x="1150" d="M-41 0l565 1096q42 86 148 86q96 0 119 -82l235 -1100h-184l-54 244h-505l-119 -244h-205zM334 1270l272 256q54 43 109 43q51 0 94 -43l203 -256h-203l-109 164l-147 -164h-219zM352 391h410l-119 576z" />
<glyph horiz-adv-x="1150" d="M-41 0l565 1096q42 86 148 86q96 0 119 -82l235 -1100h-184l-54 244h-505l-119 -244h-205zM289 1352q53 111 123 164t143 53q88 0 152 -58l67 -61q44 -35 74 -35q77 0 147 137l105 -69q-52 -110 -124 -162.5t-145 -52.5q-87 0 -151 61l-66 57q-30 35 -73 35 q-80 0 -148 -137zM352 391h410l-119 576z" />
<glyph horiz-adv-x="1150" d="M-41 0l565 1096q42 86 148 86q96 0 119 -82l235 -1100h-184l-54 244h-505l-119 -244h-205zM352 391h410l-119 576zM403 1427q0 67 35 106.5t92 39.5q97 0 97 -98q0 -65 -36 -104.5t-91 -39.5q-46 0 -71.5 25t-25.5 71zM795 1427q0 67 35.5 106.5t93.5 39.5q94 0 94 -98 q0 -66 -36 -105t-91 -39q-45 0 -70.5 25.5t-25.5 70.5z" />
<glyph horiz-adv-x="1150" d="M-41 0l565 1096q42 86 148 86q96 0 119 -82l235 -1100h-184l-54 244h-505l-119 -244h-205zM352 391h410l-119 576zM502 1444q0 108 71 177t172 69q85 0 139 -51t54 -140q0 -105 -74 -174.5t-172 -69.5q-85 0 -137.5 50.5t-52.5 138.5zM608 1450q0 -49 24.5 -75.5 t69.5 -26.5q52 0 90.5 41.5t38.5 103.5q0 46 -26 74t-70 28q-56 0 -91.5 -42.5t-35.5 -102.5z" />
<glyph horiz-adv-x="1665" d="M-43 0l586 1055q34 64 78 90t112 26h912l-23 -151h-600l-49 -346h538l-22 -150h-539l-55 -372h606l-24 -152h-656q-62 0 -93 32t-23 87l20 127h-434l-133 -246h-201zM369 391h374l97 629h-135z" />
<glyph horiz-adv-x="1150" d="M-41 0l565 1096q42 86 148 86q96 0 119 -82l235 -1100h-184l-54 244h-505l-119 -244h-205zM352 391h410l-119 576zM373 1341l20 154h627l-21 -154h-626z" />
<glyph horiz-adv-x="1150" d="M-41 0l565 1096q42 86 148 86q96 0 119 -82l235 -1100h-184l-54 244h-505l-119 -244h-205zM352 391h410l-119 576zM395 1563h156q-10 -78 31.5 -122t119.5 -44q77 0 133 45t66 121h156q-18 -134 -124.5 -217.5t-246.5 -83.5q-142 0 -225.5 83.5t-65.5 217.5z" />
<glyph horiz-adv-x="1150" d="M-41 0l565 1096q42 86 148 86q96 0 119 -82l235 -1100q-111 -62 -111 -147q0 -78 109 -78q87 0 193 39l22 -113q-119 -47 -231 -47t-175 43.5t-63 120.5q0 111 127 182h-55l-54 244h-505l-119 -244h-205zM352 391h410l-119 576z" />
<glyph horiz-adv-x="1130" d="M92 442q0 144 33.5 265t91.5 207t136.5 146t169.5 89t190 29q133 0 303 -56l94 -32l-47 -164l-105 39q-132 49 -249 49q-86 0 -160 -33t-133 -98t-93 -172.5t-34 -245.5q0 -158 75.5 -234.5t217.5 -76.5q87 0 266 51l115 35l8 -166l-99 -29q-169 -51 -299 -57l-53 -90 q166 0 166 -131q0 -81 -61.5 -125.5t-155.5 -44.5q-86 0 -178 41l33 94q79 -35 147 -35q94 0 94 67q0 20 -13.5 33t-37 17.5t-54 6t-65.5 -0.5l-8 16l94 156q-180 20 -284.5 131.5t-104.5 318.5z" />
<glyph horiz-adv-x="1130" d="M92 442q0 144 33.5 265t91.5 207t136.5 146t169.5 89t190 29q133 0 303 -56l94 -32l-47 -164l-105 39q-132 49 -249 49q-86 0 -160 -33t-133 -98t-93 -172.5t-34 -245.5q0 -158 75.5 -234.5t217.5 -76.5q87 0 266 51l115 35l8 -166l-99 -29q-179 -54 -315 -57 q-213 0 -339 113.5t-126 340.5zM629 1341q0 36 37 68l163 154h248l-309 -258q-40 -31 -74 -31q-30 0 -47.5 20t-17.5 47z" />
<glyph horiz-adv-x="1130" d="M92 442q0 144 33.5 265t91.5 207t136.5 146t169.5 89t190 29q133 0 303 -56l94 -32l-47 -164l-105 39q-132 49 -249 49q-86 0 -160 -33t-133 -98t-93 -172.5t-34 -245.5q0 -158 75.5 -234.5t217.5 -76.5q87 0 266 51l115 35l8 -166l-99 -29q-179 -54 -315 -57 q-213 0 -339 113.5t-126 340.5zM389 1270l273 256q54 43 108 43q51 0 94 -43l203 -256h-203l-108 164l-148 -164h-219z" />
<glyph horiz-adv-x="1130" d="M92 442q0 144 33.5 265t91.5 207t136.5 146t169.5 89t190 29q133 0 303 -56l94 -32l-47 -164l-105 39q-132 49 -249 49q-86 0 -160 -33t-133 -98t-93 -172.5t-34 -245.5q0 -158 75.5 -234.5t217.5 -76.5q87 0 266 51l115 35l8 -166l-99 -29q-179 -54 -315 -57 q-213 0 -339 113.5t-126 340.5zM664 1427q0 67 36 106.5t95 39.5q98 0 98 -98q0 -66 -37.5 -105t-93.5 -39q-47 0 -72.5 25t-25.5 71z" />
<glyph horiz-adv-x="1130" d="M92 442q0 144 33.5 265t91.5 207t136.5 146t169.5 89t190 29q133 0 303 -56l94 -32l-47 -164l-105 39q-132 49 -249 49q-86 0 -160 -33t-133 -98t-93 -172.5t-34 -245.5q0 -158 75.5 -234.5t217.5 -76.5q87 0 266 51l115 35l8 -166l-99 -29q-179 -54 -315 -57 q-213 0 -339 113.5t-126 340.5zM434 1565h205l106 -166l152 166h217l-274 -256q-43 -43 -109 -43q-55 0 -92 43z" />
<glyph horiz-adv-x="1210" d="M74 123l135 926q9 57 48.5 89.5t104.5 32.5h285q214 0 340.5 -123t126.5 -341q0 -146 -42.5 -274.5t-120.5 -225t-196.5 -152t-262.5 -55.5h-302q-62 0 -93 33.5t-23 89.5zM268 156h234q99 0 180.5 43t134 116t81 168t28.5 201q0 158 -80.5 246t-227.5 88h-225zM365 1565 h204l107 -166l151 166h217l-274 -256q-43 -43 -108 -43q-56 0 -93 43z" />
<glyph horiz-adv-x="1206" d="M31 528l20 138h107l57 378q9 61 49 94t103 33h286q214 0 340.5 -123t126.5 -341q0 -146 -43 -274.5t-121 -225t-197 -152t-263 -55.5h-301q-63 0 -93.5 39.5t-21.5 103.5l57 385h-106zM272 156h236q98 0 179 43t133.5 116t81 168t28.5 201q0 182 -94.5 258t-284.5 76 h-152l-53 -352h324l-21 -138h-323z" />
<glyph horiz-adv-x="1036" d="M74 123l137 926q8 57 47 89.5t104 32.5h656l-23 -155h-600l-51 -342h528l-24 -154h-526l-56 -366h602l-22 -154h-656q-64 0 -94.5 33.5t-21.5 89.5zM381 1563h227l131 -158q27 -30 27 -62q0 -26 -19 -46.5t-53 -20.5q-26 0 -65 31z" />
<glyph horiz-adv-x="1036" d="M74 123l137 926q8 57 47 89.5t104 32.5h656l-23 -155h-600l-51 -342h528l-24 -154h-526l-56 -366h602l-22 -154h-656q-64 0 -94.5 33.5t-21.5 89.5zM539 1341q0 37 36 68l164 154h248l-309 -258q-40 -31 -74 -31q-30 0 -47.5 20t-17.5 47z" />
<glyph horiz-adv-x="1036" d="M74 123l137 926q8 57 47 89.5t104 32.5h656l-23 -155h-600l-51 -342h528l-24 -154h-526l-56 -366h602l-22 -154h-656q-64 0 -94.5 33.5t-21.5 89.5zM305 1270l273 256q54 43 108 43q51 0 94 -43l203 -256h-203l-108 164l-148 -164h-219z" />
<glyph horiz-adv-x="1036" d="M74 123l137 926q8 57 47 89.5t104 32.5h656l-23 -155h-600l-51 -342h528l-24 -154h-526l-56 -366h602l-22 -154h-656q-64 0 -94.5 33.5t-21.5 89.5zM365 1427q0 67 35 106.5t92 39.5q96 0 96 -98q0 -65 -36 -104.5t-91 -39.5q-46 0 -71 25t-25 71zM756 1427 q0 67 35.5 106.5t93.5 39.5q94 0 94 -98q0 -66 -36 -105t-91 -39q-45 0 -70.5 25.5t-25.5 70.5z" />
<glyph horiz-adv-x="1036" d="M74 123l137 926q8 57 47 89.5t104 32.5h656l-23 -155h-600l-51 -342h528l-24 -154h-526l-56 -366h602l-22 -154h-656q-64 0 -94.5 33.5t-21.5 89.5zM342 1341l20 154h627l-20 -154h-627z" />
<glyph horiz-adv-x="1036" d="M74 123l137 926q8 57 47 89.5t104 32.5h656l-23 -155h-600l-51 -342h528l-24 -154h-526l-56 -366h602l-22 -154h-656q-64 0 -94.5 33.5t-21.5 89.5zM354 1563h156q-10 -78 32 -122t120 -44q77 0 132.5 45t65.5 121h156q-18 -134 -124.5 -217.5t-246.5 -83.5 q-142 0 -225.5 83.5t-65.5 217.5z" />
<glyph horiz-adv-x="1036" d="M74 123l137 926q8 57 47 89.5t104 32.5h656l-23 -155h-600l-51 -342h528l-24 -154h-526l-56 -366h602l-22 -154h-656q-64 0 -94.5 33.5t-21.5 89.5zM555 1427q0 67 36 106.5t95 39.5q98 0 98 -98q0 -66 -37.5 -105t-93.5 -39q-47 0 -72.5 25t-25.5 71z" />
<glyph horiz-adv-x="1036" d="M74 123l137 926q8 57 47 89.5t104 32.5h656l-23 -155h-600l-51 -342h528l-24 -154h-526l-56 -366h602l-22 -154h-111q-110 -61 -110 -147q0 -78 108 -78q87 0 193 39l22 -113q-119 -47 -231 -47t-175 43.5t-63 120.5q0 111 127 182h-416q-64 0 -94.5 33.5t-21.5 89.5z " />
<glyph horiz-adv-x="1036" d="M74 123l137 926q8 57 47 89.5t104 32.5h656l-23 -155h-600l-51 -342h528l-24 -154h-526l-56 -366h602l-22 -154h-656q-64 0 -94.5 33.5t-21.5 89.5zM346 1565h205l106 -166l152 166h217l-274 -256q-43 -43 -109 -43q-55 0 -92 43z" />
<glyph horiz-adv-x="1200" d="M94 475q0 135 34 249.5t93.5 197t140.5 140.5t175 86t196 28q135 0 316 -56l96 -30l-45 -166l-107 34q-157 54 -266 54q-91 0 -169.5 -32.5t-139.5 -96.5t-96 -169t-35 -241q0 -166 85 -250t236 -84q87 0 232 27l41 272h-273l21 148h319q65 0 96 -33.5t23 -91.5l-39 -266 q-10 -71 -39.5 -107.5t-81.5 -52.5q-155 -47 -317 -47q-150 0 -259 50t-173 161t-64 276zM397 1270l273 256q54 43 108 43q51 0 94 -43l203 -256h-203l-108 164l-148 -164h-219z" />
<glyph horiz-adv-x="1200" d="M94 475q0 135 34 249.5t93.5 197t140.5 140.5t175 86t196 28q135 0 316 -56l96 -30l-45 -166l-107 34q-157 54 -266 54q-91 0 -169.5 -32.5t-139.5 -96.5t-96 -169t-35 -241q0 -166 85 -250t236 -84q87 0 232 27l41 272h-273l21 148h319q65 0 96 -33.5t23 -91.5l-39 -266 q-10 -71 -39.5 -107.5t-81.5 -52.5q-155 -47 -317 -47q-150 0 -259 50t-173 161t-64 276zM469 1563h156q-10 -78 31.5 -122t119.5 -44q77 0 133 45t66 121h155q-18 -134 -124.5 -217.5t-245.5 -83.5q-142 0 -225.5 83.5t-65.5 217.5z" />
<glyph horiz-adv-x="1200" d="M94 475q0 135 34 249.5t93.5 197t140.5 140.5t175 86t196 28q135 0 316 -56l96 -30l-45 -166l-107 34q-157 54 -266 54q-91 0 -169.5 -32.5t-139.5 -96.5t-96 -169t-35 -241q0 -166 85 -250t236 -84q87 0 232 27l41 272h-273l21 148h319q65 0 96 -33.5t23 -91.5l-39 -266 q-10 -71 -39.5 -107.5t-81.5 -52.5q-155 -47 -317 -47q-150 0 -259 50t-173 161t-64 276zM676 1432q0 67 36 106t95 39q98 0 98 -98q0 -66 -37.5 -105t-93.5 -39q-47 0 -72.5 25.5t-25.5 71.5z" />
<glyph horiz-adv-x="1200" d="M94 475q0 135 34 249.5t93.5 197t140.5 140.5t175 86t196 28q135 0 316 -56l96 -30l-45 -166l-107 34q-157 54 -266 54q-91 0 -169.5 -32.5t-139.5 -96.5t-96 -169t-35 -241q0 -166 85 -250t236 -84q87 0 232 27l41 272h-273l21 148h319q65 0 96 -33.5t23 -91.5l-39 -266 q-10 -71 -39.5 -107.5t-81.5 -52.5q-155 -47 -317 -47q-150 0 -259 50t-173 161t-64 276zM382.5 -389.5q-17.5 34.5 4.5 80.5l96 209h197l-121 -252q-37 -72 -106 -72q-53 0 -70.5 34.5z" />
<glyph horiz-adv-x="1185" d="M55 0l172 1171h189l-74 -501h532l72 501h189l-172 -1171h-189l76 520h-533l-73 -520h-189zM354 1270l273 256q54 43 108 43q51 0 94 -43l203 -256h-203l-108 164l-148 -164h-219z" />
<glyph horiz-adv-x="1185" d="M55 0l121 825h-115l21 138h115l30 208h189l-31 -208h530l31 208h189l-31 -208h115l-21 -138h-115l-120 -825h-189l76 520h-533l-73 -520h-189zM342 670h532l23 155h-532z" />
<glyph horiz-adv-x="477" d="M57 0l170 1171h193l-174 -1171h-189zM102 1563h228l131 -158q26 -29 26 -62q0 -26 -18.5 -46.5t-52.5 -20.5q-27 0 -66 31z" />
<glyph horiz-adv-x="477" d="M57 0l170 1171h193l-174 -1171h-189zM211 1341q0 36 37 68l164 154h247l-309 -258q-40 -31 -74 -31q-30 0 -47.5 20t-17.5 47z" />
<glyph horiz-adv-x="477" d="M-8 1270l272 256q54 43 109 43q51 0 94 -43l203 -256h-203l-109 164l-147 -164h-219zM57 0l170 1171h193l-174 -1171h-189z" />
<glyph horiz-adv-x="477" d="M57 0l170 1171h193l-174 -1171h-189zM61 1427q0 67 35 106.5t92 39.5q97 0 97 -98q0 -65 -36 -104.5t-91 -39.5q-46 0 -71.5 25t-25.5 71zM453 1427q0 67 35.5 106.5t93.5 39.5q94 0 94 -98q0 -66 -36 -105t-91 -39q-45 0 -70.5 25.5t-25.5 70.5z" />
<glyph horiz-adv-x="477" d="M-47 1352q53 111 123 164t143 53q88 0 152 -58l67 -61q44 -35 74 -35q77 0 147 137l105 -69q-52 -110 -124 -162.5t-144 -52.5q-88 0 -152 61l-65 57q-30 35 -74 35q-80 0 -148 -137zM57 0l170 1171h193l-174 -1171h-189z" />
<glyph horiz-adv-x="477" d="M33 1341l20 154h627l-21 -154h-626zM57 0l170 1171h193l-174 -1171h-189z" />
<glyph horiz-adv-x="477" d="M49 1563h156q-10 -78 31.5 -122t119.5 -44q77 0 133 45t66 121h156q-18 -134 -124.5 -217.5t-246.5 -83.5q-142 0 -225.5 83.5t-65.5 217.5zM57 0l170 1171h193l-174 -1171h-189z" />
<glyph horiz-adv-x="477" d="M-10 -182q0 111 127 182h-60l170 1171h193l-174 -1171q-111 -62 -111 -147q0 -78 109 -78q86 0 192 39l23 -113q-119 -47 -232 -47q-112 0 -174.5 43.5t-62.5 120.5z" />
<glyph horiz-adv-x="477" d="M57 0l170 1171h193l-174 -1171h-189zM252 1427q0 67 36 106.5t95 39.5q98 0 98 -98q0 -66 -37.5 -105t-93.5 -39q-47 0 -72.5 25t-25.5 71z" />
<glyph horiz-adv-x="1167" d="M57 0l170 1171h193l-174 -1171h-189zM446 27l41 161q121 -34 177 -34q121 0 141 155l127 862h188l-131 -878q-22 -148 -108.5 -223.5t-227.5 -75.5q-78 0 -207 33z" />
<glyph horiz-adv-x="688" d="M-31 27l41 161q121 -34 176 -34q122 0 142 155l127 862h188l-131 -878q-22 -148 -108.5 -223.5t-227.5 -75.5q-78 0 -207 33zM211 1270l272 256q54 43 109 43q51 0 94 -43l203 -256h-203l-108 164l-148 -164h-219z" />
<glyph horiz-adv-x="1105" d="M55 0l172 1171h187l-90 -600l577 600h234l-410 -411l244 -760h-197l-205 610l-166 -166q-59 -59 -88 -106t-39 -115l-32 -223h-187zM290 -389.5q-17 34.5 5 80.5l96 209h197l-121 -252q-37 -72 -107 -72q-53 0 -70 34.5z" />
<glyph horiz-adv-x="978" d="M25 494l24 157l113 47l69 473h193l-57 -385l268 115l-27 -160l-264 -112l-70 -471h555l-20 -158h-614q-64 0 -95 33.5t-22 89.5l61 420z" />
<glyph horiz-adv-x="974" d="M74 123l153 1048h193l-150 -1013h555l-20 -158h-615q-64 0 -94.5 33.5t-21.5 89.5zM471 1341q0 36 37 68l164 154h248l-310 -258q-40 -31 -73 -31q-31 0 -48.5 20t-17.5 47z" />
<glyph horiz-adv-x="974" d="M74 123l153 1048h193l-150 -1013h555l-20 -158h-615q-64 0 -94.5 33.5t-21.5 89.5zM241 -389.5q-17 34.5 5 80.5l96 209h197l-121 -252q-37 -72 -107 -72q-53 0 -70 34.5z" />
<glyph horiz-adv-x="974" d="M74 123l153 1048h193l-150 -1013h555l-20 -158h-615q-64 0 -94.5 33.5t-21.5 89.5zM544 842.5q-16 33.5 5 77.5l135 329h182l-155 -370q-29 -70 -101 -70q-50 0 -66 33.5z" />
<glyph horiz-adv-x="974" d="M74 123l153 1048h193l-150 -1013h555l-20 -158h-615q-64 0 -94.5 33.5t-21.5 89.5zM549 586q0 69 39 104t88 35q39 0 63.5 -23.5t24.5 -70.5q0 -67 -36.5 -100t-86.5 -33q-41 0 -66.5 21.5t-25.5 66.5z" />
<glyph horiz-adv-x="1222" d="M55 0l158 1067q9 56 45 85.5t94 29.5q47 0 75 -18.5t46 -57.5l389 -819l133 884h174l-155 -1062q-9 -57 -46.5 -87t-95.5 -30q-89 0 -116 76l-394 821l-129 -889h-178zM340 1352q53 111 123 164t143 53q88 0 152 -58l67 -61q44 -35 74 -35q78 0 148 137l104 -69 q-52 -110 -124 -162.5t-144 -52.5q-88 0 -152 61l-65 57q-30 35 -74 35q-80 0 -148 -137z" />
<glyph horiz-adv-x="1222" d="M55 0l158 1067q9 56 45 85.5t94 29.5q47 0 75 -18.5t46 -57.5l389 -819l133 884h174l-155 -1062q-9 -57 -46.5 -87t-95.5 -30q-89 0 -116 76l-394 821l-129 -889h-178zM643 1341q0 36 37 68l164 154h248l-310 -258q-40 -31 -73 -31q-31 0 -48.5 20t-17.5 47z" />
<glyph horiz-adv-x="1222" d="M55 0l158 1067q9 56 45 85.5t94 29.5q47 0 75 -18.5t46 -57.5l389 -819l133 884h174l-155 -1062q-9 -57 -46.5 -87t-95.5 -30q-89 0 -116 76l-394 821l-129 -889h-178zM339.5 -389.5q-17.5 34.5 4.5 80.5l96 209h197l-121 -252q-37 -72 -106 -72q-53 0 -70.5 34.5z" />
<glyph horiz-adv-x="1222" d="M55 0l158 1067q9 56 45 85.5t94 29.5q47 0 75 -18.5t46 -57.5l389 -819l133 884h174l-155 -1062q-9 -57 -46.5 -87t-95.5 -30q-89 0 -116 76l-394 821l-129 -889h-178zM420 1565h205l106 -166l152 166h217l-275 -256q-43 -43 -108 -43q-55 0 -92 43z" />
<glyph horiz-adv-x="1222" d="M55 0l158 1067q18 115 137 115q47 0 74 -17.5t47 -50.5l401 -778l125 835h174l-186 -1257q-20 -139 -111 -212t-241 -73l20 140q139 3 158 147l14 98l-463 885l-129 -899h-178z" />
<glyph horiz-adv-x="1304" d="M94 457q0 167 49.5 304t136.5 227.5t203 140t250 49.5q218 0 345 -123t128 -346q0 -167 -49.5 -304t-136 -227.5t-203 -140t-250.5 -49.5q-216 0 -343 123t-130 346zM287 475q0 -163 79.5 -248.5t223.5 -85.5q186 0 306 147.5t120 403.5q0 161 -80 247.5t-223 86.5 q-186 0 -306 -148t-120 -403zM545 1563h227l131 -158q27 -30 27 -62q0 -26 -19 -46.5t-53 -20.5q-26 0 -65 31z" />
<glyph horiz-adv-x="1304" d="M94 457q0 167 49.5 304t136.5 227.5t203 140t250 49.5q218 0 345 -123t128 -346q0 -167 -49.5 -304t-136 -227.5t-203 -140t-250.5 -49.5q-216 0 -343 123t-130 346zM287 475q0 -163 79.5 -248.5t223.5 -85.5q186 0 306 147.5t120 403.5q0 161 -80 247.5t-223 86.5 q-186 0 -306 -148t-120 -403zM600 1341q0 36 37 68l164 154h248l-310 -258q-40 -31 -73 -31q-31 0 -48.5 20t-17.5 47z" />
<glyph horiz-adv-x="1304" d="M94 457q0 167 49.5 304t136.5 227.5t203 140t250 49.5q218 0 345 -123t128 -346q0 -167 -49.5 -304t-136 -227.5t-203 -140t-250.5 -49.5q-216 0 -343 123t-130 346zM287 475q0 -163 79.5 -248.5t223.5 -85.5q186 0 306 147.5t120 403.5q0 161 -80 247.5t-223 86.5 q-186 0 -306 -148t-120 -403zM414 1270l272 256q54 43 109 43q51 0 94 -43l203 -256h-203l-109 164l-147 -164h-219z" />
<glyph horiz-adv-x="1304" d="M94 457q0 167 49.5 304t136.5 227.5t203 140t250 49.5q218 0 345 -123t128 -346q0 -167 -49.5 -304t-136 -227.5t-203 -140t-250.5 -49.5q-216 0 -343 123t-130 346zM287 475q0 -163 79.5 -248.5t223.5 -85.5q186 0 306 147.5t120 403.5q0 161 -80 247.5t-223 86.5 q-186 0 -306 -148t-120 -403zM383 1352q53 111 123 164t143 53q88 0 152 -58l67 -61q44 -35 74 -35q78 0 148 137l104 -69q-52 -110 -124 -162.5t-144 -52.5q-88 0 -152 61l-65 57q-30 35 -74 35q-80 0 -148 -137z" />
<glyph horiz-adv-x="1304" d="M94 457q0 167 49.5 304t136.5 227.5t203 140t250 49.5q218 0 345 -123t128 -346q0 -167 -49.5 -304t-136 -227.5t-203 -140t-250.5 -49.5q-216 0 -343 123t-130 346zM287 475q0 -163 79.5 -248.5t223.5 -85.5q186 0 306 147.5t120 403.5q0 161 -80 247.5t-223 86.5 q-186 0 -306 -148t-120 -403zM487 1427q0 67 35 106.5t92 39.5q97 0 97 -98q0 -65 -36 -104.5t-91 -39.5q-46 0 -71.5 25t-25.5 71zM879 1427q0 67 35.5 106.5t93.5 39.5q94 0 94 -98q0 -66 -36 -105t-91 -39q-45 0 -70.5 25.5t-25.5 70.5z" />
<glyph horiz-adv-x="1304" d="M94 457q0 167 49.5 304t136.5 227.5t203 140t250 49.5q119 0 209 -37l72 104h160l-117 -172q146 -124 149 -364q0 -167 -49.5 -304t-136 -227.5t-203 -140t-250.5 -49.5q-127 0 -215 39l-71 -107h-162l119 176q-141 125 -144 361zM287 475q0 -144 57 -221l504 745 q-66 27 -135 27q-186 0 -306 -148t-120 -403zM446 168q62 -27 144 -27q186 0 306 147.5t120 403.5q0 140 -64 226z" />
<glyph horiz-adv-x="1769" d="M96 475q0 193 76 351t217 251.5t320 93.5h1042l-22 -155h-599l-49 -342h523l-21 -152h-524l-55 -366h602l-23 -156h-1016q-219 0 -345 124.5t-126 350.5zM285 477q0 -154 77 -236.5t220 -82.5h233l129 860h-223q-100 0 -184 -45t-138 -121t-84 -173t-30 -202z" />
<glyph horiz-adv-x="1304" d="M94 457q0 167 49.5 304t136.5 227.5t203 140t250 49.5q218 0 345 -123t128 -346q0 -167 -49.5 -304t-136 -227.5t-203 -140t-250.5 -49.5q-216 0 -343 123t-130 346zM287 475q0 -163 79.5 -248.5t223.5 -85.5q186 0 306 147.5t120 403.5q0 161 -80 247.5t-223 86.5 q-186 0 -306 -148t-120 -403zM461 1341l20 154h627l-21 -154h-626z" />
<glyph horiz-adv-x="1304" d="M94 457q0 167 49.5 304t136.5 227.5t203 140t250 49.5q218 0 345 -123t128 -346q0 -167 -49.5 -304t-136 -227.5t-203 -140t-250.5 -49.5q-216 0 -343 123t-130 346zM287 475q0 -163 79.5 -248.5t223.5 -85.5q186 0 306 147.5t120 403.5q0 161 -80 247.5t-223 86.5 q-186 0 -306 -148t-120 -403zM475 1563h156q-10 -78 31.5 -122t119.5 -44q77 0 133 45t66 121h156q-18 -134 -124.5 -217.5t-246.5 -83.5q-142 0 -225.5 83.5t-65.5 217.5z" />
<glyph horiz-adv-x="1304" d="M94 457q0 167 49.5 304t136.5 227.5t203 140t250 49.5q218 0 345 -123t128 -346q0 -167 -49.5 -304t-136 -227.5t-203 -140t-250.5 -49.5q-216 0 -343 123t-130 346zM287 475q0 -163 79.5 -248.5t223.5 -85.5q186 0 306 147.5t120 403.5q0 161 -80 247.5t-223 86.5 q-186 0 -306 -148t-120 -403zM494 1327q0 33 32 70l168 166h221l-286 -267q-36 -32 -72 -32q-31 0 -47 18.5t-16 44.5zM860 1315q0 31 33 69l174 179h221l-293 -279q-37 -33 -69 -33t-49 19t-17 45z" />
<glyph horiz-adv-x="1107" d="M55 0l156 1049q7 58 46.5 90t104.5 32h361q145 0 227 -70t82 -196q0 -168 -127 -295l-100 -108l170 -502h-197l-149 455h-322l-65 -455h-187zM330 600h354l70 78q96 107 96 213q0 62 -37 96.5t-111 34.5h-311zM547 1341q0 36 37 68l164 154h247l-309 -258 q-40 -31 -74 -31q-30 0 -47.5 20t-17.5 47z" />
<glyph horiz-adv-x="1107" d="M55 0l156 1049q7 58 46.5 90t104.5 32h361q145 0 227 -70t82 -196q0 -168 -127 -295l-100 -108l170 -502h-197l-149 455h-322l-65 -455h-187zM308.5 -389.5q-17.5 34.5 4.5 80.5l97 209h196l-121 -252q-37 -72 -106 -72q-53 0 -70.5 34.5zM330 600h354l70 78 q96 107 96 213q0 62 -37 96.5t-111 34.5h-311z" />
<glyph horiz-adv-x="1107" d="M55 0l156 1049q7 58 46.5 90t104.5 32h361q145 0 227 -70t82 -196q0 -168 -127 -295l-100 -108l170 -502h-197l-149 455h-322l-65 -455h-187zM330 600h354l70 78q96 107 96 213q0 62 -37 96.5t-111 34.5h-311zM342 1565h205l106 -166l152 166h217l-274 -256 q-43 -43 -109 -43q-55 0 -92 43z" />
<glyph horiz-adv-x="1067" d="M39 86l51 162l98 -35q191 -68 334 -68q96 0 158.5 48.5t62.5 138.5q0 108 -137 145l-205 55q-128 33 -188.5 100.5t-60.5 184.5q0 89 34.5 160t92.5 114.5t131 66t155 22.5q158 0 369 -68l96 -33l-51 -164l-102 39q-179 66 -320 66q-89 0 -153 -48t-64 -138 q0 -57 29.5 -92.5t99.5 -55.5l205 -55q134 -35 195 -99.5t61 -183.5q0 -89 -36.5 -159.5t-97 -113t-133.5 -65t-151 -22.5q-203 0 -383 65zM518 1341q0 36 37 68l164 154h248l-310 -258q-40 -31 -73 -31q-31 0 -48.5 20t-17.5 47z" />
<glyph horiz-adv-x="1067" d="M39 86l51 162l98 -35q191 -68 334 -68q96 0 158.5 48.5t62.5 138.5q0 108 -137 145l-205 55q-128 33 -188.5 100.5t-60.5 184.5q0 89 34.5 160t92.5 114.5t131 66t155 22.5q158 0 369 -68l96 -33l-51 -164l-102 39q-179 66 -320 66q-89 0 -153 -48t-64 -138 q0 -57 29.5 -92.5t99.5 -55.5l205 -55q134 -35 195 -99.5t61 -183.5q0 -89 -36.5 -159.5t-97 -113t-133.5 -65t-151 -22.5q-203 0 -383 65zM285 1270l272 256q54 43 109 43q51 0 94 -43l203 -256h-203l-109 164l-147 -164h-219z" />
<glyph horiz-adv-x="1067" d="M39 86l51 162l98 -35q191 -68 334 -68q96 0 158.5 48.5t62.5 138.5q0 108 -137 145l-205 55q-128 33 -188.5 100.5t-60.5 184.5q0 89 34.5 160t92.5 114.5t131 66t155 22.5q158 0 369 -68l96 -33l-51 -164l-102 39q-179 66 -320 66q-89 0 -153 -48t-64 -138 q0 -57 29.5 -92.5t99.5 -55.5l205 -55q134 -35 195 -99.5t61 -183.5q0 -71 -24 -131t-64 -101.5t-94 -70.5t-113 -42.5t-121 -14.5l-53 -90q166 0 166 -131q0 -81 -61.5 -125.5t-155.5 -44.5q-87 0 -179 41l33 94q79 -35 148 -35q94 0 94 67q0 20 -13.5 33t-37 17.5t-54.5 6 t-65 -0.5l-8 16l94 156q-167 13 -293 61z" />
<glyph horiz-adv-x="1042" d="M133 1018l27 153h899l-23 -153h-352l-152 -1018h-190l150 1018h-359zM313 1565h205l107 -166l151 166h217l-274 -256q-43 -43 -109 -43q-55 0 -92 43z" />
<glyph horiz-adv-x="1042" d="M133 1018l27 153h899l-23 -153h-352l-53 -354h252l-21 -146h-254l-76 -518h-190l76 518h-246l21 146h245l54 354h-359z" />
<glyph horiz-adv-x="1048" d="M55 0l172 1171h187l-31 -194h281q143 0 231 -80t88 -219q0 -188 -118.5 -310t-311.5 -122h-277l-36 -246h-185zM299 395h268q107 0 172.5 72.5t65.5 191.5q0 79 -44.5 124.5t-121.5 45.5h-279z" />
<glyph horiz-adv-x="1206" d="M31 528l20 138h107l57 378q9 61 49 94t103 33h286q214 0 340.5 -123t126.5 -341q0 -146 -43 -274.5t-121 -225t-197 -152t-263 -55.5h-301q-63 0 -93.5 39.5t-21.5 103.5l57 385h-106zM272 156h236q98 0 179 43t133.5 116t81 168t28.5 201q0 182 -94.5 258t-284.5 76 h-152l-53 -352h324l-21 -138h-323z" />
<glyph horiz-adv-x="1193" d="M109 428l110 743h184l-108 -747q-20 -129 40.5 -208t196.5 -79q140 0 219.5 74t98.5 213l111 747h190l-111 -747q-30 -210 -165.5 -328.5t-356.5 -118.5q-220 0 -330.5 120t-78.5 331zM432 1563h227l132 -158q26 -29 26 -62q0 -26 -19 -46.5t-53 -20.5q-26 0 -65 31z" />
<glyph horiz-adv-x="1193" d="M109 428l110 743h184l-108 -747q-20 -129 40.5 -208t196.5 -79q140 0 219.5 74t98.5 213l111 747h190l-111 -747q-30 -210 -165.5 -328.5t-356.5 -118.5q-220 0 -330.5 120t-78.5 331zM612 1341q0 36 37 68l164 154h248l-309 -258q-40 -31 -74 -31q-31 0 -48.5 20 t-17.5 47z" />
</font>
</defs>
</svg>
